<?xml version="1.0" encoding="utf-8"?>
<!-- Generator: Adobe Illustrator 15.0.0, SVG Export Plug-In  -->
<!DOCTYPE svg PUBLIC "-//W3C//DTD SVG 1.1//EN" "http://www.w3.org/Graphics/SVG/1.1/DTD/svg11.dtd" [
	<!ENTITY ns_flows "http://ns.adobe.com/Flows/1.0/">
]>
<svg version="1.1"
	 xmlns="http://www.w3.org/2000/svg" xmlns:xlink="http://www.w3.org/1999/xlink" xmlns:a="http://ns.adobe.com/AdobeSVGViewerExtensions/3.0/"
	 x="0px" y="0px" width="188px" height="188px" viewBox="0.291 -32.573 188 188"
	 overflow="visible" enable-background="new 0.291 -32.573 188 188" xml:space="preserve">
<defs>
</defs>
<path fill="#ACCFED" d="M155.478,83.097c-0.262-0.486-0.59-0.926-0.977-1.316c-0.064-0.285-0.309-0.506-0.613-0.529
	c-1.326-0.994-3.033-1.32-4.611-0.893c-1.197-3.033-4.025-5.023-7.244-5.023c-0.848,0-1.666,0.145-2.43,0.404
	c-0.334-0.062-0.672-0.104-1.018-0.104c-0.58,0-1.152,0.092-1.699,0.27c-1.156-3.145-4.123-5.232-7.51-5.232
	c-0.01,0-0.02,0.002-0.029,0.002c-0.012,0-0.021-0.002-0.033-0.002c-3.383,0-6.352,2.088-7.508,5.232
	c-0.551-0.178-1.121-0.27-1.699-0.27c-1.201,0-2.342,0.381-3.305,1.104l-0.096,0.088c-0.252,0.191-0.195,0.143-0.355,0.291
	c-0.451,0.418-0.824,0.904-1.115,1.447c-1.615,0.619-2.691,2.174-2.691,3.916c0,2.314,1.883,4.193,4.197,4.193h11.199h2.807h4.107
	c0.959,2.273,2.896,4.031,5.314,4.641c0.127,0.141,0.312,0.232,0.518,0.232h13.145c2.348,0,4.26-1.973,4.26-4.396
	C158.091,85.372,157.052,83.778,155.478,83.097z"/>
<path fill="#ACCFED" d="M58.106,105.255c-2.195,0-4.178,1.094-5.404,2.859c-0.354-0.604-0.787-1.152-1.303-1.633
	c-0.211-0.191-0.137-0.129-0.467-0.385l-0.125-0.113c-1.268-0.949-2.766-1.449-4.342-1.449c-0.764,0-1.512,0.117-2.234,0.354
	c-1.518-4.133-5.416-6.875-9.865-6.875c-0.016,0-0.027,0.002-0.041,0.002s-0.027-0.002-0.039-0.002c-4.451,0-8.35,2.742-9.867,6.875
	c-0.723-0.236-1.473-0.354-2.234-0.354c-1.578,0-3.072,0.5-4.338,1.449l-0.125,0.113c-0.332,0.256-0.26,0.193-0.471,0.385
	c-0.592,0.551-1.082,1.188-1.463,1.9c-2.125,0.818-3.537,2.857-3.537,5.146c0,3.037,2.473,5.51,5.514,5.51h14.715h3.691h11.904
	h2.811h8.367c0.172,0,0.33-0.076,0.438-0.195c2.959-0.746,5.074-3.51,5.074-6.697C64.765,108.347,61.778,105.255,58.106,105.255z"/>
<path fill="#ACCFED" d="M185.997,8.65c-0.32-0.596-0.729-1.127-1.221-1.586c-0.178-0.158-0.115-0.107-0.393-0.32l-0.102-0.096
	c-1.059-0.789-2.307-1.207-3.621-1.207c-0.635,0-1.262,0.098-1.863,0.293C177.532,2.285,174.278,0,170.569,0
	c-0.014,0-0.023,0.002-0.035,0.002c-0.01,0-0.021-0.002-0.033-0.002c-3.713,0-6.965,2.285-8.23,5.734
	c-0.604-0.195-1.227-0.293-1.861-0.293c-1.318,0-2.564,0.418-3.623,1.207l-0.104,0.096c-0.275,0.213-0.213,0.162-0.391,0.32
	c-0.494,0.459-0.9,0.99-1.221,1.586c-0.256,0.098-0.496,0.223-0.729,0.363c-1.207-1.414-2.961-2.271-4.887-2.271
	c-3.602,0-6.531,3.035-6.531,6.764c0,3.125,2.076,5.834,4.979,6.568c0.107,0.117,0.26,0.193,0.432,0.193h10.963
	c1.645,0,3.027-1.162,3.432-2.729h6.266h3.078h12.271c2.539,0,4.602-2.064,4.602-4.6C188.946,11.033,187.769,9.33,185.997,8.65z"/>
<path fill="#0B71B4" d="M145.706,112.298c0.941,0,1.666,0.344,2.191,1.014c0.52,0.676,0.779,1.621,0.779,2.848
	c0,1.223-0.262,2.178-0.791,2.863c-0.535,0.678-1.266,1.018-2.215,1.018c-0.945,0-1.695-0.332-2.215-1.018h-0.109l-0.293,0.889
	h-1.199v-10.518h1.602v2.502c0,0.174-0.008,0.457-0.031,0.816c-0.023,0.365-0.025,0.6-0.041,0.701h0.072
	C143.966,112.673,144.714,112.298,145.706,112.298 M145.282,113.591c-0.637,0-1.109,0.191-1.387,0.568
	c-0.285,0.379-0.426,1.008-0.439,1.887v0.113c0,0.906,0.143,1.568,0.439,1.969c0.277,0.412,0.75,0.623,1.428,0.623
	c0.559,0,0.99-0.223,1.281-0.676c0.287-0.443,0.439-1.094,0.439-1.93C147.044,114.446,146.46,113.591,145.282,113.591"/>
<path fill="#0B71B4" d="M154.065,112.298c0.328,0,0.588,0.021,0.795,0.062l-0.154,1.48c-0.227-0.051-0.463-0.078-0.709-0.078
	c-0.639,0-1.154,0.205-1.547,0.627c-0.406,0.414-0.602,0.949-0.602,1.619v3.902h-1.6v-7.475h1.252l0.217,1.312h0.076
	c0.25-0.445,0.576-0.801,0.977-1.061C153.175,112.429,153.608,112.298,154.065,112.298"/>
<path fill="#0B71B4" d="M157.854,119.911h-1.596v-6.203l1.596-1.271V119.911z M157.126,109.327l1.15,1.266l-1.273,1.145
	l-1.139-1.271L157.126,109.327z"/>
<path fill="#0B71B4" d="M174.526,119.911h-1.611v-4.598c0-0.578-0.117-1.01-0.346-1.295c-0.24-0.281-0.607-0.428-1.115-0.428
	c-0.672,0-1.162,0.199-1.48,0.604c-0.307,0.404-0.473,1.064-0.473,1.998v3.719h-1.6v-10.518h1.6v2.668
	c0,0.424-0.027,0.887-0.08,1.367h0.1c0.219-0.365,0.527-0.635,0.908-0.832c0.379-0.191,0.848-0.299,1.369-0.299
	c1.814,0,2.729,0.906,2.729,2.734V119.911z"/>
<path fill="#0B71B4" d="M179.552,118.763c0.387,0,0.779-0.068,1.176-0.189v1.207c-0.178,0.068-0.416,0.135-0.689,0.184
	c-0.277,0.051-0.568,0.076-0.871,0.076c-1.512,0-2.258-0.789-2.258-2.371v-4.031h-1.035v-0.701l1.104-0.584l0.539-1.582h0.984v1.666
	h2.15v1.201h-2.15v3.996c0,0.383,0.098,0.656,0.293,0.852C178.987,118.673,179.239,118.763,179.552,118.763"/>
<polygon fill="#F9AB1B" points="162.181,111.853 161.925,111.899 161.354,109.964 162.009,109.833 "/>
<polygon fill="#F9AB1B" points="164.292,112.087 164.538,112.187 165.479,110.39 164.87,110.136 "/>
<polygon fill="#F9AB1B" points="160.075,112.747 159.886,112.921 158.37,111.563 158.868,111.114 "/>
<polygon fill="#F9AB1B" points="166.147,115.548 166.079,115.798 167.435,116.333 167.435,115.784 "/>
<polygon fill="#F9AB1B" points="166.079,113.622 167.435,112.948 167.435,112.237 165.937,113.403 "/>
<path fill="#555554" d="M127.407,119.29l0.051-0.008c0.4-0.018,0.422-0.031,0.547-0.07c0.029-0.018,0.084-0.037,0.154-0.059
	c0.293-0.1,0.516-0.25,0.67-0.459c0.152-0.199,0.248-0.471,0.285-0.809c0.039-0.332,0.051-0.777,0.051-1.297v-6.256
	c0-0.518-0.012-0.963-0.051-1.299c-0.037-0.338-0.133-0.607-0.285-0.811c-0.154-0.205-0.383-0.352-0.699-0.457
	c-0.078-0.021-0.125-0.035-0.168-0.045c-0.104-0.045-0.104-0.057-0.504-0.074l-0.051-0.01v-0.371l0.053,0.01
	c0.502,0.012,0.611,0.012,0.928,0.023l0.322,0.008c0.584,0.01,1.203,0.014,1.846,0.014c0.51,0,1.004-0.004,1.5-0.014
	c0.289-0.008,0.383-0.02,0.51-0.031c0.098,0,0.201-0.02,0.412-0.033h0.049l0.004,0.375h-0.047c-0.373,0.029-0.412,0.041-0.502,0.082
	c-0.043,0.021-0.09,0.045-0.178,0.066c-0.293,0.105-0.518,0.252-0.666,0.449c-0.145,0.211-0.236,0.48-0.266,0.818
	c-0.049,0.342-0.07,0.781-0.07,1.299v6.256c0,0.52,0.021,0.965,0.07,1.297c0.029,0.338,0.135,0.609,0.277,0.809
	c0.152,0.209,0.393,0.359,0.699,0.459c0.113,0.033,0.148,0.059,0.191,0.074c0.064,0.037,0.088,0.055,0.441,0.072h0.045v0.379h-0.049
	c-0.25-0.016-0.373-0.023-0.494-0.033c-0.135-0.012-0.238-0.025-0.557-0.025c-0.555-0.016-1.121-0.018-1.734-0.018
	c-0.588,0-1.133,0.002-1.662,0.018c-0.312,0-0.439,0.014-0.605,0.025c-0.111,0.01-0.246,0.018-0.467,0.033h-0.055L127.407,119.29z"
	/>
<path fill="#555554" d="M134.468,114.886c0-0.676-0.016-1.217-0.057-1.754h1.027l0.064,1.066h0.025
	c0.314-0.615,1.049-1.213,2.1-1.213c0.885,0,2.24,0.531,2.24,2.752v3.857h-1.156v-3.727c0-1.043-0.377-1.9-1.469-1.9
	c-0.754,0-1.344,0.537-1.545,1.199c-0.051,0.139-0.074,0.342-0.074,0.545v3.883h-1.156V114.886z"/>
<path fill="#0B71B4" d="M165.921,118.868c-0.434-0.363-1.07-0.531-1.902-0.531h-1.297c-0.768,0-1.141-0.152-1.141-0.453
	c0-0.201,0.104-0.377,0.322-0.541l0.301,0.035l0.375,0.014c1.012,0,1.801-0.219,2.367-0.67c0.578-0.463,0.857-1.09,0.857-1.902
	c0-0.414-0.041-0.785-0.256-1.131c0,0-0.547-1.26-2.078-1.498l0,0c-0.609-0.121-1.641-0.18-2.59,0.359l0,0
	c-0.186,0.092-0.35,0.197-0.492,0.318c-0.549,0.447-0.82,1.09-0.82,1.916c0,0.512,0.123,0.955,0.352,1.342
	c0.234,0.367,0.549,0.648,0.951,0.818c-0.318,0.188-0.549,0.377-0.729,0.562c-0.166,0.195-0.25,0.443-0.25,0.717
	c0,0.238,0.078,0.449,0.24,0.656c0.158,0.205,0.346,0.348,0.562,0.445c-0.561,0.123-0.982,0.354-1.262,0.648
	c-0.293,0.314-0.426,0.695-0.426,1.145c0,0.672,0.277,1.182,0.832,1.553c0.561,0.363,1.371,0.547,2.436,0.547
	c1.387,0,2.453-0.244,3.195-0.732c0.742-0.48,1.115-1.174,1.115-2.055C166.585,119.743,166.37,119.224,165.921,118.868
	 M163.79,116.056c-0.238,0.297-0.598,0.449-1.088,0.449c-0.498,0-0.865-0.152-1.096-0.449c-0.252-0.316-0.369-0.723-0.369-1.244
	c0-1.162,0.488-1.734,1.465-1.734c0.957,0,1.436,0.572,1.436,1.734C164.138,115.333,164.019,115.739,163.79,116.056 M164.114,121.56
	c-0.414,0.207-1.006,0.311-1.744,0.311c-0.498,0-0.891-0.078-1.162-0.236c-0.271-0.17-0.414-0.387-0.414-0.678
	c0-0.287,0.133-0.525,0.395-0.705c0.256-0.186,0.561-0.277,0.947-0.277h1.07c0.533,0,0.916,0.066,1.16,0.174
	c0.248,0.107,0.375,0.299,0.375,0.592C164.741,121.085,164.538,121.366,164.114,121.56"/>
<path fill="none" stroke="#7D929E" stroke-width="6" stroke-linecap="round" stroke-linejoin="round" stroke-miterlimit="10" d="
	M122.407,100.817c-0.201-12.895-4.645-24.143-11.234-30.447"/>
<path fill="none" stroke="#7D929E" stroke-width="6" stroke-linecap="round" stroke-linejoin="round" stroke-miterlimit="10" d="
	M69.554,70.372c-6.59,6.303-11.031,17.551-11.23,30.445"/>
<path fill="#0971B8" d="M68.87,30.094c-0.236-0.41-1.613-0.582-2.326-0.699c-2.619-0.408-5.463-0.578-8.18-0.744
	c-8.145-0.494-15.883,1.846-23.896,2.344c-8.012-0.498-15.746-2.838-23.895-2.344c-2.725,0.166-5.553,0.336-8.186,0.744
	c-0.711,0.117-2.082,0.289-2.322,0.699c-0.719,1.25,4.695,2.104,6.316,2.438c4.242,0.887,8.166,1.02,12.705,0.912
	c0,0,12.816-1.254,15.381-1.6c2.561,0.346,15.383,1.6,15.383,1.6c4.543,0.107,8.453-0.025,12.705-0.912
	C64.179,32.197,69.583,31.344,68.87,30.094z"/>
<path fill="#0971B8" d="M180.663,30.094c-0.238-0.41-1.613-0.582-2.326-0.699c-2.619-0.408-5.461-0.578-8.182-0.744
	c-8.143-0.494-15.885,1.846-23.895,2.344c-8.012-0.498-15.746-2.838-23.893-2.344c-2.727,0.166-5.555,0.336-8.188,0.744
	c-0.713,0.117-2.082,0.289-2.32,0.699c-0.719,1.25,4.693,2.104,6.312,2.438c4.246,0.887,8.17,1.02,12.707,0.912
	c0,0,12.814-1.254,15.381-1.6c2.559,0.346,15.381,1.6,15.381,1.6c4.543,0.107,8.455-0.025,12.707-0.912
	C175.974,32.197,181.374,31.344,180.663,30.094z"/>
<path fill="#333333" d="M148.913,38.611c0,1.459-1.186,2.648-2.645,2.648l0,0c-1.469,0-2.658-1.189-2.658-2.648v-10.27
	c0-1.467,1.189-2.65,2.658-2.65l0,0c1.459,0,2.645,1.184,2.645,2.65V38.611z"/>
<path fill="#333333" d="M37.114,38.611c0,1.459-1.182,2.648-2.646,2.648l0,0c-1.461,0-2.646-1.189-2.646-2.648v-10.27
	c0-1.467,1.186-2.65,2.646-2.65l0,0c1.465,0,2.646,1.184,2.646,2.65V38.611z"/>
<path fill="#333333" d="M119.124,69.286c0,2.932-2.377,5.301-5.299,5.301H67.142c-2.928,0-5.305-2.369-5.305-5.301v-16.47
	c0-2.926,2.377-5.299,5.305-5.299h46.684c2.922,0,5.299,2.373,5.299,5.299V69.286z"/>
<rect x="143.61" y="28.973" fill="#333333" width="5.303" height="23.844"/>
<rect x="31.821" y="28.973" fill="#333333" width="5.293" height="23.844"/>
<rect x="31.821" y="47.518" fill="#333333" width="117.092" height="5.299"/>
<polygon fill="#333333" points="122.274,48.439 58.688,48.439 72.034,43.229 108.931,43.229 "/>
<path fill="#333333" d="M41.214,51.959c0,0.475-0.385,0.857-0.857,0.857H28.577c-0.473,0-0.855-0.383-0.855-0.857V39.668
	c0-0.473,0.383-0.857,0.855-0.857h11.779c0.473,0,0.857,0.385,0.857,0.857V51.959z"/>
<path fill="#333333" d="M153.007,51.959c0,0.475-0.385,0.857-0.855,0.857h-11.777c-0.475,0-0.859-0.383-0.859-0.857V39.668
	c0-0.473,0.385-0.857,0.859-0.857h11.777c0.471,0,0.855,0.385,0.855,0.857V51.959z"/>
<path fill="none" stroke="#333333" stroke-width="3" stroke-linecap="round" stroke-linejoin="round" stroke-miterlimit="10" d="
	M81.458,73.271c0,0-8.697,7.973-1.451,20.291"/>
<path fill="none" stroke="#333333" stroke-width="3" stroke-linecap="round" stroke-linejoin="round" stroke-miterlimit="10" d="
	M99.513,73.271c0,0,8.695,7.973,1.451,20.291"/>
<path fill="#333333" d="M100.587,100.239c0,0.24-0.195,0.434-0.434,0.434H80.808c-0.238,0-0.43-0.193-0.43-0.434V86.882
	c0-0.238,0.191-0.43,0.43-0.43h19.346c0.238,0,0.434,0.191,0.434,0.43V100.239z"/>
<path fill="#FFFFFF" d="M97.794,94.521c0,1.828-1.48,3.312-3.305,3.312c-1.826,0-3.309-1.484-3.309-3.312
	c0-1.826,1.482-3.307,3.309-3.307C96.313,91.214,97.794,92.694,97.794,94.521z"/>
<rect x="83.731" y="88.983" fill="#FFFFFF" width="4.781" height="1.713"/>
</svg>
