<?xml version="1.0" encoding="utf-8"?>
<!-- Generator: Adobe Illustrator 15.0.0, SVG Export Plug-In  -->
<!DOCTYPE svg PUBLIC "-//W3C//DTD SVG 1.1//EN" "http://www.w3.org/Graphics/SVG/1.1/DTD/svg11.dtd" [
	<!ENTITY ns_flows "http://ns.adobe.com/Flows/1.0/">
]>
<svg version="1.1"
	 xmlns="http://www.w3.org/2000/svg" xmlns:xlink="http://www.w3.org/1999/xlink" xmlns:a="http://ns.adobe.com/AdobeSVGViewerExtensions/3.0/"
	 x="0px" y="0px" width="293px" height="227px" viewBox="-55.694 -84.995 293 227"
	 overflow="visible" enable-background="new -55.694 -84.995 293 227" xml:space="preserve">
<defs>
</defs>
<path fill-rule="evenodd" clip-rule="evenodd" fill="#6D6E71" d="M60.467,0c2.308,17.325,2.137,39.378,0.557,57.401
	c-20.342,0-40.682,0-61.023,0C0,38.268,0,19.134,0,0C20.155,0,40.311,0,60.467,0z M30.095,24.801c0.79,1.87,1.661,3.861,2.507,5.852
	c0.834,1.961,1.276,4.429,3.065,5.573c2.301-3.458,3.929-7.589,5.293-11.983c-1.421-0.273-1.323,1.515-1.671,2.23
	c-1.376,2.822-2.47,6.08-3.901,8.637c-1.367-3.74-2.956-7.26-4.458-10.868c-0.357-0.016-0.387-0.354-0.836-0.277
	C30.095,24.242,30.095,24.521,30.095,24.801z M44.026,25.914c-1.863,2.183-1.789,7.265,0.835,9.196
	c2.592,1.912,6.839,1.396,8.916-0.275c1.54-1.24,2.225-3.869,1.951-5.853c-0.479-3.479-3.258-5.478-7.802-4.739
	C46.481,24.48,45.002,24.771,44.026,25.914z M18.949,24.801c-0.329,2.997-0.744,8.309,0.278,10.869
	c1.162,0.426,2.927,0.266,4.737,0.275c1.551,0.011,3.747,0.454,4.458-0.556c-2.154-0.818-6.2,0.254-8.358-0.555
	c-0.406-0.908-0.506-3.573,0-4.46c2.334-0.451,6.54,0.967,7.522-0.837c-2.527-0.166-5.731,0.346-7.801-0.277
	c0.11-1.471-0.362-3.518,0.557-4.182c1.188-0.019,2.754,0.028,4.18,0c1.276-0.022,3.125,0.482,3.623-0.557
	C25.711,24.136,20.96,23.838,18.949,24.801z"/>
<path fill-rule="evenodd" clip-rule="evenodd" fill="#6D6E71" d="M61.302,0c46.626,0,93.25,0,139.877,0c0,19.134,0,38.268,0,57.401
	c-46.439,0-92.881,0-139.32,0C63.35,39.059,63.51,17.666,61.302,0z M69.66,27.865c0,1.395,0,2.788,0,4.182
	c0.765,4.648,11.596,5.824,11.704-0.28c-1.753,0.643-1.657,2.097-3.064,2.787c-0.722,0.354-1.828,0.747-3.345,0.556
	c-7.621-0.949-3.976-13.594,3.622-10.032c1.302,0.613,0.731,1.781,2.507,2.787C81.627,21.819,70.467,23.021,69.66,27.865z
	 M117.587,23.685c-1.487,1.675-2.029,4.37-3.065,6.689c-0.895,2.003-2.481,3.687-2.229,5.571c1.901-0.329,1.466-2.989,2.787-3.898
	c2.042,0,4.086,0,6.129,0c0.953,1.091,0.796,3.29,2.509,3.623c-0.039-1.994-1.297-4.131-2.229-6.133
	c-0.963-2.06-1.792-4.263-3.064-5.852C118.145,23.685,117.867,23.685,117.587,23.685z M140.436,24.521
	c0.063,2.811-0.085,6.332,0,8.917c0.026,0.781-0.472,2.297,0.557,2.507c1.002-1.283,0.558-3.565,0.558-5.571
	c0-2.174,0-4.485,0-6.409c-0.383,0.011-0.613-0.131-0.837-0.28C140.7,24.042,140.358,24.073,140.436,24.521z M146.009,32.324
	c1.58,4.532,9.237,4.967,11.703,1.394c2.224-3.227,0.462-8.239-2.229-9.476c-1.312-0.601-2.982-0.494-4.458-0.277
	C146.96,24.561,144.476,27.929,146.009,32.324z M162.727,24.521c0.063,2.811-0.084,6.332,0,8.917
	c0.026,0.781-0.472,2.297,0.558,2.507c1.258-2.361,0.215-7.028,0.557-10.309c2.224,2.358,4.456,5.67,6.409,8.082
	c0.625,0.772,1.152,2.518,2.507,1.952c0-1.847,0-4.269,0-6.41c0-2.128,0.653-4.656-0.835-5.575
	c-0.635,2.898-0.104,6.957-0.279,10.311c-3.07-2.964-4.788-7.285-8.08-10.03c-0.061-0.217-0.233-0.324-0.557-0.28
	C162.991,24.042,162.647,24.073,162.727,24.521z M185.018,24.242c-1.613-0.901-7.802-0.743-7.802,2.511
	c0,4.729,9.229,1.793,8.917,6.13c-0.185,2.573-4.763,2.581-6.967,1.671c-0.932-0.554-0.502-2.468-1.951-2.507
	c-1.278,5.083,10.159,5.202,10.032,0.556c-0.125-4.617-9.019-1.953-8.917-5.85c0.06-2.272,3.605-2.013,5.574-1.952
	c1.324,0.346,1.078,2.268,2.507,2.509C187.082,25.851,185.696,24.624,185.018,24.242z M95.854,27.029
	c-0.042-3.431-7.236-4.038-10.31-2.229c0.121,2.693-0.164,6.415,0,8.917c0.045,0.69-0.522,2.468,0.836,2.227
	c0.646-1.211,0.095-3.617,0.278-5.292c2.395,0.205,5.708-0.507,7.244,0.557c0.444,1.599-0.319,4.407,1.673,4.46
	c-0.071-1.33,0.067-5.266-1.673-5.853C94.968,28.824,95.872,28.516,95.854,27.029z M100.033,24.521
	c-0.454,2.948-0.454,7.646,0,10.589c2.113,0.826,7.666,0.983,9.752,0c-2.264-0.798-6.373,0.244-8.638-0.556
	c-0.404-0.905-0.504-3.573,0-4.458c1.124-0.019,2.519,0.023,3.901,0c1.284-0.019,3.166,0.476,3.623-0.559
	c-1.972-0.815-5.826,0.255-7.802-0.555c0.102-1.57-0.403-3.749,0.835-4.18c2.464-0.321,6.25,0.678,7.802-0.559
	C106.97,23.875,102.142,23.541,100.033,24.521z M131.798,23.965c-1.872-0.011-3.947,0.008-5.574,0
	c-0.218,0.061-0.322,0.232-0.278,0.556c0.846,0.826,3.612-0.268,4.458,0.557c0,1.693,0,3.866,0,5.853
	c0,1.906-0.626,4.335,0.836,5.014c1.104-2.044,0.319-7.412,0.558-11.144c1.486,0,2.973,0,4.458,0
	C135.738,23.353,133.523,23.973,131.798,23.965z"/>
<path fill-rule="evenodd" clip-rule="evenodd" fill="#6D6E71" d="M48.206,25.078c2.449-0.4,4.541,0.194,5.572,1.675
	c3.847,5.515-4.216,11.759-8.638,7.243c-1.559-1.593-1.709-5.698-0.278-7.523C45.521,25.632,46.525,25.354,48.206,25.078z"/>
<path fill-rule="evenodd" clip-rule="evenodd" fill="#6D6E71" d="M94.182,28.701c-1.319,1.468-4.966,0.609-7.524,0.835
	c0.135-1.443-0.3-3.457,0.278-4.458C90.101,24.311,96.016,24.461,94.182,28.701z"/>
<path fill-rule="evenodd" clip-rule="evenodd" fill="#6D6E71" d="M150.189,25.078c1.612-0.46,3.472-0.51,4.735,0
	c2.836,1.149,3.565,6.798,1.115,8.917c-1.748,1.513-5.353,1.568-7.245,0.278C145.741,32.198,146.168,26.227,150.189,25.078z"/>
<path fill-rule="evenodd" clip-rule="evenodd" fill="#6D6E71" d="M117.867,25.078c1.314,1.565,1.854,3.905,2.787,5.853
	c-1.263,0.596-3.584,0.131-5.295,0.279C116.012,28.985,117.174,27.269,117.867,25.078z"/>
</svg>
