<?xml version="1.0" encoding="utf-8"?>
<!-- Generator: Adobe Illustrator 15.0.0, SVG Export Plug-In  -->
<!DOCTYPE svg PUBLIC "-//W3C//DTD SVG 1.1//EN" "http://www.w3.org/Graphics/SVG/1.1/DTD/svg11.dtd" [
	<!ENTITY ns_flows "http://ns.adobe.com/Flows/1.0/">
]>
<svg version="1.1"
	 xmlns="http://www.w3.org/2000/svg" xmlns:xlink="http://www.w3.org/1999/xlink" xmlns:a="http://ns.adobe.com/AdobeSVGViewerExtensions/3.0/"
	 x="0px" y="0px" width="293px" height="227px" viewBox="-38.69 -94.753 293 227"
	 overflow="visible" enable-background="new -38.69 -94.753 293 227" xml:space="preserve">
<defs>
</defs>
<path fill="#6D6E71" d="M44.254,21.89l-2.977-9.504h-0.077c0.104,1.933,0.161,3.224,0.161,3.872v5.632h-2.344V9.774h3.57
	l2.931,9.263h0.05l3.105-9.263h3.571V21.89h-2.445v-5.736c0-0.269,0.003-0.584,0.011-0.935c0.011-0.356,0.048-1.293,0.114-2.817
	h-0.075l-3.19,9.488H44.254z"/>
<path fill="#6D6E71" d="M61.164,21.89l-0.499-1.257h-0.067c-0.435,0.535-0.882,0.904-1.341,1.113c-0.46,0.207-1.061,0.31-1.8,0.31
	c-0.907,0-1.623-0.253-2.147-0.763c-0.521-0.506-0.78-1.232-0.78-2.17c0-0.982,0.35-1.708,1.054-2.175
	c0.702-0.468,1.761-0.727,3.177-0.777l1.642-0.047v-0.408c0-0.938-0.491-1.408-1.471-1.408c-0.757,0-1.648,0.222-2.668,0.669
	l-0.855-1.708c1.087-0.555,2.299-0.835,3.623-0.835c1.27,0,2.242,0.272,2.919,0.812c0.677,0.541,1.015,1.365,1.015,2.469v6.175
	H61.164z M60.402,17.596l-1,0.034c-0.75,0.022-1.307,0.155-1.676,0.397c-0.366,0.241-0.549,0.616-0.549,1.112
	c0,0.711,0.417,1.069,1.252,1.069c0.599,0,1.077-0.17,1.435-0.505c0.355-0.338,0.537-0.788,0.537-1.345V17.596z"/>
<path fill="#6D6E71" d="M70.818,22.055c-1.112,0-1.981-0.396-2.613-1.185H68.07c0.087,0.777,0.135,1.22,0.135,1.343v3.754h-2.582
	V12.626h2.098l0.364,1.201h0.119c0.604-0.919,1.498-1.379,2.682-1.379c1.118,0,1.992,0.424,2.624,1.27
	c0.632,0.844,0.948,2.021,0.948,3.524c0,0.985-0.148,1.847-0.442,2.574c-0.297,0.732-0.719,1.286-1.267,1.67
	C72.202,21.863,71.559,22.055,70.818,22.055z M70.058,14.473c-0.638,0-1.104,0.192-1.398,0.577
	c-0.292,0.384-0.444,1.016-0.455,1.901v0.275c0,0.992,0.148,1.705,0.452,2.133c0.3,0.433,0.78,0.647,1.436,0.647
	c1.155,0,1.734-0.934,1.734-2.802c0-0.907-0.142-1.593-0.428-2.047C71.113,14.7,70.667,14.473,70.058,14.473z"/>
<path fill="#6D6E71" d="M82.598,21.89L82.1,20.632h-0.067c-0.435,0.535-0.88,0.904-1.341,1.113c-0.458,0.207-1.059,0.31-1.798,0.31
	c-0.91,0-1.625-0.253-2.146-0.763c-0.522-0.506-0.783-1.232-0.783-2.17c0-0.982,0.352-1.708,1.052-2.175
	c0.707-0.468,1.764-0.727,3.181-0.777l1.64-0.047v-0.408c0-0.938-0.491-1.408-1.471-1.408c-0.757,0-1.646,0.222-2.666,0.669
	l-0.854-1.708c1.088-0.555,2.295-0.835,3.622-0.835c1.27,0,2.242,0.272,2.917,0.812c0.679,0.541,1.018,1.365,1.018,2.469v6.175
	H82.598z M81.837,17.596l-0.998,0.034c-0.75,0.022-1.312,0.155-1.676,0.397c-0.366,0.241-0.549,0.616-0.549,1.112
	c0,0.711,0.417,1.069,1.252,1.069c0.596,0,1.076-0.17,1.436-0.505c0.356-0.338,0.535-0.788,0.535-1.345V17.596z"/>
<path fill="#6D6E71" d="M87.119,20.138V8.609h1.368v10.312h5.193v1.216H87.119z"/>
<path fill="#6D6E71" d="M103.092,15.807c0,1.409-0.361,2.508-1.088,3.299c-0.723,0.792-1.725,1.188-3.002,1.188
	c-0.787,0-1.489-0.183-2.102-0.547c-0.611-0.358-1.083-0.882-1.415-1.559c-0.334-0.68-0.5-1.473-0.5-2.382
	c0-1.407,0.36-2.505,1.079-3.29c0.719-0.788,1.719-1.181,2.994-1.181c1.235,0,2.218,0.405,2.943,1.206
	C102.729,13.349,103.092,14.434,103.092,15.807z M96.37,15.807c0,1.106,0.225,1.944,0.675,2.524
	c0.452,0.579,1.113,0.866,1.991,0.866c0.873,0,1.539-0.288,1.992-0.861c0.45-0.577,0.68-1.42,0.68-2.529
	c0-1.099-0.229-1.934-0.68-2.501c-0.454-0.571-1.123-0.857-2.01-0.857c-0.874,0-1.534,0.281-1.981,0.847
	C96.593,13.855,96.37,14.695,96.37,15.807z"/>
<path fill="#6D6E71" d="M108.961,20.294c-1.28,0-2.267-0.388-2.968-1.157c-0.7-0.77-1.051-1.858-1.051-3.268
	c0-1.443,0.354-2.559,1.066-3.353c0.71-0.788,1.725-1.181,3.04-1.181c0.422,0,0.849,0.047,1.272,0.133
	c0.422,0.087,0.754,0.195,0.998,0.317l-0.413,1.112c-0.294-0.116-0.616-0.211-0.965-0.288c-0.35-0.077-0.658-0.116-0.926-0.116
	c-1.792,0-2.688,1.12-2.688,3.359c0,1.062,0.219,1.879,0.655,2.442c0.437,0.569,1.087,0.854,1.945,0.854
	c0.737,0,1.489-0.153,2.261-0.464v1.157C110.6,20.141,109.857,20.294,108.961,20.294z"/>
<path fill="#6D6E71" d="M118.709,20.138l-0.264-1.235h-0.066c-0.439,0.544-0.88,0.91-1.315,1.104
	c-0.438,0.188-0.985,0.288-1.64,0.288c-0.874,0-1.561-0.22-2.058-0.663c-0.493-0.444-0.743-1.069-0.743-1.886
	c0-1.747,1.423-2.658,4.275-2.743l1.496-0.05v-0.535c0-0.677-0.15-1.178-0.447-1.5c-0.295-0.324-0.774-0.49-1.428-0.49
	c-0.736,0-1.568,0.222-2.494,0.663l-0.413-0.998c0.433-0.231,0.912-0.416,1.431-0.544c0.516-0.131,1.035-0.199,1.557-0.199
	c1.051,0,1.83,0.23,2.338,0.685c0.506,0.458,0.76,1.19,0.76,2.201v5.9H118.709z M115.69,19.212c0.832,0,1.487-0.224,1.962-0.669
	c0.474-0.447,0.71-1.074,0.71-1.878v-0.78l-1.335,0.053c-1.062,0.042-1.828,0.2-2.297,0.488c-0.471,0.288-0.704,0.731-0.704,1.338
	c0,0.474,0.142,0.832,0.436,1.079C114.755,19.089,115.165,19.212,115.69,19.212z"/>
<path fill="#6D6E71" d="M123.79,20.138h-1.337V7.867h1.337V20.138z"/>
<path fill="#6D6E71" d="M126.51,9.152c0-0.3,0.075-0.516,0.226-0.658c0.148-0.138,0.337-0.208,0.564-0.208
	c0.216,0,0.398,0.072,0.553,0.213c0.157,0.141,0.235,0.359,0.235,0.653c0,0.297-0.078,0.516-0.235,0.66
	c-0.155,0.144-0.337,0.216-0.553,0.216c-0.227,0-0.416-0.072-0.564-0.216C126.585,9.668,126.51,9.449,126.51,9.152z M127.96,20.138
	h-1.338v-8.644h1.338V20.138z"/>
<path fill="#6D6E71" d="M136.437,20.138h-6.398v-0.891l4.813-6.733h-4.518v-1.02h5.981v1.02l-4.749,6.602h4.871V20.138z"/>
<path fill="#6D6E71" d="M143.931,20.138l-0.264-1.235H143.6c-0.438,0.544-0.875,0.91-1.313,1.104
	c-0.439,0.188-0.983,0.288-1.635,0.288c-0.879,0-1.564-0.22-2.061-0.663c-0.496-0.444-0.745-1.069-0.745-1.886
	c0-1.747,1.425-2.658,4.277-2.743l1.497-0.05v-0.535c0-0.677-0.15-1.178-0.446-1.5c-0.299-0.324-0.777-0.49-1.431-0.49
	c-0.735,0-1.568,0.222-2.496,0.663l-0.411-0.998c0.435-0.231,0.911-0.416,1.429-0.544c0.521-0.131,1.039-0.199,1.559-0.199
	c1.052,0,1.833,0.23,2.339,0.685c0.507,0.458,0.76,1.19,0.76,2.201v5.9H143.931z M140.912,19.212c0.833,0,1.485-0.224,1.962-0.669
	c0.476-0.447,0.711-1.074,0.711-1.878v-0.78l-1.333,0.053c-1.063,0.042-1.831,0.2-2.3,0.488c-0.469,0.288-0.705,0.731-0.705,1.338
	c0,0.474,0.147,0.832,0.438,1.079C139.978,19.089,140.388,19.212,140.912,19.212z"/>
<path fill="#6D6E71" d="M153.682,18.978h-0.073c-0.618,0.875-1.541,1.316-2.77,1.316c-1.154,0-2.05-0.388-2.692-1.16
	c-0.641-0.772-0.962-1.873-0.962-3.296c0-1.423,0.321-2.527,0.968-3.321c0.643-0.788,1.539-1.181,2.687-1.181
	c1.196,0,2.114,0.424,2.752,1.277h0.106l-0.056-0.625l-0.033-0.605V7.867h1.337v12.271h-1.087L153.682,18.978z M151.008,19.197
	c0.913,0,1.575-0.242,1.984-0.727c0.411-0.489,0.616-1.271,0.616-2.355v-0.276c0-1.223-0.207-2.097-0.624-2.619
	c-0.416-0.527-1.081-0.79-1.992-0.79c-0.783,0-1.384,0.3-1.8,0.898c-0.415,0.599-0.624,1.438-0.624,2.527
	c0,1.107,0.208,1.938,0.621,2.501C149.601,18.916,150.209,19.197,151.008,19.197z"/>
<path fill="#6D6E71" d="M165.396,15.807c0,1.409-0.363,2.508-1.088,3.299c-0.724,0.792-1.723,1.188-3,1.188
	c-0.788,0-1.489-0.183-2.102-0.547c-0.612-0.358-1.083-0.882-1.418-1.559c-0.333-0.68-0.497-1.473-0.497-2.382
	c0-1.407,0.358-2.505,1.077-3.29c0.719-0.788,1.719-1.181,2.995-1.181c1.235,0,2.217,0.405,2.943,1.206
	C165.033,13.349,165.396,14.434,165.396,15.807z M158.673,15.807c0,1.106,0.225,1.944,0.677,2.524
	c0.449,0.579,1.114,0.866,1.988,0.866c0.875,0,1.539-0.288,1.994-0.861c0.452-0.577,0.68-1.42,0.68-2.529
	c0-1.099-0.229-1.934-0.68-2.501c-0.455-0.571-1.123-0.857-2.008-0.857c-0.877,0-1.537,0.281-1.981,0.847
	C158.896,13.855,158.673,14.695,158.673,15.807z"/>
<path fill="#6D6E71" d="M171.763,11.336c0.393,0,0.746,0.031,1.054,0.095l-0.184,1.217c-0.365-0.084-0.688-0.122-0.968-0.122
	c-0.711,0-1.323,0.285-1.83,0.854c-0.506,0.566-0.76,1.273-0.76,2.121v4.638h-1.338v-8.644h1.104l0.153,1.598h0.065
	c0.327-0.558,0.721-0.993,1.182-1.294C170.704,11.491,171.209,11.336,171.763,11.336z"/>
<path fill="#6D6E71" d="M174.275,19.3c0-0.354,0.083-0.62,0.244-0.804c0.166-0.18,0.4-0.269,0.704-0.269
	c0.314,0,0.557,0.089,0.731,0.269c0.175,0.184,0.261,0.45,0.261,0.804c0,0.341-0.089,0.604-0.267,0.79
	c-0.177,0.183-0.417,0.277-0.726,0.277c-0.272,0-0.496-0.084-0.677-0.253C174.365,19.951,174.275,19.677,174.275,19.3z"/>
<path fill="#6D6E71" d="M182.383,20.294c-1.278,0-2.268-0.388-2.968-1.157c-0.7-0.77-1.049-1.858-1.049-3.268
	c0-1.443,0.357-2.559,1.066-3.353c0.71-0.788,1.724-1.181,3.037-1.181c0.425,0,0.849,0.047,1.272,0.133
	c0.425,0.087,0.76,0.195,0.998,0.317l-0.41,1.112c-0.294-0.116-0.616-0.211-0.966-0.288c-0.347-0.077-0.657-0.116-0.924-0.116
	c-1.795,0-2.691,1.12-2.691,3.359c0,1.062,0.219,1.879,0.656,2.442c0.439,0.569,1.085,0.854,1.947,0.854
	c0.732,0,1.487-0.153,2.26-0.464v1.157C184.022,20.141,183.277,20.294,182.383,20.294z"/>
<path fill="#6D6E71" d="M194.322,15.807c0,1.409-0.363,2.508-1.088,3.299c-0.723,0.792-1.725,1.188-3.002,1.188
	c-0.79,0-1.49-0.183-2.099-0.547c-0.614-0.358-1.086-0.882-1.419-1.559c-0.332-0.68-0.499-1.473-0.499-2.382
	c0-1.407,0.361-2.505,1.081-3.29c0.719-0.788,1.715-1.181,2.994-1.181c1.235,0,2.213,0.405,2.943,1.206
	C193.957,13.349,194.322,14.434,194.322,15.807z M187.599,15.807c0,1.106,0.224,1.944,0.676,2.524
	c0.45,0.579,1.115,0.866,1.989,0.866c0.875,0,1.537-0.288,1.994-0.861c0.452-0.577,0.679-1.42,0.679-2.529
	c0-1.099-0.227-1.934-0.679-2.501c-0.457-0.571-1.124-0.857-2.008-0.857c-0.877,0-1.535,0.281-1.982,0.847
	C187.821,13.855,187.599,14.695,187.599,15.807z"/>
<path fill="#6D6E71" d="M207.91,20.138v-5.623c0-0.688-0.148-1.204-0.45-1.551c-0.3-0.344-0.768-0.516-1.401-0.516
	c-0.829,0-1.444,0.234-1.842,0.704c-0.398,0.466-0.597,1.187-0.597,2.158v4.829h-1.335v-5.623c0-0.688-0.148-1.204-0.45-1.551
	c-0.3-0.344-0.772-0.516-1.411-0.516c-0.836,0-1.448,0.244-1.839,0.738c-0.389,0.491-0.583,1.298-0.583,2.415v4.538h-1.337v-8.644
	h1.089l0.219,1.182h0.061c0.251-0.419,0.61-0.747,1.066-0.985c0.461-0.238,0.974-0.355,1.543-0.355c1.379,0,2.279,0.489,2.703,1.468
	h0.064c0.264-0.454,0.647-0.81,1.143-1.076c0.5-0.26,1.068-0.393,1.709-0.393c0.998,0,1.745,0.25,2.242,0.752
	c0.496,0.502,0.743,1.307,0.743,2.408v5.642H207.91z"/>
<path fill="#6D6E71" d="M131.999,30.646c0,0.227,0.031,0.441,0.092,0.635c0.058,0.195,0.15,0.363,0.272,0.503
	c0.124,0.139,0.28,0.25,0.469,0.332c0.189,0.082,0.41,0.124,0.663,0.124c0.417,0,0.775-0.116,1.066-0.346
	c0.292-0.234,0.499-0.531,0.619-0.904h0.628c-0.173,0.573-0.452,1.007-0.838,1.308c-0.386,0.303-0.886,0.449-1.506,0.449
	c-0.685,0-1.204-0.189-1.559-0.564c-0.356-0.378-0.535-0.901-0.535-1.562c0-0.405,0.061-0.796,0.184-1.177
	c0.124-0.381,0.304-0.724,0.544-1.02c0.238-0.3,0.532-0.542,0.877-0.726c0.344-0.181,0.736-0.272,1.176-0.272
	c0.311,0,0.588,0.047,0.827,0.144c0.239,0.09,0.444,0.225,0.611,0.397c0.17,0.172,0.299,0.38,0.386,0.623
	c0.084,0.237,0.128,0.506,0.128,0.799c0,0.144-0.003,0.286-0.007,0.43c-0.009,0.144-0.021,0.291-0.043,0.441h-4.026
	C132.01,30.372,131.999,30.502,131.999,30.646z M135.475,29.537c0.003-0.061,0.003-0.124,0.003-0.189
	c0-0.43-0.124-0.772-0.372-1.026c-0.249-0.25-0.594-0.381-1.032-0.381c-0.259,0-0.497,0.055-0.71,0.153
	c-0.217,0.102-0.413,0.234-0.58,0.397c-0.169,0.169-0.312,0.358-0.424,0.572c-0.114,0.219-0.197,0.441-0.251,0.676h3.362
	C135.47,29.667,135.472,29.598,135.475,29.537z"/>
<path fill="#6D6E71" d="M138.46,25.639l-1.534,6.971h-0.62l1.525-6.971H138.46z"/>
<path fill="#6D6E71" d="M142.599,27.572l-0.202,0.877l0.021,0.02c0.186-0.291,0.439-0.541,0.76-0.743
	c0.317-0.202,0.671-0.302,1.056-0.302c0.36,0,0.647,0.087,0.868,0.269c0.219,0.178,0.345,0.447,0.38,0.81h0.019
	c0.2-0.319,0.454-0.576,0.76-0.777c0.312-0.202,0.66-0.302,1.046-0.302c0.497,0,0.858,0.124,1.085,0.372
	c0.225,0.247,0.339,0.566,0.339,0.954c0,0.095-0.008,0.185-0.021,0.281c-0.014,0.094-0.029,0.191-0.05,0.299l-0.719,3.279h-0.628
	l0.73-3.302c0.039-0.174,0.061-0.347,0.061-0.507c0-0.247-0.08-0.45-0.234-0.616c-0.158-0.159-0.407-0.244-0.745-0.244
	c-0.271,0-0.51,0.062-0.713,0.189c-0.203,0.121-0.378,0.288-0.527,0.502c-0.152,0.209-0.277,0.46-0.374,0.741
	c-0.1,0.282-0.188,0.588-0.261,0.912l-0.507,2.325h-0.628l0.716-3.279c0.039-0.17,0.061-0.333,0.061-0.49
	c0-0.247-0.07-0.461-0.206-0.635c-0.135-0.178-0.355-0.266-0.66-0.266c-0.227,0-0.444,0.056-0.649,0.169
	c-0.208,0.109-0.394,0.258-0.56,0.447c-0.165,0.189-0.31,0.413-0.435,0.669c-0.122,0.256-0.217,0.532-0.283,0.827l-0.557,2.557
	h-0.619l1.098-5.038H142.599z"/>
<path fill="#6D6E71" d="M150.2,28.332c0.13-0.206,0.294-0.378,0.483-0.513c0.194-0.134,0.414-0.231,0.66-0.297
	c0.244-0.066,0.503-0.097,0.776-0.097c0.172,0,0.366,0.017,0.574,0.047c0.209,0.035,0.405,0.094,0.584,0.177
	c0.177,0.086,0.327,0.2,0.447,0.342c0.119,0.144,0.182,0.329,0.182,0.559c0,0.124-0.014,0.258-0.036,0.411
	c-0.023,0.147-0.052,0.3-0.084,0.45c-0.034,0.156-0.069,0.303-0.108,0.45c-0.036,0.147-0.065,0.275-0.09,0.385
	c-0.061,0.282-0.113,0.513-0.158,0.701c-0.041,0.185-0.075,0.339-0.102,0.463c-0.03,0.125-0.048,0.225-0.06,0.303
	c-0.014,0.077-0.022,0.153-0.022,0.231c0,0.094,0.036,0.15,0.11,0.172c0.073,0.025,0.147,0.038,0.219,0.038
	c0.048,0,0.087-0.003,0.126-0.009c0.036-0.001,0.077-0.003,0.122-0.013l-0.091,0.479c-0.164,0.033-0.337,0.048-0.516,0.048
	c-0.354,0-0.535-0.18-0.549-0.536c0-0.047,0.003-0.091,0.004-0.141c0.005-0.044,0.009-0.088,0.016-0.135l-0.02-0.02
	c-0.18,0.295-0.432,0.521-0.755,0.682c-0.327,0.158-0.669,0.238-1.029,0.238c-0.238,0-0.458-0.027-0.658-0.077
	c-0.2-0.057-0.371-0.135-0.515-0.246c-0.143-0.111-0.256-0.255-0.338-0.427c-0.083-0.177-0.125-0.391-0.125-0.635
	c0-0.271,0.048-0.494,0.146-0.674c0.097-0.186,0.227-0.333,0.393-0.452c0.166-0.117,0.356-0.209,0.569-0.278
	c0.213-0.066,0.435-0.121,0.668-0.163c0.341-0.05,0.646-0.075,0.921-0.072c0.277,0.003,0.516-0.021,0.713-0.071
	c0.207-0.055,0.361-0.148,0.466-0.284c0.1-0.138,0.154-0.371,0.154-0.704c0-0.15-0.036-0.271-0.106-0.366
	c-0.069-0.095-0.155-0.167-0.26-0.22c-0.103-0.05-0.219-0.088-0.349-0.11c-0.128-0.016-0.253-0.028-0.375-0.028
	c-0.197,0-0.386,0.022-0.566,0.06c-0.178,0.043-0.341,0.1-0.489,0.19c-0.146,0.089-0.266,0.205-0.363,0.351
	c-0.097,0.147-0.161,0.325-0.195,0.535h-0.627C149.986,28.788,150.07,28.542,150.2,28.332z M153.038,29.896
	c-0.053,0.058-0.129,0.104-0.227,0.142c-0.095,0.033-0.195,0.061-0.303,0.082c-0.106,0.02-0.216,0.033-0.324,0.039
	c-0.111,0.008-0.203,0.012-0.283,0.019c-0.193,0.016-0.408,0.035-0.644,0.053c-0.236,0.028-0.457,0.075-0.663,0.147
	c-0.207,0.077-0.378,0.188-0.518,0.334c-0.142,0.146-0.211,0.351-0.211,0.62c0,0.161,0.033,0.3,0.095,0.413
	c0.064,0.119,0.147,0.211,0.255,0.285c0.108,0.077,0.23,0.126,0.368,0.163c0.139,0.033,0.283,0.048,0.43,0.048
	c0.505,0,0.911-0.133,1.226-0.402c0.312-0.266,0.52-0.622,0.618-1.073l0.2-0.851L153.038,29.896z"/>
<path fill="#6D6E71" d="M156.127,27.572l-0.2,0.909h0.021c0.219-0.333,0.472-0.593,0.763-0.777c0.29-0.185,0.658-0.278,1.11-0.278
	c0.333,0,0.621,0.05,0.865,0.152c0.241,0.102,0.442,0.242,0.606,0.42c0.161,0.178,0.283,0.394,0.364,0.649
	c0.08,0.252,0.121,0.53,0.121,0.838c0,0.392-0.067,0.78-0.194,1.168c-0.13,0.386-0.319,0.736-0.564,1.044
	c-0.247,0.311-0.543,0.56-0.887,0.758c-0.347,0.192-0.735,0.291-1.167,0.291c-0.2,0-0.394-0.021-0.579-0.064
	c-0.188-0.042-0.355-0.108-0.497-0.2c-0.147-0.09-0.269-0.208-0.372-0.358c-0.101-0.142-0.166-0.316-0.197-0.519h-0.022l-0.627,2.86
	h-0.618l1.504-6.893H156.127z M156.803,28.211c-0.275,0.177-0.511,0.405-0.701,0.683c-0.189,0.275-0.334,0.582-0.431,0.917
	c-0.104,0.334-0.153,0.661-0.153,0.974c0,0.449,0.126,0.802,0.375,1.062c0.249,0.263,0.604,0.393,1.06,0.393
	c0.36,0,0.679-0.086,0.954-0.264c0.277-0.175,0.503-0.402,0.686-0.672c0.183-0.275,0.322-0.576,0.416-0.904
	c0.093-0.33,0.14-0.646,0.14-0.954c0-0.427-0.113-0.785-0.34-1.073c-0.227-0.285-0.575-0.432-1.046-0.432
	C157.404,27.941,157.083,28.03,156.803,28.211z"/>
<path fill="#6D6E71" d="M161.095,28.332c0.132-0.206,0.294-0.378,0.486-0.513c0.194-0.134,0.411-0.231,0.655-0.297
	c0.247-0.066,0.508-0.097,0.78-0.097c0.172,0,0.363,0.017,0.572,0.047c0.211,0.035,0.407,0.094,0.583,0.177
	c0.18,0.086,0.33,0.2,0.449,0.342c0.12,0.144,0.18,0.329,0.18,0.559c0,0.124-0.013,0.258-0.034,0.411
	c-0.023,0.147-0.052,0.3-0.084,0.45c-0.033,0.156-0.067,0.303-0.106,0.45c-0.036,0.147-0.064,0.275-0.094,0.385
	c-0.058,0.282-0.113,0.513-0.155,0.701c-0.044,0.185-0.078,0.339-0.106,0.463c-0.023,0.125-0.045,0.225-0.058,0.303
	c-0.015,0.077-0.021,0.153-0.021,0.231c0,0.094,0.038,0.15,0.109,0.172c0.073,0.025,0.146,0.038,0.221,0.038
	c0.045,0,0.086-0.003,0.125-0.009c0.036-0.001,0.076-0.003,0.124-0.013l-0.089,0.479c-0.166,0.033-0.339,0.048-0.521,0.048
	c-0.349,0-0.532-0.18-0.546-0.536c0-0.047,0-0.091,0.003-0.141c0.003-0.044,0.011-0.088,0.016-0.135l-0.019-0.02
	c-0.18,0.295-0.433,0.521-0.758,0.682c-0.325,0.158-0.669,0.238-1.027,0.238c-0.239,0-0.457-0.027-0.658-0.077
	c-0.199-0.057-0.369-0.135-0.513-0.246c-0.144-0.111-0.255-0.255-0.337-0.427c-0.084-0.177-0.127-0.391-0.127-0.635
	c0-0.271,0.05-0.494,0.144-0.674c0.099-0.186,0.23-0.333,0.396-0.452c0.166-0.117,0.356-0.209,0.566-0.278
	c0.214-0.066,0.439-0.121,0.669-0.163c0.339-0.05,0.646-0.075,0.924-0.072c0.275,0.003,0.511-0.021,0.711-0.071
	c0.208-0.055,0.361-0.148,0.463-0.284c0.103-0.138,0.155-0.371,0.155-0.704c0-0.15-0.035-0.271-0.104-0.366
	c-0.07-0.095-0.156-0.167-0.258-0.22c-0.106-0.05-0.222-0.088-0.354-0.11c-0.126-0.016-0.253-0.028-0.372-0.028
	c-0.2,0-0.388,0.022-0.569,0.06c-0.18,0.043-0.341,0.1-0.486,0.19c-0.149,0.089-0.27,0.205-0.365,0.351
	c-0.098,0.147-0.159,0.325-0.194,0.535h-0.628C160.883,28.788,160.967,28.542,161.095,28.332z M163.935,29.896
	c-0.055,0.058-0.13,0.104-0.224,0.142c-0.097,0.033-0.2,0.061-0.305,0.082c-0.106,0.02-0.214,0.033-0.324,0.039
	c-0.111,0.008-0.206,0.012-0.286,0.019c-0.193,0.016-0.405,0.035-0.644,0.053c-0.234,0.028-0.455,0.075-0.662,0.147
	c-0.206,0.077-0.378,0.188-0.518,0.334c-0.141,0.146-0.209,0.351-0.209,0.62c0,0.161,0.031,0.3,0.094,0.413
	c0.064,0.119,0.148,0.211,0.255,0.285c0.104,0.077,0.228,0.126,0.369,0.163c0.137,0.033,0.283,0.048,0.428,0.048
	c0.505,0,0.913-0.133,1.228-0.402c0.311-0.266,0.518-0.622,0.616-1.073l0.2-0.851L163.935,29.896z"/>
<path fill="#6D6E71" d="M169.797,27.572l-1.107,5.038h-0.619l1.096-5.038H169.797z M170.224,25.639l-0.219,0.985h-0.63l0.222-0.985
	H170.224z"/>
<path fill="#6D6E71" d="M171.591,27.572l-0.18,0.917h0.019c0.195-0.297,0.455-0.551,0.774-0.757
	c0.322-0.204,0.677-0.307,1.063-0.307c0.225,0,0.433,0.028,0.621,0.078c0.191,0.05,0.356,0.131,0.496,0.239
	c0.138,0.108,0.247,0.249,0.324,0.421c0.075,0.172,0.116,0.378,0.116,0.619c0,0.136-0.028,0.334-0.081,0.594l-0.708,3.233h-0.627
	l0.717-3.252c0.021-0.075,0.038-0.161,0.049-0.25c0.013-0.088,0.021-0.174,0.021-0.258c0-0.168-0.03-0.311-0.089-0.423
	c-0.06-0.113-0.139-0.207-0.241-0.278c-0.099-0.071-0.213-0.122-0.344-0.157c-0.126-0.034-0.261-0.05-0.403-0.05
	c-0.225,0-0.444,0.05-0.657,0.147c-0.213,0.097-0.41,0.238-0.588,0.416c-0.18,0.181-0.336,0.397-0.469,0.653
	c-0.133,0.256-0.231,0.546-0.3,0.865l-0.566,2.588h-0.618l1.096-5.038H171.591z"/>
<path fill="#6D6E71" d="M176.726,27.572l0.33-1.523h0.628l-0.331,1.523h1.027l-0.1,0.516h-1.046l-0.71,3.232
	c-0.023,0.117-0.044,0.208-0.053,0.269c-0.011,0.061-0.016,0.131-0.016,0.211c0,0.091,0.025,0.17,0.077,0.247
	c0.05,0.069,0.135,0.106,0.255,0.106c0.246,0,0.489-0.022,0.736-0.06l-0.107,0.525c-0.108,0.013-0.214,0.023-0.322,0.028
	c-0.106,0.006-0.213,0.011-0.319,0.011c-0.119,0-0.236-0.008-0.349-0.023c-0.111-0.019-0.212-0.05-0.303-0.103
	c-0.09-0.053-0.161-0.125-0.216-0.219c-0.051-0.094-0.08-0.216-0.08-0.369c0-0.05,0.006-0.121,0.016-0.213
	c0.011-0.09,0.028-0.192,0.055-0.3l0.708-3.343h-0.927l0.119-0.516H176.726z"/>
<path fill="#6D6E71" d="M179.088,30.646c0,0.227,0.028,0.441,0.089,0.635c0.058,0.195,0.152,0.363,0.274,0.503
	c0.124,0.139,0.28,0.25,0.467,0.332c0.191,0.082,0.412,0.124,0.663,0.124c0.421,0,0.777-0.116,1.068-0.346
	c0.291-0.234,0.499-0.531,0.619-0.904h0.628c-0.173,0.573-0.454,1.007-0.84,1.308c-0.386,0.303-0.886,0.449-1.504,0.449
	c-0.687,0-1.206-0.189-1.561-0.564c-0.355-0.378-0.533-0.901-0.533-1.562c0-0.405,0.061-0.796,0.184-1.177
	c0.122-0.381,0.304-0.724,0.544-1.02c0.238-0.3,0.53-0.542,0.875-0.726c0.347-0.181,0.738-0.272,1.176-0.272
	c0.314,0,0.591,0.047,0.829,0.144c0.239,0.09,0.445,0.225,0.614,0.397s0.296,0.38,0.383,0.623c0.086,0.237,0.128,0.506,0.128,0.799
	c0,0.144-0.002,0.286-0.008,0.43c-0.01,0.144-0.021,0.291-0.042,0.441h-4.028C179.096,30.372,179.088,30.502,179.088,30.646z
	 M182.563,29.537c0.003-0.061,0.006-0.124,0.006-0.189c0-0.43-0.128-0.772-0.376-1.026c-0.249-0.25-0.593-0.381-1.031-0.381
	c-0.259,0-0.497,0.055-0.711,0.153c-0.217,0.102-0.41,0.234-0.58,0.397c-0.17,0.169-0.31,0.358-0.424,0.572
	c-0.114,0.219-0.197,0.441-0.249,0.676h3.359C182.557,29.667,182.56,29.598,182.563,29.537z"/>
<path fill="#6D6E71" d="M185.548,25.639l-1.536,6.971h-0.614l1.523-6.971H185.548z"/>
<path fill="#6D6E71" d="M186.964,27.572l-1.107,5.038h-0.618l1.096-5.038H186.964z M187.391,25.639l-0.215,0.985h-0.63l0.219-0.985
	H187.391z"/>
<path fill="#6D6E71" d="M191.211,33.217c-0.133,0.315-0.3,0.578-0.497,0.783c-0.2,0.208-0.441,0.358-0.723,0.458
	c-0.285,0.104-0.622,0.153-1.022,0.153c-0.266,0-0.518-0.03-0.752-0.087c-0.236-0.06-0.446-0.153-0.626-0.28
	c-0.178-0.124-0.322-0.296-0.427-0.502c-0.108-0.21-0.163-0.463-0.17-0.763h0.619c0,0.217,0.041,0.397,0.124,0.538
	c0.083,0.144,0.189,0.257,0.325,0.343c0.133,0.086,0.286,0.146,0.458,0.18c0.172,0.038,0.35,0.055,0.538,0.055
	c0.265,0,0.496-0.044,0.688-0.13c0.192-0.083,0.358-0.19,0.494-0.328c0.135-0.139,0.247-0.297,0.339-0.476
	c0.089-0.178,0.163-0.359,0.225-0.541c0.058-0.181,0.106-0.363,0.149-0.541c0.039-0.178,0.078-0.341,0.119-0.484l-0.019-0.021
	c-0.175,0.3-0.423,0.532-0.749,0.693c-0.328,0.156-0.663,0.237-1.008,0.237c-0.305,0-0.577-0.053-0.816-0.159
	c-0.239-0.104-0.439-0.247-0.598-0.433c-0.163-0.185-0.281-0.402-0.364-0.649c-0.084-0.247-0.127-0.52-0.127-0.81
	c0-0.372,0.063-0.738,0.18-1.099c0.121-0.361,0.294-0.687,0.519-0.973c0.227-0.283,0.502-0.515,0.827-0.693
	c0.327-0.175,0.694-0.263,1.107-0.263c0.194,0,0.383,0.023,0.569,0.072c0.186,0.049,0.356,0.122,0.514,0.222
	c0.155,0.095,0.287,0.219,0.393,0.369c0.106,0.15,0.177,0.324,0.211,0.519h0.017l0.221-1.035h0.58l-0.979,4.51
	C191.457,32.516,191.344,32.896,191.211,33.217z M188.103,31.007c0.051,0.192,0.136,0.355,0.251,0.502
	c0.118,0.148,0.261,0.263,0.435,0.349c0.172,0.084,0.378,0.124,0.617,0.124c0.319,0,0.604-0.072,0.857-0.227
	c0.25-0.151,0.471-0.35,0.647-0.592c0.18-0.247,0.317-0.516,0.408-0.812c0.095-0.297,0.141-0.583,0.141-0.866
	c0-0.221-0.025-0.427-0.075-0.615c-0.05-0.189-0.128-0.352-0.243-0.489c-0.114-0.136-0.261-0.243-0.438-0.321
	c-0.181-0.078-0.397-0.119-0.648-0.119c-0.319,0-0.604,0.073-0.857,0.228c-0.255,0.149-0.467,0.343-0.646,0.577
	c-0.174,0.242-0.307,0.503-0.399,0.791c-0.087,0.29-0.133,0.581-0.133,0.865C188.021,30.619,188.048,30.818,188.103,31.007z"/>
<path fill="#6D6E71" d="M193.496,30.646c0,0.227,0.028,0.441,0.089,0.635c0.06,0.195,0.152,0.363,0.272,0.503
	c0.125,0.139,0.28,0.25,0.471,0.332c0.189,0.082,0.41,0.124,0.662,0.124c0.419,0,0.774-0.116,1.066-0.346
	c0.292-0.234,0.5-0.531,0.621-0.904h0.629c-0.175,0.573-0.454,1.007-0.838,1.308c-0.388,0.303-0.89,0.449-1.507,0.449
	c-0.682,0-1.204-0.189-1.559-0.564c-0.355-0.378-0.533-0.901-0.533-1.562c0-0.405,0.061-0.796,0.183-1.177
	c0.124-0.381,0.305-0.724,0.544-1.02c0.239-0.3,0.533-0.542,0.877-0.726c0.345-0.181,0.736-0.272,1.176-0.272
	c0.311,0,0.589,0.047,0.827,0.144c0.239,0.09,0.446,0.225,0.615,0.397c0.17,0.172,0.297,0.38,0.385,0.623
	c0.086,0.237,0.126,0.506,0.126,0.799c0,0.144-0.003,0.286-0.006,0.43c-0.009,0.144-0.022,0.291-0.042,0.441h-4.028
	C193.504,30.372,193.496,30.502,193.496,30.646z M196.97,29.537c0.003-0.061,0.005-0.124,0.005-0.189
	c0-0.43-0.127-0.772-0.374-1.026c-0.249-0.25-0.594-0.381-1.032-0.381c-0.26,0-0.498,0.055-0.714,0.153
	c-0.214,0.102-0.407,0.234-0.577,0.397c-0.17,0.169-0.31,0.358-0.424,0.572c-0.114,0.219-0.197,0.441-0.25,0.676h3.36
	C196.964,29.667,196.966,29.598,196.97,29.537z"/>
<path fill="#6D6E71" d="M199.479,27.572l-0.18,0.917h0.018c0.194-0.297,0.452-0.551,0.772-0.757
	c0.322-0.204,0.677-0.307,1.063-0.307c0.225,0,0.433,0.028,0.624,0.078c0.189,0.05,0.352,0.131,0.493,0.239
	c0.139,0.108,0.247,0.249,0.324,0.421c0.078,0.172,0.116,0.378,0.116,0.619c0,0.136-0.028,0.334-0.08,0.594l-0.708,3.233h-0.629
	l0.718-3.252c0.021-0.075,0.038-0.161,0.05-0.25c0.014-0.088,0.02-0.174,0.02-0.258c0-0.168-0.029-0.311-0.089-0.423
	c-0.061-0.113-0.138-0.207-0.241-0.278c-0.099-0.071-0.214-0.122-0.344-0.157c-0.128-0.034-0.264-0.05-0.402-0.05
	c-0.228,0-0.447,0.05-0.658,0.147c-0.214,0.097-0.411,0.238-0.589,0.416c-0.18,0.181-0.335,0.397-0.468,0.653
	s-0.234,0.546-0.3,0.865l-0.567,2.588h-0.618l1.096-5.038H199.479z"/>
<path fill="#6D6E71" d="M204.612,27.572l0.327-1.523h0.628l-0.329,1.523h1.027l-0.099,0.516h-1.049l-0.707,3.232
	c-0.028,0.117-0.045,0.208-0.055,0.269c-0.011,0.061-0.014,0.131-0.014,0.211c0,0.091,0.023,0.17,0.073,0.247
	c0.05,0.069,0.134,0.106,0.253,0.106c0.247,0,0.494-0.022,0.738-0.06l-0.108,0.525c-0.106,0.013-0.214,0.023-0.319,0.028
	c-0.108,0.006-0.214,0.011-0.32,0.011c-0.118,0-0.235-0.008-0.349-0.023c-0.113-0.019-0.214-0.05-0.304-0.103
	c-0.091-0.053-0.159-0.125-0.214-0.219c-0.055-0.094-0.08-0.216-0.08-0.369c0-0.05,0.003-0.121,0.014-0.213
	c0.011-0.09,0.028-0.192,0.055-0.3l0.708-3.343h-0.929l0.12-0.516H204.612z"/>
<path fill="#6D6E71" d="M206.975,30.646c0,0.227,0.028,0.441,0.087,0.635c0.061,0.195,0.153,0.363,0.275,0.503
	c0.122,0.139,0.28,0.25,0.469,0.332c0.189,0.082,0.41,0.124,0.665,0.124c0.417,0,0.772-0.116,1.063-0.346
	c0.294-0.234,0.5-0.531,0.621-0.904h0.627c-0.172,0.573-0.452,1.007-0.836,1.308c-0.387,0.303-0.887,0.449-1.508,0.449
	c-0.683,0-1.204-0.189-1.561-0.564c-0.354-0.378-0.531-0.901-0.531-1.562c0-0.405,0.059-0.796,0.185-1.177
	c0.122-0.381,0.303-0.724,0.544-1.02c0.238-0.3,0.53-0.542,0.877-0.726c0.344-0.181,0.737-0.272,1.176-0.272
	c0.312,0,0.586,0.047,0.829,0.144c0.238,0.09,0.441,0.225,0.613,0.397c0.166,0.172,0.297,0.38,0.382,0.623
	c0.087,0.237,0.131,0.506,0.131,0.799c0,0.144-0.003,0.286-0.011,0.43c-0.008,0.144-0.02,0.291-0.041,0.441h-4.028
	C206.982,30.372,206.975,30.502,206.975,30.646z M210.448,29.537c0.004-0.061,0.004-0.124,0.004-0.189
	c0-0.43-0.124-0.772-0.372-1.026c-0.252-0.25-0.594-0.381-1.032-0.381c-0.258,0-0.497,0.055-0.713,0.153
	c-0.216,0.102-0.41,0.234-0.579,0.397c-0.169,0.169-0.311,0.358-0.422,0.572c-0.114,0.219-0.197,0.441-0.249,0.676h3.357
	C210.443,29.667,210.446,29.598,210.448,29.537z"/>
<path fill="#6D6E71" d="M18.335,34.893c-8.847,0-16.048-7.198-16.048-16.05C2.288,9.998,9.488,2.8,18.335,2.8
	c8.847,0,16.048,7.198,16.048,16.043C34.383,27.695,27.182,34.893,18.335,34.893z M18.335,4.583c-7.865,0-14.264,6.397-14.264,14.26
	c0,7.867,6.398,14.267,14.264,14.267s14.265-6.4,14.265-14.267C32.601,10.98,26.201,4.583,18.335,4.583z"/>
<path fill="#6D6E71" d="M8.208,16.415C3.682,16.415,0,12.734,0,8.208h1.783c0,3.543,2.881,6.423,6.425,6.423
	c3.543,0,6.428-2.88,6.428-6.423S11.75,1.781,8.208,1.781V0c4.527,0,8.209,3.681,8.209,8.208S12.734,16.415,8.208,16.415z"/>
<path fill="#6D6E71" d="M8.208,37.693v-1.781c3.543,0,6.428-2.885,6.428-6.428c0-3.541-2.885-6.425-6.428-6.425
	c-3.543,0-6.424,2.882-6.425,6.425H0c0-4.524,3.682-8.208,8.208-8.208c4.527,0,8.209,3.684,8.209,8.208
	C16.417,34.011,12.734,37.693,8.208,37.693z"/>
<path fill="#6D6E71" d="M28.463,16.415c-4.527,0-8.21-3.681-8.21-8.208S23.936,0,28.463,0v1.781H28.46
	c-1.715,0-3.329,0.669-4.541,1.884c-1.215,1.212-1.884,2.829-1.884,4.542c0,3.543,2.885,6.423,6.428,6.423
	c3.543,0,6.427-2.88,6.427-6.423h1.781C36.67,12.734,32.988,16.415,28.463,16.415z"/>
<path fill="#6D6E71" d="M28.463,37.693c-4.527,0-8.21-3.683-8.21-8.209c0-4.524,3.684-8.208,8.21-8.208
	c4.525,0,8.208,3.684,8.208,8.208H34.89c-0.001-3.543-2.883-6.425-6.427-6.425c-3.543,0-6.428,2.885-6.428,6.425
	c0,3.543,2.885,6.428,6.428,6.428V37.693z"/>
<path fill="#6D6E71" d="M212.425,11.771c-1.792,0-3.249-1.456-3.249-3.248c0-1.789,1.457-3.25,3.249-3.25s3.251,1.46,3.251,3.25
	C215.676,10.315,214.217,11.771,212.425,11.771z M212.425,5.72c-1.545,0-2.802,1.259-2.802,2.804s1.257,2.802,2.802,2.802
	c1.547,0,2.804-1.257,2.804-2.802S213.972,5.72,212.425,5.72z"/>
<path fill="#6D6E71" d="M211.786,8.805v1.37h-0.391V6.871h0.926c0.413,0,0.718,0.077,0.916,0.233
	c0.197,0.155,0.299,0.389,0.299,0.701c0,0.438-0.229,0.735-0.682,0.888l0.918,1.482h-0.465l-0.817-1.37H211.786z M211.786,8.47h0.54
	c0.276,0,0.479-0.053,0.608-0.163c0.13-0.106,0.192-0.264,0.192-0.48c0-0.219-0.066-0.38-0.197-0.477
	c-0.13-0.095-0.341-0.144-0.63-0.144h-0.513V8.47z"/>
</svg>
