<?xml version="1.0" encoding="utf-8"?>
<!-- Generator: Adobe Illustrator 15.0.0, SVG Export Plug-In  -->
<!DOCTYPE svg PUBLIC "-//W3C//DTD SVG 1.1//EN" "http://www.w3.org/Graphics/SVG/1.1/DTD/svg11.dtd" [
	<!ENTITY ns_flows "http://ns.adobe.com/Flows/1.0/">
]>
<svg version="1.1"
	 xmlns="http://www.w3.org/2000/svg" xmlns:xlink="http://www.w3.org/1999/xlink" xmlns:a="http://ns.adobe.com/AdobeSVGViewerExtensions/3.0/"
	 x="0px" y="0px" width="188px" height="188px" viewBox="-12.08 -37.71 188 188"
	 overflow="visible" enable-background="new -12.08 -37.71 188 188" xml:space="preserve">
<defs>
</defs>
<rect y="103.063" fill="#C4C4C6" width="7.149" height="3.092"/>
<path fill="#181818" d="M19.947,15.924c-2.739,0-4.957,2.219-4.957,4.957v82.183h119.445l-38.857-87.14H19.947z"/>
<path fill="#393939" d="M146.314,20.881c0-2.738-2.217-4.957-4.953-4.957H95.594l38.854,87.14h11.867V20.881z"/>
<rect x="19.108" y="20.541" fill="#FFFFFF" width="123.075" height="76.716"/>
<circle fill="#141414" cx="80.787" cy="18.367" r="0.756"/>
<path fill="#38C4E7" d="M81.281,18.367c0,0.271-0.223,0.492-0.492,0.492c-0.273,0-0.494-0.221-0.494-0.492s0.221-0.492,0.494-0.492
	C81.059,17.875,81.281,18.096,81.281,18.367z"/>
<circle fill="#34B5D4" cx="80.789" cy="18.367" r="0.338"/>
<path fill="#F1F2F2" d="M80.877,18.281c0,0.047-0.039,0.086-0.088,0.086s-0.09-0.039-0.09-0.086c0-0.053,0.041-0.09,0.09-0.09
	S80.877,18.229,80.877,18.281z"/>
<rect x="7.149" y="103.063" fill="#D2D3D5" width="147.667" height="3.092"/>
<rect x="154.816" y="103.063" fill="#EAEDF1" width="7.148" height="3.092"/>
<path fill="#B3B3B6" d="M80.982,106.155H0c0,0,1.643,2.105,12.06,1.893h68.923h68.924c10.416,0.213,12.059-1.893,12.059-1.893
	H80.982z"/>
<path fill="#95959B" d="M106.525,107.638c0,0.115-0.357,0.203-0.799,0.203c-0.443,0-0.801-0.088-0.801-0.203
	c0-0.113,0.357-0.203,0.801-0.203C106.168,107.435,106.525,107.524,106.525,107.638z"/>
<path fill="#95959B" d="M56.555,107.638c0,0.115-0.359,0.203-0.801,0.203c-0.439,0-0.799-0.088-0.799-0.203
	c0-0.113,0.359-0.203,0.799-0.203C56.195,107.435,56.555,107.524,56.555,107.638z"/>
<path fill="#B3B3B6" d="M69.447,103.151v0.002c0,0.975,0.787,1.766,1.764,1.766h9.578v-1.768H69.447z"/>
<path fill="#C4C4C6" d="M80.789,103.151v1.768h9.576c0.975,0,1.764-0.791,1.764-1.766v-0.002H80.789z"/>
<path fill="#171516" d="M153.543,78.575c0,1.129,0.912,2.043,2.041,2.043l0,0c1.129,0,2.041-0.914,2.041-2.043V59.903
	c0-1.127-0.912-2.04-2.041-2.04l0,0c-1.129,0-2.041,0.913-2.041,2.04V78.575z"/>
<path fill="#181818" d="M164.205,109.493c0,1.908-1.545,3.451-3.451,3.451H121.32c-1.908,0-3.453-1.543-3.453-3.451V81.542
	c0-1.904,1.545-3.453,3.453-3.453h39.434c1.906,0,3.451,1.549,3.451,3.453V109.493z"/>
<path fill="#2B2B2B" d="M164.205,109.493V81.542c0-1.904-1.545-3.453-3.451-3.453h-34.191l36.879,33.566
	C163.92,111.063,164.205,110.31,164.205,109.493z"/>
<circle fill="#0971B8" cx="155.313" cy="105.14" r="4.868"/>
<rect x="121.742" y="81.29" fill="#FFFFFF" width="38.512" height="15.816"/>
<rect x="125.299" y="100.319" fill="#0971B8" width="3.203" height="9.754"/>
<rect x="122.025" y="103.597" fill="#0971B8" width="9.752" height="3.201"/>
<polygon fill="#FFFFFF" points="126.9,101.944 125.914,101.944 126.404,101.448 126.9,100.952 127.395,101.448 127.889,101.944 "/>
<polygon fill="#FFFFFF" points="126.9,108.567 125.914,108.567 126.404,109.062 126.9,109.558 127.395,109.062 127.889,108.567 "/>
<polygon fill="#FFFFFF" points="123.588,105.257 123.588,106.241 123.092,105.747 122.596,105.257 123.092,104.763 123.588,104.271 
	"/>
<polygon fill="#FFFFFF" points="130.211,105.257 130.211,106.241 130.707,105.747 131.203,105.257 130.707,104.763 130.211,104.271 
	"/>
<path fill="#FFFFFF" d="M157.043,105.14c0,0.955-0.775,1.729-1.729,1.729c-0.955,0-1.727-0.773-1.727-1.729
	c0-0.951,0.771-1.727,1.727-1.727C156.268,103.413,157.043,104.188,157.043,105.14z"/>
<polygon fill="#F1F2F2" points="121.742,81.29 121.742,97.106 147.455,97.106 130.078,81.29 "/>
<path fill="#0B71B4" d="M81.129,2.191c3.139,0,5.984,1.273,8.049,3.336l1.549-1.547C88.266,1.521,84.871,0,81.129,0
	s-7.137,1.521-9.596,3.98l1.549,1.547C75.145,3.465,77.99,2.191,81.129,2.191z"/>
<path fill="#0B71B4" d="M81.129,6.996c1.816,0,3.461,0.736,4.65,1.932l1.549-1.553c-1.588-1.584-3.779-2.568-6.199-2.568
	s-4.611,0.984-6.197,2.568l1.547,1.553C77.67,7.732,79.316,6.996,81.129,6.996z"/>
<path fill="#0B71B4" d="M73.084,5.523c-0.426,0.426-1.119,0.424-1.549-0.002c-0.426-0.428-0.428-1.121,0-1.547
	c0.426-0.43,1.119-0.428,1.547,0C73.512,4.402,73.512,5.096,73.084,5.523z"/>
<path fill="#0B71B4" d="M90.719,5.523c-0.428,0.426-1.121,0.424-1.549-0.002c-0.428-0.428-0.43-1.121-0.002-1.547
	c0.428-0.43,1.121-0.428,1.549,0S91.145,5.096,90.719,5.523z"/>
<circle fill="#0B71B4" cx="86.537" cy="8.131" r="1.097"/>
<path fill="#0B71B4" d="M76.49,8.906c-0.426,0.428-1.121,0.426-1.545-0.002c-0.43-0.428-0.43-1.119-0.004-1.549
	c0.428-0.426,1.119-0.426,1.547,0.002C76.916,7.787,76.916,8.48,76.49,8.906z"/>
<path fill="#0B71B4" d="M155.588,51.713c2.076,0,3.959,0.844,5.324,2.209l1.027-1.025c-1.627-1.627-3.875-2.635-6.352-2.635
	c-2.479,0-4.725,1.008-6.352,2.635l1.025,1.025C151.625,52.557,153.51,51.713,155.588,51.713z"/>
<path fill="#0B71B4" d="M155.588,54.893c1.199,0,2.289,0.49,3.078,1.279l1.025-1.027c-1.053-1.049-2.504-1.699-4.104-1.699
	c-1.604,0-3.051,0.65-4.104,1.699l1.025,1.027C153.295,55.383,154.387,54.893,155.588,54.893z"/>
<circle fill="#0B71B4" cx="149.75" cy="53.404" r="0.725"/>
<circle fill="#0B71B4" cx="161.42" cy="53.404" r="0.724"/>
<circle fill="#0B71B4" cx="159.165" cy="55.645" r="0.726"/>
<circle fill="#0B71B4" cx="152.005" cy="55.645" r="0.726"/>
<path fill="#333333" d="M81.154,96.854c-0.172,0-0.312-0.113-0.312-0.254V39.877c0-0.143,0.141-0.256,0.312-0.256
	c0.176,0,0.314,0.113,0.314,0.256v56.724C81.469,96.741,81.33,96.854,81.154,96.854z"/>
<path fill="#333333" d="M68.498,81.183c-4.137,0-9.736-3.529-12.943-20.352l-0.086-0.439l0.438,0.088
	c11.402,2.287,18.062,5.861,19.795,10.611c1.285,3.527-0.574,6.58-1.418,7.713l0.043,0.039l-0.572,0.594l-0.051-0.055
	C72.904,79.958,70.93,81.183,68.498,81.183z M56.227,61.157c3.143,16.045,8.396,19.428,12.271,19.428
	c2.506,0,4.498-1.408,5.047-1.842l0.102-0.098c0.672-0.842,2.764-3.857,1.49-7.35C73.527,66.878,66.992,63.378,56.227,61.157z"/>
<path fill="#333333" d="M81.119,86.403c-0.076,0-0.154-0.029-0.213-0.086L55.939,61.351c-0.115-0.115-0.115-0.307,0-0.424
	c0.115-0.115,0.309-0.115,0.426,0l24.967,24.965c0.117,0.119,0.117,0.309,0,0.426C81.271,86.374,81.195,86.403,81.119,86.403z"/>
<path fill="#333333" d="M69.098,74.382h-6.51c-0.164,0-0.301-0.131-0.301-0.299c0-0.164,0.137-0.297,0.301-0.297h6.51
	c0.164,0,0.299,0.133,0.299,0.297C69.396,74.251,69.262,74.382,69.098,74.382z"/>
<path fill="#333333" d="M69.098,74.382c-0.166,0-0.303-0.131-0.303-0.299v-6.508c0-0.164,0.137-0.301,0.303-0.301
	s0.299,0.137,0.299,0.301v6.508C69.396,74.251,69.264,74.382,69.098,74.382z"/>
<path fill="#333333" d="M65.436,70.724h-4.396c-0.166,0-0.301-0.135-0.301-0.299c0-0.168,0.135-0.303,0.301-0.303h4.396
	c0.166,0,0.299,0.135,0.299,0.303C65.734,70.589,65.602,70.724,65.436,70.724z"/>
<path fill="#333333" d="M65.436,70.374c-0.166,0-0.299-0.131-0.299-0.299v-3.703c0-0.168,0.133-0.301,0.299-0.301
	s0.299,0.133,0.299,0.301v3.703C65.734,70.243,65.602,70.374,65.436,70.374z"/>
<path fill="#333333" d="M72.086,56.285c-2.99,0-7.039-2.537-9.348-14.635l-0.08-0.438l0.436,0.088
	c8.191,1.643,12.979,4.219,14.229,7.648c0.912,2.498-0.352,4.67-0.982,5.535l0.039,0.037l-0.523,0.551l-0.051-0.055
	C75.193,55.455,73.799,56.285,72.086,56.285z M63.416,41.979c2.238,11.314,5.939,13.709,8.67,13.709
	c1.768,0,3.172-0.996,3.561-1.301l0.059-0.059c0.338-0.42,1.971-2.652,1.051-5.174C75.623,46.039,71.012,43.561,63.416,41.979z"/>
<path fill="#333333" d="M81.119,60.024c-0.076,0-0.154-0.031-0.213-0.088L63.039,42.068c-0.117-0.117-0.117-0.307,0-0.424
	s0.309-0.117,0.426,0l17.867,17.864c0.117,0.119,0.117,0.309,0,0.428C81.271,59.993,81.195,60.024,81.119,60.024z"/>
<path fill="#333333" d="M72.514,51.42h-4.656c-0.166,0-0.301-0.137-0.301-0.301c0-0.166,0.135-0.301,0.301-0.301h4.656
	c0.168,0,0.301,0.135,0.301,0.301C72.814,51.283,72.682,51.42,72.514,51.42z"/>
<path fill="#333333" d="M72.518,51.42c-0.168,0-0.301-0.137-0.301-0.301v-4.656c0-0.166,0.133-0.303,0.301-0.303
	c0.164,0,0.299,0.137,0.299,0.303v4.656C72.816,51.283,72.682,51.42,72.518,51.42z"/>
<path fill="#333333" d="M69.895,48.799h-3.146c-0.164,0-0.301-0.133-0.301-0.299c0-0.168,0.137-0.303,0.301-0.303h3.146
	c0.166,0,0.301,0.135,0.301,0.303C70.195,48.666,70.061,48.799,69.895,48.799z"/>
<path fill="#333333" d="M69.895,48.553c-0.166,0-0.301-0.135-0.301-0.301V45.6c0-0.164,0.135-0.297,0.301-0.297
	s0.301,0.133,0.301,0.297v2.652C70.195,48.418,70.061,48.553,69.895,48.553z"/>
<path fill="#333333" d="M93.979,87.147c-2.434,0-4.408-1.227-5.205-1.805l-0.039,0.041l-0.602-0.566l0.059-0.053
	c-0.844-1.131-2.703-4.184-1.418-7.711c1.732-4.754,8.391-8.324,19.793-10.611l0.439-0.088l-0.086,0.438
	C103.713,83.616,98.113,87.147,93.979,87.147z M88.883,84.675l0.045,0.033c0.549,0.432,2.545,1.84,5.051,1.84
	c3.871,0,9.125-3.385,12.266-19.428c-10.762,2.219-17.295,5.721-18.908,10.139c-1.271,3.492,0.82,6.508,1.49,7.352L88.883,84.675z"
	/>
<path fill="#333333" d="M81.357,92.366c-0.078,0-0.156-0.027-0.215-0.086c-0.115-0.121-0.115-0.309,0-0.428l24.965-24.963
	c0.119-0.119,0.309-0.119,0.428,0c0.115,0.117,0.115,0.307,0,0.424L81.568,92.28C81.512,92.339,81.432,92.366,81.357,92.366z"/>
<path fill="#333333" d="M99.885,80.347h-6.508c-0.164,0-0.299-0.135-0.299-0.299c0-0.168,0.135-0.303,0.299-0.303h6.508
	c0.168,0,0.303,0.135,0.303,0.303C100.188,80.212,100.053,80.347,99.885,80.347z"/>
<path fill="#333333" d="M93.377,80.347c-0.166,0-0.299-0.135-0.299-0.299v-6.51c0-0.166,0.133-0.303,0.299-0.303
	s0.301,0.137,0.301,0.303v6.51C93.678,80.212,93.543,80.347,93.377,80.347z"/>
<path fill="#333333" d="M101.436,76.685h-4.396c-0.166,0-0.299-0.133-0.299-0.301c0-0.166,0.133-0.301,0.299-0.301h4.396
	c0.166,0,0.299,0.135,0.299,0.301C101.734,76.552,101.602,76.685,101.436,76.685z"/>
<path fill="#333333" d="M97.039,76.337c-0.166,0-0.299-0.133-0.299-0.301v-3.701c0-0.168,0.133-0.301,0.299-0.301
	c0.164,0,0.301,0.133,0.301,0.301v3.701C97.34,76.204,97.203,76.337,97.039,76.337z"/>
<path fill="#333333" d="M90.389,62.249c-1.711,0-3.107-0.832-3.719-1.266l-0.043,0.041l-0.543-0.529l0.049-0.047
	c-0.629-0.865-1.893-3.036-0.98-5.538c1.25-3.428,6.037-6.004,14.227-7.648l0.438-0.088l-0.082,0.439
	C97.428,59.71,93.381,62.249,90.389,62.249z M86.801,60.333l0.023,0.018c0.391,0.305,1.795,1.299,3.564,1.299
	c2.729,0,6.43-2.395,8.67-13.71c-7.598,1.586-12.207,4.062-13.342,7.178c-0.92,2.523,0.715,4.757,1.053,5.177L86.801,60.333z"/>
<path fill="#333333" d="M81.357,65.985c-0.078,0-0.156-0.029-0.215-0.088c-0.115-0.117-0.115-0.309,0-0.424l17.865-17.868
	c0.119-0.115,0.309-0.115,0.426,0c0.119,0.117,0.119,0.309,0,0.428L81.568,65.897C81.512,65.956,81.432,65.985,81.357,65.985z"/>
<path fill="#333333" d="M94.617,57.383h-4.658c-0.166,0-0.301-0.135-0.301-0.301s0.135-0.301,0.301-0.301h4.658
	c0.166,0,0.301,0.135,0.301,0.301S94.783,57.383,94.617,57.383z"/>
<path fill="#333333" d="M89.957,57.383c-0.164,0-0.301-0.135-0.301-0.301v-4.658c0-0.166,0.137-0.301,0.301-0.301
	c0.168,0,0.303,0.135,0.303,0.301v4.658C90.26,57.248,90.125,57.383,89.957,57.383z"/>
<path fill="#333333" d="M95.727,54.762H92.58c-0.166,0-0.301-0.135-0.301-0.301s0.135-0.301,0.301-0.301h3.146
	c0.162,0,0.299,0.135,0.299,0.301S95.889,54.762,95.727,54.762z"/>
<path fill="#333333" d="M92.58,54.516c-0.166,0-0.301-0.137-0.301-0.301v-2.652c0-0.166,0.135-0.299,0.301-0.299
	s0.299,0.133,0.299,0.299v2.652C92.879,54.379,92.746,54.516,92.58,54.516z"/>
<line fill="none" stroke="#0971B8" stroke-width="0.25" stroke-miterlimit="10" x1="101.734" y1="46.16" x2="104.236" y2="43.66"/>
<line fill="none" stroke="#0971B8" stroke-width="0.25" stroke-miterlimit="10" x1="104.236" y1="43.66" x2="107.775" y2="43.66"/>
<line fill="none" stroke="#0971B8" stroke-width="0.25" stroke-miterlimit="10" x1="51.643" y1="39.668" x2="55.264" y2="39.668"/>
<g>
	<text transform="matrix(1 0 0 1 43.4331 69.0244)" fill="#0971B8" font-family="'OpenSans-Bold'" font-size="7.9661">z</text>
</g>
<g>
	<text transform="matrix(1 0 0 1 110.2759 45.3008)" fill="#0971B8" font-family="'OpenSans-Bold'" font-size="7.9661">y</text>
</g>
<g>
	<text transform="matrix(1 0 0 1 93.0786 34.7559)" fill="#0971B8" font-family="'OpenSans-Bold'" font-size="7.9661">x</text>
</g>
<line fill="none" stroke="#0971B8" stroke-width="0.25" stroke-miterlimit="10" x1="81.721" y1="36.01" x2="84.223" y2="33.508"/>
<line fill="none" stroke="#0971B8" stroke-width="0.25" stroke-miterlimit="10" x1="84.223" y1="33.506" x2="87.76" y2="33.508"/>
<line fill="none" stroke="#0971B8" stroke-width="0.25" stroke-miterlimit="10" x1="51.725" y1="39.555" x2="51.725" y2="97.106"/>
</svg>
