<?xml version="1.0" encoding="utf-8"?>
<!-- Generator: Adobe Illustrator 15.0.0, SVG Export Plug-In  -->
<!DOCTYPE svg PUBLIC "-//W3C//DTD SVG 1.1//EN" "http://www.w3.org/Graphics/SVG/1.1/DTD/svg11.dtd" [
	<!ENTITY ns_flows "http://ns.adobe.com/Flows/1.0/">
]>
<svg version="1.1"
	 xmlns="http://www.w3.org/2000/svg" xmlns:xlink="http://www.w3.org/1999/xlink" xmlns:a="http://ns.adobe.com/AdobeSVGViewerExtensions/3.0/"
	 x="0px" y="0px" width="293px" height="227px" viewBox="-64.56 -80.061 293 227"
	 overflow="visible" enable-background="new -64.56 -80.061 293 227" xml:space="preserve">
<defs>
</defs>
<path fill="#6D6E71" d="M28.523,0.713h-5.123c-0.142,0-0.271,0.084-0.328,0.212L14.641,20.25L7.269,0.94
	C7.215,0.803,7.083,0.713,6.935,0.713h-6.22c-0.122,0-0.233,0.059-0.299,0.162C0.35,0.975,0.34,1.104,0.388,1.213l11.343,25.613
	c0.057,0.13,0.186,0.214,0.326,0.214h4.758c0.139,0,0.266-0.083,0.324-0.208L28.847,1.217c0.052-0.11,0.042-0.238-0.022-0.342
	C28.758,0.771,28.645,0.713,28.523,0.713z"/>
<path fill="#6D6E71" d="M58.125,26.545L47.514,0.933c-0.056-0.134-0.185-0.22-0.33-0.22h-6.218c-0.146,0-0.274,0.086-0.33,0.217
	L29.89,26.545c-0.045,0.109-0.035,0.237,0.033,0.334c0.065,0.101,0.178,0.161,0.297,0.161h6.354c0.143,0,0.272-0.086,0.327-0.217
	l2.104-4.907h9.789l2.464,4.926c0.06,0.119,0.184,0.198,0.319,0.198h6.221c0.119,0,0.23-0.061,0.296-0.161
	C58.16,26.782,58.172,26.657,58.125,26.545z M47.35,16.34h-6.734l3.392-7.844L47.35,16.34z"/>
<path fill="#6D6E71" d="M82.742,22.007h-9.065c-0.119-0.003-2.907-0.096-2.907-2.552V0.713c0-0.199-0.16-0.36-0.357-0.36h-5.818
	c-0.199,0-0.357,0.161-0.357,0.36l0.002,20.006c0.007,0.068,0.806,6.676,7.858,6.676h10.645c0.196,0,0.356-0.159,0.356-0.354v-4.676
	C83.098,22.166,82.938,22.007,82.742,22.007z"/>
<path fill="#6D6E71" d="M119.271,0.353h-7.848c-0.153,0-0.29,0.101-0.338,0.244l-6.557,19.385L98.085,0.6
	c-0.05-0.146-0.186-0.247-0.34-0.247h-8.204c-0.197,0-0.357,0.161-0.357,0.36V27.04c0,0.195,0.16,0.354,0.357,0.354h5.589
	c0.197,0,0.357-0.159,0.357-0.354V10.514l5.728,16.643c0.05,0.142,0.184,0.238,0.337,0.238h5.708c0.148,0,0.282-0.09,0.332-0.23
	l6.207-16.791v17.021c0,0.197,0.161,0.356,0.357,0.356h5.114c0.198,0,0.356-0.159,0.356-0.356V0.713
	C119.627,0.514,119.469,0.353,119.271,0.353z"/>
<path fill="#6D6E71" d="M134.375,0h-5.589c-0.199,0-0.359,0.159-0.359,0.353v27.398c0,0.2,0.16,0.358,0.359,0.358h5.589
	c0.197,0,0.355-0.158,0.355-0.358V0.353C134.731,0.159,134.572,0,134.375,0z"/>
<path fill="#6D6E71" d="M153.035,6.001l10.703,0.237c0.102,0.013,0.188-0.034,0.257-0.1c0.069-0.069,0.109-0.161,0.109-0.257V0.713
	c0-0.199-0.161-0.36-0.357-0.36l-11.688,0.004c-0.1,0.008-10.076,1.045-10.076,11.948v5.469c0,0.026,0.004,0.055,0.009,0.078
	c0.022,0.1,2.303,9.899,11.051,9.899h10.704c0.196,0,0.357-0.159,0.357-0.356v-4.15c0-0.197-0.161-0.356-0.357-0.356h-10.664
	c-0.42-0.103-4.096-1.138-4.254-6.423h14.918c0.196,0,0.357-0.159,0.357-0.356v-3.804c0-0.198-0.161-0.359-0.357-0.359H148.84
	C148.933,10.606,149.509,6.001,153.035,6.001z"/>
<rect x="0.357" y="37.817" fill="#6D6E71" width="162.591" height="1.401"/>
<path fill="#6D6E71" d="M15.562,62.879c-0.564-2.104-1.524-2.952-2.422-3.238c0.872-0.802,2.344-2.459,2.281-4.484
	c-0.054-1.717-1.19-3.282-3.378-4.662c-0.056-0.036-0.124-0.057-0.191-0.057H0.357C0.161,50.438,0,50.599,0,50.794v15.277
	c0,0.199,0.161,0.356,0.357,0.356h3.479c0.193,0,0.352-0.154,0.356-0.35L4.304,60.7c0.741-0.006,2.584-0.021,4.676-0.021
	c0.023,0,0.055-0.001,0.079-0.008c0.001,0,0.074-0.016,0.191-0.016c0.562,0,2.396,0.39,2.396,5.415c0,0.199,0.16,0.356,0.357,0.356
	h3.63c0.197,0,0.355-0.157,0.355-0.356C15.989,66.006,15.984,64.456,15.562,62.879z M4.31,53.693h5.729
	c0.837,0.587,1.257,1.2,1.251,1.825c-0.008,0.94-0.963,1.706-1.253,1.916H4.31V53.693z"/>
<path fill="#6D6E71" d="M111.17,62.887c-0.566-2.105-1.526-2.952-2.425-3.236c0.875-0.805,2.347-2.463,2.283-4.488
	c-0.054-1.713-1.191-3.282-3.379-4.66c-0.057-0.037-0.123-0.057-0.19-0.057H95.965c-0.198,0-0.357,0.16-0.357,0.356v15.276
	c0,0.198,0.159,0.357,0.357,0.357h3.477c0.195,0,0.354-0.153,0.357-0.35l0.112-5.379c0.739-0.007,2.583-0.02,4.673-0.02
	c0.026,0,0.056-0.003,0.082-0.008c0,0,0.072-0.017,0.191-0.017c0.562,0,2.394,0.391,2.394,5.415c0,0.198,0.161,0.357,0.359,0.357
	h3.629c0.197,0,0.357-0.159,0.357-0.357C111.597,66.013,111.592,64.464,111.17,62.887z M99.918,53.699h5.728
	c0.837,0.588,1.259,1.203,1.251,1.825c-0.008,0.941-0.963,1.71-1.251,1.919h-5.728V53.699z"/>
<path fill="#6D6E71" d="M25.764,53.446l6.381,0.141c0.061,0.009,0.112-0.022,0.154-0.06c0.042-0.041,0.063-0.097,0.063-0.153v-3.081
	c0-0.119-0.095-0.213-0.213-0.213h-6.965c-0.06,0.003-6.006,0.625-6.006,7.123v3.26c0,0.016,0.001,0.033,0.005,0.044
	c0.012,0.062,1.373,5.904,6.588,5.904h6.379c0.119,0,0.213-0.094,0.213-0.21v-2.476c0-0.12-0.095-0.215-0.213-0.215h-6.355
	c-0.251-0.06-2.443-0.676-2.538-3.826h8.893c0.119,0,0.213-0.097,0.213-0.216v-2.266c0-0.119-0.095-0.213-0.213-0.213h-8.884
	C23.32,56.19,23.663,53.446,25.764,53.446z"/>
<path fill="#6D6E71" d="M138.009,53.764l6.228,0.137c0.061,0.012,0.11-0.019,0.15-0.058c0.04-0.037,0.062-0.092,0.062-0.148v-3.008
	c0-0.114-0.093-0.206-0.206-0.206h-6.801c-0.06,0.006-5.863,0.605-5.863,6.951v3.183c0,0.015,0.002,0.031,0.005,0.042
	c0.012,0.06,1.341,5.761,6.431,5.761h6.228c0.113,0,0.206-0.089,0.206-0.205v-2.417c0-0.112-0.093-0.205-0.206-0.205h-6.205
	c-0.246-0.061-2.383-0.661-2.477-3.736h8.682c0.113,0,0.206-0.094,0.206-0.208v-2.214c0-0.116-0.093-0.208-0.206-0.208h-8.674
	C135.622,56.443,135.958,53.764,138.009,53.764z"/>
<path fill="#6D6E71" d="M50.35,57.828c-0.794-0.81-1.881-1.221-3.226-1.221l-5.983,0.002c-0.039-0.005-0.971-0.159-0.975-1.4
	c0-0.008-0.1-0.688,0.222-1.069c0.152-0.176,0.383-0.263,0.704-0.263h8.93c0.19,0,0.342-0.156,0.342-0.34v-2.762
	c0-0.188-0.152-0.342-0.342-0.342h-9.284c-0.046,0.004-4.619,0.399-4.619,4.541c-0.001,0.096-0.053,2.375,1.386,3.86
	c0.783,0.803,1.848,1.214,3.165,1.214l5.798-0.005c0.045,0.01,1.107,0.166,1.114,1.551c0.035,0.175,0.074,0.742-0.174,1.044
	c-0.129,0.156-0.329,0.234-0.613,0.234h-9.259c-0.188,0-0.342,0.152-0.342,0.34v2.881c0,0.188,0.153,0.345,0.342,0.345l9.323-0.003
	c0,0,0.093,0.008,0.254,0.008c0.769,0,4.606-0.237,4.606-4.952C51.723,61.4,51.75,59.258,50.35,57.828z"/>
<path fill="#6D6E71" d="M162.152,57.778c-0.8-0.816-1.894-1.229-3.249-1.229l-6.022,0.002c-0.04-0.005-0.978-0.161-0.983-1.411
	c0-0.008-0.1-0.692,0.224-1.075c0.154-0.179,0.383-0.267,0.707-0.267h8.993c0.191,0,0.345-0.154,0.345-0.347v-2.775
	c0-0.188-0.153-0.347-0.345-0.347h-9.349c-0.046,0.01-4.65,0.403-4.65,4.572c-0.001,0.099-0.053,2.395,1.397,3.887
	c0.788,0.812,1.86,1.224,3.186,1.224l5.837-0.006c0.047,0.009,1.114,0.17,1.121,1.565c0.035,0.177,0.077,0.744-0.173,1.049
	c-0.131,0.154-0.333,0.236-0.617,0.236h-9.322c-0.189,0-0.345,0.152-0.345,0.342v2.902c0,0.19,0.156,0.347,0.345,0.347l9.385-0.005
	c0,0,0.095,0.011,0.255,0.011c0.776,0,4.639-0.243,4.639-4.989C163.535,61.376,163.562,59.216,162.152,57.778z"/>
<path fill="#F1F2F2" d="M76.284,66.394l0.016-0.003c-0.004-0.101-0.016-0.205-0.016-0.308V66.394z"/>
<path fill="#6D6E71" d="M63.184,49.796c-4.317,0-7.829,3.828-7.829,8.535c0,4.706,3.512,8.536,7.829,8.536
	c4.317,0,7.827-3.83,7.827-8.536C71.011,53.624,67.501,49.796,63.184,49.796z M63.184,63.645c-2.229,0-4.044-2.383-4.044-5.313
	c0-2.93,1.815-5.313,4.044-5.313c2.231,0,4.044,2.384,4.044,5.313C67.228,61.262,65.415,63.645,63.184,63.645z"/>
<path fill="#6D6E71" d="M85.751,60.4c0,1.723-1.398,3.121-3.118,3.121c-1.719,0-3.12-1.398-3.12-3.121V49.958h-3.717v10.155
	c0,0.074,0.005,0.144,0.016,0.309c0.164,3.66,3.16,6.526,6.821,6.526c3.77,0,6.835-3.066,6.835-6.835V49.958h-3.717V60.4z"/>
<path fill="#6D6E71" d="M122.261,53.553h5.167v-3.77h-5.167c-4.717,0-8.554,3.838-8.554,8.555c0,4.715,3.836,8.553,8.554,8.553
	h5.167v-3.77h-5.167c-2.638,0-4.785-2.146-4.785-4.783C117.476,55.699,119.623,53.553,122.261,53.553z"/>
</svg>
