<?xml version="1.0" encoding="utf-8"?>
<!-- Generator: Adobe Illustrator 15.0.0, SVG Export Plug-In  -->
<!DOCTYPE svg PUBLIC "-//W3C//DTD SVG 1.1//EN" "http://www.w3.org/Graphics/SVG/1.1/DTD/svg11.dtd" [
	<!ENTITY ns_flows "http://ns.adobe.com/Flows/1.0/">
]>
<svg version="1.1"
	 xmlns="http://www.w3.org/2000/svg" xmlns:xlink="http://www.w3.org/1999/xlink" xmlns:a="http://ns.adobe.com/AdobeSVGViewerExtensions/3.0/"
	 x="0px" y="0px" width="293px" height="227px" viewBox="-18.413 -95.415 293 227"
	 overflow="visible" enable-background="new -18.413 -95.415 293 227" xml:space="preserve">
<defs>
</defs>
<path fill="#6D6E71" d="M160.212,22.478v-8.396h7.19c1.26,0,1.887,0.544,1.887,1.63v1.023c0,0.822-0.48,1.299-1.447,1.415
	c1.009,0.13,1.516,0.67,1.516,1.613v1.072c0,1.099-0.826,1.642-2.477,1.642H160.212z M166.588,15.451h-4.457v2.001h4.457
	c0.601,0,0.898-0.2,0.898-0.604v-0.798C167.487,15.65,167.189,15.451,166.588,15.451z M166.588,18.836h-4.457v2.134h4.457
	c0.324,0,0.556-0.043,0.684-0.116c0.173-0.113,0.261-0.325,0.261-0.635v-0.639c0-0.31-0.088-0.52-0.261-0.632
	C167.144,18.874,166.913,18.836,166.588,18.836z"/>
<path fill="#6D6E71" d="M171.52,22.478l4.752-8.396h1.889l4.815,8.396h-2.199l-1.008-1.837h-5.321l-0.975,1.837H171.52z
	 M175.279,19.127h3.676l-1.8-3.415L175.279,19.127z"/>
<path fill="#6D6E71" d="M192.721,15.581h-5.269v5.321h5.269v-1.809l1.955,0.41v0.989c0,0.784-0.144,1.308-0.439,1.582
	c-0.293,0.271-0.839,0.404-1.644,0.404h-5.013c-0.801,0-1.348-0.133-1.645-0.404c-0.29-0.274-0.437-0.798-0.437-1.582v-4.421
	c0-0.782,0.147-1.31,0.437-1.579c0.297-0.269,0.843-0.41,1.645-0.41h5.013c0.805,0,1.351,0.141,1.644,0.41
	c0.295,0.27,0.439,0.797,0.439,1.579v0.797l-1.955,0.308V15.581z"/>
<path fill="#6D6E71" d="M198.71,22.478v-8.396h1.973v3.499l4.65-3.499h2.831l-5.563,3.956l6.249,4.44h-3.143l-5.024-3.688v3.688
	H198.71z"/>
<path fill="#6D6E71" d="M213.583,14.082v6.82h5.567v-6.82h1.953v6.41c0,0.784-0.149,1.308-0.44,1.582
	c-0.292,0.271-0.844,0.404-1.645,0.404h-5.304c-0.805,0-1.348-0.133-1.644-0.404c-0.29-0.274-0.438-0.798-0.438-1.582v-6.41H213.583
	z"/>
<path fill="#6D6E71" d="M225.401,22.478v-8.396h7.189c1.258,0,1.888,0.544,1.888,1.63v1.869c0,1.084-0.629,1.631-1.888,1.631h-5.271
	v3.266H225.401z M231.712,15.515h-4.393v2.26h4.393c0.304,0,0.515-0.032,0.634-0.099c0.163-0.099,0.244-0.293,0.244-0.578v-0.905
	c0-0.285-0.081-0.482-0.244-0.577C232.228,15.55,232.016,15.515,231.712,15.515z"/>
<path fill="#6D6E71" d="M25.368,22.478l4.751-8.396h1.886l4.82,8.396H34.63l-1.01-1.837h-5.321l-0.979,1.837H25.368z M29.127,19.127
	h3.678l-1.806-3.415L29.127,19.127z"/>
<path fill="#6D6E71" d="M39.525,22.478v-8.396h8.592v1.433h-6.64v1.869h3.876v1.437h-3.876v2.081H48.2v1.576H39.525z"/>
<path fill="#6D6E71" d="M51.81,22.478v-8.396h7.193c1.258,0,1.891,0.544,1.891,1.63v1.964c0,1.086-0.632,1.629-1.891,1.629H57.9
	l3.872,3.172H58.97l-3.385-3.172h-1.851v3.172H51.81z M58.126,15.515h-4.393v2.36h4.393c0.302,0,0.514-0.038,0.634-0.1
	c0.161-0.099,0.243-0.288,0.243-0.573v-1.016c0-0.283-0.082-0.474-0.243-0.574C58.64,15.55,58.429,15.515,58.126,15.515z"/>
<path fill="#6D6E71" d="M64.862,22.478v-8.396h1.952v8.396H64.862z"/>
<path fill="#6D6E71" d="M69.5,22.478l4.751-8.396h1.889l4.814,8.396h-2.197l-1.006-1.837h-5.324l-0.973,1.837H69.5z M73.255,19.127
	h3.681l-1.808-3.415L73.255,19.127z"/>
<path fill="#6D6E71" d="M83.658,22.478v-8.396h1.953v6.82h6.294v1.576H83.658z"/>
<path fill="#6D6E71" d="M255.68,21.973c-1.796-4.219-11.202-6.98-14.737-8.016c-0.296-0.084-0.538-0.153-0.729-0.214
	c-0.078-0.028-0.163,0.014-0.195,0.091c-0.033,0.078-0.002,0.164,0.067,0.202l0.269,0.16c2.848,1.607,5.792,3.268,7.984,5.709
	c1.088,1.217,2.171,3.102,1.125,5.169c-0.745,1.479-2.202,2.5-4.335,3.035c-3.302,0.825-6.776,1.582-10.34,2.25
	c-12.073,2.271-24.026,2.951-37.277,3.543l-0.332,0.016c-2.925,0.128-5.947,0.263-8.882,0.263c-6.984,0-12.274-0.789-17.165-2.561
	c-2.708-0.981-5.227-2.352-7.671-3.678c-1.434-0.779-2.924-1.593-4.445-2.318c-3.141-1.5-6.701-2.265-10.561-2.265
	c-0.734,0-1.479,0.028-2.229,0.085l-0.263,0.019c-1.696,0.135-3.39,0.29-5.078,0.463c-0.72,0.072-2.053,0.3-2.601-0.343
	c-0.518-0.603-0.143-1.355,0.08-1.999c0.01-0.035,0.021-0.069,0.035-0.106c0.006-0.028,0.017-0.055,0.023-0.082
	c0.006-0.016,0.011-0.058,0.025-0.108c0.272-0.955,0.427-1.967,0.427-3.008c0-6.014-4.875-10.888-10.886-10.888l0,0v0.006l0,0
	c-1.166,0-2.291,0.185-3.341,0.524c-0.731,0.218-1.437,0.517-2.102,0.889c-1.435,0.809-2.825,1.56-4.465,1.859
	c-1.579,0.286-3.182,0.417-4.788,0.439c-1.421,0.019-2.847,0.019-4.266-0.091c-5.536-0.41-10.309-2.263-15.78-4.914
	c-5.731-2.773-10.696-4.421-15.631-5.175c-3.291-0.512-6.714-0.801-10.476-0.894C66.285,0.014,65.404,0,64.515,0
	c-3.066,0-6.339,0.13-10.025,0.388l-1.511,0.111c-4.688,0.332-9.537,0.675-14.018,1.202c-1.604,0.189-3.194,0.368-4.776,0.546
	C26.384,3.121,19.011,3.94,11.368,5.933c-0.338,0.086-0.7,0.177-1.075,0.273C6.835,7.064,2.106,8.24,0.458,11.415
	c-0.552,1.067-0.605,2.133-0.157,3.177c1.8,4.216,11.199,6.977,14.738,8.021c0.292,0.077,0.537,0.151,0.728,0.212
	c0.078,0.022,0.163-0.017,0.195-0.094c0.035-0.08,0.003-0.167-0.065-0.205l-0.271-0.156c-2.847-1.609-5.791-3.271-7.98-5.715
	c-1.094-1.211-2.17-3.096-1.13-5.166c0.743-1.476,2.202-2.5,4.335-3.032c3.301-0.823,6.778-1.581,10.342-2.25
	c12.069-2.272,24.025-2.951,37.276-3.546l0.332-0.016c2.923-0.128,5.947-0.263,8.883-0.263c6.983,0,12.274,0.792,17.16,2.562
	c2.709,0.981,5.233,2.352,7.676,3.679c1.437,0.779,2.92,1.59,4.438,2.316c3.152,1.5,6.706,2.263,10.564,2.263
	c0.734,0,1.482-0.025,2.229-0.081l0.266-0.019c1.693-0.134,3.387-0.292,5.075-0.463c0.725-0.075,2.055-0.307,2.603,0.338
	c0.517,0.607,0.141,1.361-0.078,2.004c-0.013,0.035-0.025,0.071-0.036,0.108c-0.006,0.022-0.017,0.05-0.028,0.077
	c-0.003,0.019-0.009,0.058-0.019,0.108c-0.274,0.958-0.429,1.967-0.429,3.006c0,6.014,4.873,10.888,10.886,10.888l0,0l0,0l0,0
	c1.166,0,2.29-0.185,3.345-0.529c0.729-0.22,1.434-0.512,2.099-0.892c1.435-0.805,2.825-1.559,4.465-1.858
	c1.579-0.288,3.18-0.415,4.786-0.438c1.424-0.018,2.847-0.014,4.266,0.089c5.536,0.415,10.312,2.263,15.778,4.914
	c5.731,2.776,10.7,4.421,15.634,5.18c3.288,0.507,6.712,0.801,10.478,0.894c0.854,0.023,1.737,0.032,2.626,0.032
	c3.06,0,6.34-0.124,10.021-0.385l1.517-0.108c4.686-0.332,9.535-0.678,14.015-1.202c1.603-0.191,3.195-0.366,4.774-0.546
	c7.803-0.875,15.173-1.698,22.819-3.689c0.34-0.087,0.701-0.178,1.08-0.272c3.455-0.861,8.183-2.035,9.828-5.211
	C256.076,24.081,256.128,23.016,255.68,21.973z M127.991,27.464L127.991,27.464v0.005l0,0c-5.075,0-9.185-4.116-9.185-9.188
	c0-5.071,4.109-9.184,9.185-9.184l0,0V9.096l0,0c5.074,0,9.184,4.11,9.184,9.185C137.174,23.353,133.065,27.464,127.991,27.464z"/>
<path fill="#6D6E71" d="M128.111,23.269c-0.056,0-0.09,0-0.117-0.002c-0.023,0.002-0.061,0.002-0.114,0.002
	c-0.784,0-3.664-0.345-7.786-4.806l-0.177-0.193l0.177-0.192c4.122-4.463,7.001-4.812,7.786-4.812c0.053,0,0.091,0.006,0.114,0.01
	c0.027-0.003,0.061-0.01,0.117-0.01c0.788,0,3.668,0.349,7.786,4.812l0.177,0.192l-0.177,0.193
	C131.78,22.924,128.899,23.269,128.111,23.269z M127.994,22.702h0.03c0.053,0.008,2.908,0.216,7.28-4.432
	c-4.371-4.648-7.213-4.437-7.282-4.432l-0.028,0.003l-0.028-0.003c-0.048-0.005-2.908-0.216-7.275,4.432
	c4.369,4.648,7.208,4.44,7.279,4.432H127.994z"/>
<path fill="#6D6E71" d="M130.395,18.273c0,1.321-1.074,2.396-2.401,2.396c-1.326,0-2.396-1.075-2.396-2.396
	c0-1.327,1.07-2.402,2.396-2.402C129.321,15.871,130.395,16.946,130.395,18.273z"/>
<path fill="#6D6E71" d="M127.994,22.878c-2.54,0-4.609-2.064-4.609-4.605c0-2.545,2.069-4.617,4.609-4.617
	c2.543,0,4.614,2.072,4.614,4.617C132.608,20.814,130.537,22.878,127.994,22.878z M127.994,14.228c-2.23,0-4.041,1.812-4.041,4.045
	c0,2.23,1.811,4.044,4.041,4.044c2.233,0,4.047-1.814,4.047-4.044C132.041,16.04,130.228,14.228,127.994,14.228z"/>
<g>
	<rect x="127.855" y="13.259" fill="#6D6E71" width="0.283" height="10.023"/>
</g>
<polygon fill="#6D6E71" points="135.943,18.414 120.05,18.414 119.917,18.27 120.05,18.129 135.951,18.129 136.074,18.259 "/>
</svg>
