<?xml version="1.0" encoding="utf-8"?>
<!-- Generator: Adobe Illustrator 15.0.0, SVG Export Plug-In  -->
<!DOCTYPE svg PUBLIC "-//W3C//DTD SVG 1.1//EN" "http://www.w3.org/Graphics/SVG/1.1/DTD/svg11.dtd" [
	<!ENTITY ns_flows "http://ns.adobe.com/Flows/1.0/">
]>
<svg version="1.1"
	 xmlns="http://www.w3.org/2000/svg" xmlns:xlink="http://www.w3.org/1999/xlink" xmlns:a="http://ns.adobe.com/AdobeSVGViewerExtensions/3.0/"
	 x="0px" y="0px" width="293px" height="227px" viewBox="-76.661 -53.271 293 227"
	 overflow="visible" enable-background="new -76.661 -53.271 293 227" xml:space="preserve">
<defs>
</defs>
<path fill-rule="evenodd" clip-rule="evenodd" fill="#6D6E71" d="M90.924,4.364c0.013,0,0.028,0,0.038,0c0,0.019,0,0.027,0,0.042
	c-0.009,0-0.025,0-0.038,0C90.924,4.391,90.924,4.383,90.924,4.364z"/>
<path fill-rule="evenodd" clip-rule="evenodd" fill="#6D6E71" d="M100.292,15c0.026,0,0.053,0,0.078,0
	c-0.006,0.025-0.033,0.019-0.06,0.019c0,0.042,0,0.08,0,0.119c-0.022,0-0.034,0.004-0.039,0.019
	C100.228,15.126,100.33,15.09,100.292,15z"/>
<path fill-rule="evenodd" clip-rule="evenodd" fill="#6D6E71" d="M117.607,15.214c-0.023-0.008-0.038-0.022-0.038-0.058
	C117.592,15.164,117.609,15.185,117.607,15.214z"/>
<path fill-rule="evenodd" clip-rule="evenodd" fill="#6D6E71" d="M100.119,15.704c0.023,0,0.055,0,0.077,0
	c-0.031,0.022-0.022,0.078-0.077,0.075C100.119,15.754,100.119,15.73,100.119,15.704z"/>
<path fill-rule="evenodd" clip-rule="evenodd" fill="#6D6E71" d="M118.463,15.878c-0.011,0-0.021,0-0.037,0c0-0.021,0-0.039,0-0.058
	c0.02,0,0.037,0,0.06,0C118.49,15.854,118.468,15.854,118.463,15.878z"/>
<path fill-rule="evenodd" clip-rule="evenodd" fill="#6D6E71" d="M118.307,15.898C118.257,15.965,118.262,15.798,118.307,15.898
	L118.307,15.898z"/>
<path fill-rule="evenodd" clip-rule="evenodd" fill="#6D6E71" d="M119.146,16.543c0.005,0.031-0.022,0.039-0.021,0.075
	c-0.041-0.052-0.05,0.053-0.095,0c0.03-0.047,0.102-0.019,0.059-0.097C119.104,16.534,119.121,16.543,119.146,16.543z"/>
<path fill-rule="evenodd" clip-rule="evenodd" fill="#6D6E71" d="M119.633,16.754c0.016,0,0.026,0,0.041,0c0,0.014,0,0.026,0,0.026
	c-0.014,0.013-0.025,0.013-0.041,0.013C119.633,16.793,119.633,16.768,119.633,16.754z"/>
<path fill-rule="evenodd" clip-rule="evenodd" fill="#6D6E71" d="M99.807,17.185c0.011,0,0.026,0,0.038,0c0,0.013,0,0.025,0,0.038
	c-0.011,0-0.027,0-0.038,0C99.807,17.209,99.807,17.197,99.807,17.185z"/>
<path fill-rule="evenodd" clip-rule="evenodd" fill="#6D6E71" d="M120.294,17.3c0,0.028-0.055,0.009-0.055,0.038
	C120.176,17.317,120.257,17.283,120.294,17.3z"/>
<path fill-rule="evenodd" clip-rule="evenodd" fill="#6D6E71" d="M120.376,17.454c0.009,0,0.025,0,0.038,0c0,0.017,0,0.028,0,0.044
	c-0.013,0-0.028,0-0.038,0C120.376,17.482,120.376,17.471,120.376,17.454z"/>
<path fill-rule="evenodd" clip-rule="evenodd" fill="#6D6E71" d="M120.395,17.632c0.025,0.004,0.029,0.031,0.056,0.038
	C120.445,17.718,120.377,17.671,120.395,17.632z"/>
<path fill-rule="evenodd" clip-rule="evenodd" fill="#6D6E71" d="M99.61,18.354c0.086,0.001,0.038,0.033,0.039,0.092
	C99.607,18.446,99.607,18.402,99.61,18.354z"/>
<path fill-rule="evenodd" clip-rule="evenodd" fill="#6D6E71" d="M121.7,18.662c0.012,0,0.026,0,0.038,0c0,0.012,0,0.026,0,0.041
	c-0.011,0-0.025,0-0.038,0C121.7,18.688,121.7,18.674,121.7,18.662z"/>
<path fill-rule="evenodd" clip-rule="evenodd" fill="#6D6E71" d="M90.026,20.671c0.028,0.011,0.039,0.038,0.041,0.077
	C90.005,20.769,90.034,20.703,90.026,20.671z"/>
<path fill-rule="evenodd" clip-rule="evenodd" fill="#6D6E71" d="M69.653,20.786c0.029-0.061,0.017,0.086,0.021,0.117
	C69.642,20.964,69.656,20.818,69.653,20.786z"/>
<path fill-rule="evenodd" clip-rule="evenodd" fill="#6D6E71" d="M90.24,21.8c0.009-0.039,0.028,0.011,0.021,0.038
	C90.253,21.876,90.236,21.826,90.24,21.8z"/>
<path fill-rule="evenodd" clip-rule="evenodd" fill="#6D6E71" d="M90.3,22.171c0.056-0.03,0.056,0.086,0,0.059
	C90.3,22.208,90.3,22.191,90.3,22.171z"/>
<path fill-rule="evenodd" clip-rule="evenodd" fill="#6D6E71" d="M90.356,22.327C90.42,22.52,90.323,22.48,90.356,22.327
	L90.356,22.327z"/>
<path fill-rule="evenodd" clip-rule="evenodd" fill="#6D6E71" d="M90.436,22.696c0.022-0.062,0.022,0.053,0.021,0.077
	C90.433,22.834,90.433,22.72,90.436,22.696z"/>
<path fill-rule="evenodd" clip-rule="evenodd" fill="#6D6E71" d="M90.418,22.834c0.01,0,0.023,0,0.038,0c0,0,0,0.025,0,0.036
	c-0.015,0-0.028,0-0.038,0C90.418,22.859,90.418,22.844,90.418,22.834z"/>
<path fill-rule="evenodd" clip-rule="evenodd" fill="#6D6E71" d="M90.689,24.002c0.06-0.019,0.036,0.043,0.038,0.077
	C90.702,24.063,90.691,24.036,90.689,24.002z"/>
<path fill-rule="evenodd" clip-rule="evenodd" fill="#6D6E71" d="M90.727,24.196c0.016,0,0.026,0,0.042,0c0,0.009,0,0.025,0,0.025
	c-0.016,0.013-0.026,0.013-0.042,0.013C90.727,24.233,90.727,24.205,90.727,24.196z"/>
<path fill-rule="evenodd" clip-rule="evenodd" fill="#6D6E71" d="M59.095,32.337c0.014,0,0.026,0,0.038,0c0,0.016,0,0.025,0,0.038
	c-0.011,0-0.023,0-0.038,0C59.095,32.362,59.095,32.353,59.095,32.337z"/>
<path fill-rule="evenodd" clip-rule="evenodd" fill="#6D6E71" d="M113.54,33.952c-0.011-0.022-0.03-0.038-0.058-0.038
	c-0.006-0.041,0.066-0.009,0.093-0.017c-0.022,0.023-0.019,0.065-0.019,0.114C113.542,34.012,113.5,33.947,113.54,33.952z"/>
<path fill-rule="evenodd" clip-rule="evenodd" fill="#6D6E71" d="M16.926,82.357c0.294,1.897,0.039,4.094-0.233,5.844
	c-0.268,0-0.534,0-0.801,0c-0.006-2.16-0.674-3.627-2.023-4.46c-1.292-0.795-3.567-1.03-5.437-0.565
	c-3.297,0.825-5.171,3.639-5.297,7.654C3,95.078,4.794,97.977,7.769,99.147c1.584,0.625,3.988,0.657,5.495-0.022
	c1.479-0.659,2.399-1.922,2.823-3.639c0.239,0,0.482,0,0.72,0c-0.033,1.629-0.326,2.996-0.776,4.208
	c-1.263,0.725-2.774,1.144-4.578,1.283c-1.878,0.147-3.722-0.028-5.238-0.505c-2.916-0.916-4.972-2.938-5.809-5.92
	c-0.445-1.592-0.528-3.587-0.233-5.284c0.578-3.277,2.45-5.427,5.106-6.62c0.693-0.312,1.41-0.542,2.219-0.72
	c0.804-0.175,1.659-0.25,2.631-0.292C12.644,81.521,14.588,82.195,16.926,82.357z"/>
<path fill-rule="evenodd" clip-rule="evenodd" fill="#6D6E71" d="M30.11,81.636c1.551-0.074,3.092,0.243,4.229,0.684
	c2.385,0.914,4.016,2.485,5.005,4.77c0.496,1.138,0.792,2.563,0.8,4.091c0.019,3.119-1.146,5.471-2.727,7.052
	c-1.612,1.609-3.979,2.745-6.972,2.805c-2.42,0.048-4.377-0.557-5.883-1.48c-0.504-0.313-0.989-0.657-1.383-1.052
	c-1.625-1.625-2.786-3.809-2.786-6.992c0-3.137,1.108-5.465,2.708-7.071c0.793-0.792,1.771-1.475,2.923-1.967
	c1.126-0.485,2.512-0.839,4.052-0.839C30.086,81.636,30.102,81.636,30.11,81.636z M28.028,83.234
	c-0.502,0.153-0.939,0.358-1.305,0.585c-2.29,1.417-3.333,4.337-3.176,8.083c0.05,1.169,0.296,2.214,0.623,3.133
	c0.327,0.922,0.793,1.723,1.366,2.399c1.132,1.336,2.959,2.349,5.296,2.241c2.301-0.109,3.791-1.189,4.753-2.767
	c0.955-1.565,1.488-3.653,1.346-6.155c-0.071-1.157-0.233-2.177-0.587-3.175c-0.939-2.662-3.058-4.811-6.68-4.619
	C29.105,82.992,28.539,83.081,28.028,83.234z"/>
<path fill-rule="evenodd" clip-rule="evenodd" fill="#6D6E71" d="M109.581,81.636c1.51-0.074,3.11,0.231,4.229,0.662
	c1.795,0.69,3.145,1.743,4.147,3.196c0.989,1.427,1.613,3.33,1.659,5.665c0.029,1.578-0.306,2.953-0.781,4.111
	c-0.478,1.175-1.133,2.13-1.948,2.942c-1.623,1.625-3.947,2.765-6.95,2.825c-3.204,0.06-5.584-0.936-7.267-2.513
	c-1.637-1.529-2.786-3.855-2.786-6.99c0-3.199,1.088-5.458,2.686-7.092c0.779-0.795,1.783-1.482,2.922-1.967
	c1.136-0.48,2.517-0.839,4.052-0.839C109.559,81.636,109.571,81.636,109.581,81.636z M107.499,83.234
	c-0.507,0.153-0.942,0.357-1.305,0.585c-2.268,1.417-3.349,4.354-3.174,8.083c0.11,2.349,0.878,4.188,1.986,5.532
	c1.108,1.346,2.979,2.347,5.296,2.241c2.282-0.109,3.811-1.189,4.773-2.75c0.969-1.57,1.441-3.681,1.324-6.172
	c-0.053-1.157-0.229-2.187-0.583-3.175c-0.955-2.666-3.042-4.811-6.678-4.619C108.582,82.992,108.004,83.081,107.499,83.234z"/>
<path fill-rule="evenodd" clip-rule="evenodd" fill="#6D6E71" d="M82.935,100.023c0,0.213,0,0.429,0,0.642c-2.681,0-5.36,0-8.043,0
	c0-0.208,0-0.415,0-0.623c1.105-0.108,2.529,0.119,2.571-1.009c0.018-0.439-0.141-0.928-0.271-1.347
	c-0.366-1.152-0.933-2.436-1.305-3.487c-2.08-0.01-4.104,0.043-6.175,0.037c-0.448,1.077-1.013,2.324-1.402,3.607
	c-0.121,0.399-0.326,0.986-0.197,1.382c0.241,0.717,1.538,0.661,2.377,0.817c0,0.208,0,0.415,0,0.623c-2.271,0-4.543,0-6.815,0
	c0-0.192,0-0.388,0-0.585c0.984-0.142,1.747-0.52,2.239-1.242c0.23-0.338,0.431-0.751,0.603-1.152
	c0.867-1.963,1.755-4.094,2.611-6.076c1.407-3.249,2.815-6.535,4.186-9.737c0.201-0.017,0.333-0.16,0.548-0.119
	c0.111,0.022,0.058,0.033,0.097,0.119c0.142,0.307,0.308,0.764,0.427,1.07c1.109,2.864,2.275,5.731,3.41,8.551
	c0.821,2.047,1.625,4.069,2.51,6.035c0.343,0.761,0.698,1.623,1.347,2.086C82.007,99.87,82.428,99.961,82.935,100.023z
	 M70.197,92.975c1.731,0.022,3.484,0.022,5.201,0.06c-0.736-1.938-1.568-4.003-2.335-5.961c-0.057-0.14-0.105-0.362-0.272-0.315
	C71.891,88.796,71.045,90.884,70.197,92.975z"/>
<path fill-rule="evenodd" clip-rule="evenodd" fill="#6D6E71" d="M132.431,91.688c0.844,1.649,1.817,3.314,2.825,4.867
	c0.491,0.764,1.06,1.507,1.678,2.182c0.607,0.67,1.356,1.287,2.549,1.287c0,0.213,0,0.429,0,0.642
	c-1.074,0.084-2.027,0.194-3.116,0.255c-0.363,0.017-0.732,0.051-1.055-0.021c-0.551-0.122-0.94-0.546-1.285-0.955
	c-1.008-1.194-1.778-2.692-2.548-4.15c-0.248-0.458-0.484-0.981-0.744-1.498c-0.238-0.474-0.5-1.084-0.837-1.382
	c-0.496-0.437-1.664-0.258-2.532-0.294c0.006,1.556-0.097,3.728,0.041,5.377c0.061,0.742,0.127,1.502,0.642,1.773
	c0.521,0.271,1.358,0.136,2.083,0.271c0,0.208,0,0.415,0,0.623c-2.725,0-5.451,0-8.182,0c0-0.208,0-0.415,0-0.623
	c0.695-0.125,1.713-0.006,2.103-0.466c0.277-0.322,0.388-1.036,0.429-1.712c0.043-0.704,0.042-1.438,0.042-2.108
	c0-2.812,0-5.739,0-8.528c0-0.664,0-1.412-0.042-2.104c-0.052-0.923-0.089-1.867-0.719-2.165c-0.473-0.224-1.322-0.133-1.813-0.234
	c0.016-0.207-0.023-0.465,0.02-0.639c1.867-0.111,3.693-0.048,5.553-0.135c1.836-0.089,3.559,0.011,4.908,0.424
	c1.36,0.417,2.399,1.174,2.942,2.375c0.62,1.374,0.429,3.172-0.196,4.363C134.566,90.281,133.58,91.068,132.431,91.688z
	 M131.109,91.239c0.546-0.331,0.981-0.913,1.244-1.54c0.718-1.701,0.539-4.058-0.466-5.298c-0.622-0.762-1.552-1.217-2.709-1.167
	c-0.668,0.031-1.263,0.143-1.833,0.313c0,2.654,0,5.309,0,7.966C128.741,91.4,130.228,91.773,131.109,91.239z"/>
<path fill-rule="evenodd" clip-rule="evenodd" fill="#6D6E71" d="M42.11,81.985c1.055,0,2.434,0,3.603,0
	c0.456,0,0.948-0.033,1.249,0.059c0.341,0.111,0.642,0.393,0.935,0.662c0.283,0.265,0.546,0.567,0.778,0.82
	c0.515,0.556,1.061,1.147,1.52,1.676c2.889,3.29,5.601,6.506,8.432,9.91c0.042,0.047,0.114,0.143,0.179,0.219
	c0.078,0.089,0.136,0.155,0.214,0.094c0.091-0.069,0.047-0.138,0.039-0.332c-0.044-0.911-0.021-1.878-0.021-2.742
	c0-2.109-0.077-4.163-0.077-6.275c0-0.917-0.034-2.188-0.391-2.786c-0.363-0.607-1.401-0.534-2.299-0.642
	c0.014-0.216-0.021-0.479,0.022-0.664c2.297,0,4.595,0,6.895,0c0.045,0.185,0.006,0.447,0.019,0.664
	c-0.548,0.104-1.34,0.042-1.771,0.294c-0.606,0.348-0.705,1.29-0.74,2.26c-0.086,2.124-0.038,4.47-0.042,6.62
	c0,3.136,0.004,6.079,0,8.864c-0.292,0.131-0.686,0.169-1.052,0.233c-0.167-0.132-0.279-0.319-0.407-0.485
	c-2.44-3.125-4.963-6.208-7.576-9.196c-1.373-1.567-2.676-3.094-4.11-4.712c-0.144-0.16-0.405-0.457-0.625-0.704
	c-0.06-0.069-0.152-0.201-0.253-0.135c-0.099,0.064-0.061,0.231-0.061,0.41c0,2.246,0.042,4.479,0.042,6.717
	c0,1.18-0.016,2.363,0.019,3.584c0.031,1.097,0.014,2.504,0.488,3.119c0.413,0.538,1.509,0.383,2.318,0.524c0,0.208,0,0.415,0,0.623
	c-2.402,0-4.806,0-7.206,0c0-0.208,0-0.415,0-0.623c0.701-0.138,1.772,0,2.197-0.444c0.368-0.385,0.465-1.296,0.507-2.069
	c0.092-1.703,0.056-3.314,0.056-5.061c0-1.69,0.023-3.412,0.023-5.102c0-0.874,0.066-1.715,0.017-2.534
	c-0.047-0.815-0.343-1.387-0.856-1.714c-0.51-0.325-1.316-0.393-2.084-0.469c0-0.204,0-0.401,0-0.604
	C42.091,82.018,42.086,81.99,42.11,81.985z"/>
<path fill-rule="evenodd" clip-rule="evenodd" fill="#6D6E71" d="M84.672,81.985c4.01,0,8.024,0,12.038,0
	c0.189,1.508,0.005,3.197-0.292,4.463c-0.214,0-0.431,0-0.642,0c-0.106-1.478-0.399-2.607-1.579-3.002
	c-1.2-0.394-2.85-0.062-4.13,0.08c-0.046,2.421-0.008,4.925-0.018,7.382c0.679,0.003,1.434,0,2.14-0.02
	c0.712-0.018,1.39-0.042,1.873-0.293c0.498-0.256,0.645-0.757,0.778-1.399c0.219,0,0.44,0,0.661,0
	c-0.091,1.757-0.147,3.553-0.232,5.315c-0.217,0-0.429,0-0.646,0c-0.172-0.854-0.157-1.734-0.778-2.104
	c-0.845-0.501-2.504-0.26-3.777-0.332c-0.003,1.67-0.077,3.95,0.019,5.747c0.042,0.795,0.148,1.668,0.684,1.948
	c0.545,0.287,1.446,0.136,2.218,0.271c0,0.208,0,0.415,0,0.623c-2.778,0-5.557,0-8.335,0c0-0.208,0-0.415,0-0.623
	c0.549-0.112,1.336-0.028,1.811-0.25c0.607-0.288,0.696-1.255,0.742-2.204c0.061-1.393,0.038-2.806,0.038-4.226
	c0-2.069,0.057-4.323-0.019-6.37c-0.027-0.657,0.006-1.407-0.042-2.084c-0.053-0.844-0.125-1.69-0.659-1.986
	c-0.475-0.268-1.304-0.162-1.87-0.274c0-0.204,0-0.401,0-0.604C84.652,82.018,84.647,81.99,84.672,81.985z"/>
<path fill-rule="evenodd" clip-rule="evenodd" fill="#6D6E71" d="M64.551,106.688c0,0.466,0,0.936,0,1.402
	c-13.416,0-26.984,0-40.457,0c-2.69,0-5.375-0.059-8.027-0.059c-1.316,0-2.654-0.06-3.989-0.06
	c-1.319,0.003-2.637-0.038-3.938-0.097c-1.299-0.061-2.64-0.053-3.935-0.116c-1.105-0.053-2.249-0.08-3.293-0.257
	c-0.112-0.016-0.281-0.004-0.349-0.136c0.821-0.214,1.696-0.227,2.57-0.269c1.795-0.092,3.625-0.155,5.476-0.216
	c3.665-0.114,7.441-0.102,11.179-0.172c0.947-0.02,1.894,0.039,2.826,0c1.657-0.083,3.581-0.02,5.298-0.02
	C40.068,106.688,52.47,106.688,64.551,106.688z"/>
<path fill-rule="evenodd" clip-rule="evenodd" fill="#6D6E71" d="M74.892,106.688c13.412,0,26.987,0,40.456,0
	c2.69,0,5.371,0.058,8.027,0.058c2.632,0,5.302,0.13,7.929,0.155c1.964,0.019,3.926,0.101,5.842,0.235
	c0.603,0.038,1.202,0.069,1.771,0.23c-0.075,0.132-0.249,0.121-0.368,0.136c-1.003,0.172-2.182,0.204-3.292,0.257
	c-1.294,0.06-2.617,0.077-3.917,0.131c-0.653,0.035-1.324,0.042-1.986,0.042c-1.945,0-3.989,0.099-5.959,0.099
	c-2.658,0-5.348,0.059-8.046,0.059c-13.428,0-27.031,0-40.435,0c-0.069-0.043-0.039-0.2-0.039-0.313c0-0.319,0-0.699,0-1.031
	C74.871,106.719,74.871,106.69,74.892,106.688z"/>
<path fill-rule="evenodd" clip-rule="evenodd" fill="#6D6E71" d="M34.357,114.012c-0.041-0.132,0.061-0.15,0.136-0.197
	c0.064-0.041,0.165-0.072,0.216-0.099c0.139-0.066,0.278-0.143,0.41-0.213c0.282-0.158,0.593-0.322,0.8-0.546
	c0.143,0.019,0.401,0.354,0.387,0.488c-0.022,0.222-0.568,0.357-0.856,0.427C35.041,113.969,34.658,114.03,34.357,114.012z"/>
<path fill-rule="evenodd" clip-rule="evenodd" fill="#6D6E71" d="M5.317,114.708c0.058,0.493,0.045,0.962-0.019,1.498
	c-0.019,0.172-0.043,0.375-0.233,0.297c-0.084-0.038-0.045-0.023-0.06-0.097c-0.021-0.092-0.036-0.264-0.061-0.372
	c-0.147-0.745-0.651-1.14-1.575-1.147c-1.638-0.016-2.388,1.275-2.279,2.903c0.086,1.292,1.007,2.366,2.55,2.221
	c0.544-0.053,1.016-0.335,1.269-0.82c0.03-0.061,0.046-0.18,0.096-0.292c0.036-0.077,0.065-0.224,0.211-0.158
	c0.081,0.042,0.062,0.042,0.062,0.158c0,0.404-0.143,0.839-0.236,1.13c-0.622,0.348-1.279,0.457-2.141,0.41
	c-1.166-0.062-2.164-0.708-2.554-1.636c-0.515-1.239-0.157-2.843,0.701-3.585c0.438-0.377,1.104-0.664,1.87-0.72
	C3.852,114.428,4.484,114.642,5.317,114.708z"/>
<path fill-rule="evenodd" clip-rule="evenodd" fill="#6D6E71" d="M9.056,114.516c1.177-0.111,2.072,0.266,2.61,0.817
	c0.512,0.527,0.835,1.39,0.761,2.36c-0.138,1.771-1.548,2.969-3.526,2.726c-1.532-0.188-2.628-1.343-2.514-3.156
	c0.049-0.783,0.379-1.418,0.718-1.814C7.516,114.988,8.221,114.594,9.056,114.516z M8.12,115.298
	c-0.507,0.423-0.784,1.205-0.778,2.138c0.008,1.023,0.399,1.862,0.997,2.258c0.635,0.429,1.587,0.44,2.177,0.06
	c0.648-0.408,0.978-1.349,0.957-2.335c-0.033-1.443-0.791-2.613-2.26-2.512C8.683,114.939,8.394,115.066,8.12,115.298z"/>
<path fill-rule="evenodd" clip-rule="evenodd" fill="#6D6E71" d="M27.851,114.691c-0.025,0.394-0.011,0.798-0.095,1.208
	c-0.028,0.131-0.055,0.275-0.213,0.214c-0.092-0.033-0.06-0.083-0.08-0.196c-0.078-0.416-0.24-0.786-0.584-0.955
	c-0.722-0.354-1.595,0.138-1.424,0.914c0.114,0.491,0.764,0.867,1.209,1.172c0.466,0.319,0.996,0.674,1.229,1.128
	c0.296,0.582,0.07,1.374-0.294,1.734c-0.277,0.272-0.74,0.482-1.227,0.526c-0.601,0.053-1.147-0.114-1.773-0.194
	c-0.042-0.413-0.104-0.908-0.075-1.325c0.093,0.019,0.146-0.028,0.194,0c0.026,0.019,0.045,0.114,0.06,0.138
	c0.031,0.07,0.05,0.183,0.095,0.269c0.316,0.627,1.15,0.956,1.85,0.605c0.374-0.189,0.642-0.717,0.351-1.263
	c-0.082-0.158-0.215-0.309-0.351-0.431c-0.309-0.269-0.728-0.521-1.091-0.801c-0.457-0.347-0.98-0.74-0.994-1.46
	c-0.016-0.815,0.62-1.404,1.421-1.479C26.784,114.428,27.209,114.642,27.851,114.691z"/>
<path fill-rule="evenodd" clip-rule="evenodd" fill="#6D6E71" d="M34.77,114.516c1.188-0.101,2.047,0.255,2.589,0.817
	c0.649,0.682,1.056,2.052,0.563,3.292c-0.509,1.29-1.969,2.183-3.795,1.693c-0.917-0.243-1.62-0.864-1.911-1.79
	c-0.179-0.578-0.204-1.296,0-1.985c0.244-0.834,0.792-1.443,1.618-1.793C34.123,114.628,34.412,114.543,34.77,114.516z
	 M33.23,116.193c-0.114,0.31-0.198,0.798-0.195,1.243c0.006,0.984,0.407,1.894,1.05,2.301c0.507,0.321,1.301,0.424,1.947,0.116
	c0.748-0.354,1.138-1.313,1.13-2.395c-0.001-0.524-0.169-1.23-0.387-1.598c-0.346-0.585-1.017-1.013-1.87-0.953
	C33.952,114.971,33.478,115.495,33.23,116.193z"/>
<path fill-rule="evenodd" clip-rule="evenodd" fill="#6D6E71" d="M66.167,114.708c0.065,0.439,0.028,0.953-0.022,1.405
	c-0.013,0.139-0.001,0.3-0.095,0.39c-0.057,0-0.118,0-0.177,0c-0.077-0.031-0.026-0.175-0.038-0.269
	c-0.089-0.886-0.671-1.349-1.674-1.348c-1.419,0.003-2.175,1.013-2.241,2.434c-0.062,1.385,0.721,2.567,1.988,2.69
	c1.15,0.113,1.773-0.396,1.987-1.271c0.061,0,0.128,0,0.191,0c0.082,0.064,0.033,0.23,0.023,0.336
	c-0.039,0.315-0.114,0.676-0.214,0.952c-0.449,0.241-0.872,0.373-1.422,0.41c-1.152,0.075-2.125-0.222-2.728-0.82
	c-0.759-0.75-0.991-2.167-0.565-3.327c0.375-1.023,1.296-1.698,2.592-1.793C64.701,114.428,65.332,114.647,66.167,114.708z"/>
<path fill-rule="evenodd" clip-rule="evenodd" fill="#6D6E71" d="M73.001,114.516c1.213-0.114,2.16,0.297,2.689,0.914
	c0.391,0.454,0.747,1.274,0.682,2.184c-0.116,1.651-1.217,2.817-2.979,2.825c-0.952,0.004-1.646-0.257-2.161-0.744
	c-0.501-0.469-0.869-1.097-0.896-2.001c-0.033-0.952,0.263-1.698,0.701-2.204C71.448,115.016,72.105,114.6,73.001,114.516z
	 M71.637,115.821c-0.438,0.773-0.465,2.304,0,3.158c0.2,0.358,0.529,0.676,0.84,0.835c0.728,0.366,1.649,0.235,2.161-0.197
	c0.789-0.664,1.025-2.437,0.485-3.559c-0.327-0.7-1-1.219-1.964-1.152C72.393,114.957,71.938,115.301,71.637,115.821z"/>
<path fill-rule="evenodd" clip-rule="evenodd" fill="#6D6E71" d="M104.596,114.516c0.991-0.088,1.833,0.178,2.38,0.623
	c0.51,0.419,0.928,1.122,0.991,1.989c0.072,0.991-0.221,1.783-0.684,2.318c-0.646,0.748-1.977,1.265-3.366,0.873
	c-1.113-0.308-1.858-1.161-1.989-2.491c-0.092-0.958,0.227-1.775,0.662-2.298C103.007,115.024,103.713,114.594,104.596,114.516z
	 M104.266,114.963c-0.947,0.279-1.414,1.302-1.402,2.514c0.009,1.393,0.761,2.518,2.102,2.551c1.565,0.041,2.179-1.493,2.011-2.961
	c-0.146-1.249-0.862-2.244-2.224-2.16C104.586,114.916,104.412,114.922,104.266,114.963z"/>
<path fill-rule="evenodd" clip-rule="evenodd" fill="#6D6E71" d="M122.731,114.691c-0.031,0.388-0.016,0.798-0.095,1.208
	c-0.028,0.128-0.06,0.272-0.216,0.214c-0.097-0.038-0.058-0.08-0.078-0.196c-0.075-0.382-0.21-0.71-0.485-0.894
	c-0.66-0.439-1.732-0.011-1.52,0.875c0.11,0.461,0.679,0.77,1.091,1.055c0.399,0.272,0.895,0.604,1.17,0.95
	c0.395,0.512,0.404,1.449-0.062,1.948c-0.288,0.313-0.765,0.544-1.285,0.585c-0.701,0.058-1.096-0.119-1.775-0.194
	c-0.034-0.417-0.112-0.898-0.075-1.325c0.071,0,0.144,0,0.215,0c0.15,0.704,0.642,1.191,1.46,1.15
	c0.699-0.034,1.277-0.626,0.875-1.4c-0.077-0.155-0.216-0.316-0.368-0.451c-0.569-0.501-1.654-0.984-1.967-1.753
	c-0.218-0.527-0.025-1.175,0.292-1.501c0.235-0.241,0.579-0.422,1.031-0.466C121.663,114.428,122.086,114.647,122.731,114.691z"/>
<path fill-rule="evenodd" clip-rule="evenodd" fill="#6D6E71" d="M86.775,114.539c0.563,1.405,1.258,3.291,1.926,4.769
	c0.135,0.299,0.249,0.607,0.487,0.742c0.128,0.069,0.44,0.034,0.352,0.231c-0.037,0.084-0.126,0.053-0.272,0.06
	c-0.75,0.016-1.492,0.003-2.202-0.022c-0.087-0.25,0.248-0.185,0.427-0.209c0.21-0.033,0.297-0.071,0.351-0.179
	c-0.014-0.667-0.319-1.041-0.465-1.576c-0.631,0-1.26,0-1.891,0c-0.104,0.17-0.185,0.439-0.291,0.721
	c-0.097,0.244-0.275,0.567-0.214,0.798c0.031,0.119,0.172,0.175,0.313,0.209c0.131,0.04,0.312-0.003,0.407,0.101
	c0,0.038,0,0.075,0,0.116c-0.052,0.077-0.163,0.041-0.233,0.041c-0.574,0.009-1.283,0.005-1.852-0.022
	c-0.034-0.194,0.019-0.134,0.136-0.194c0.139-0.067,0.274-0.078,0.39-0.175c0.238-0.191,0.385-0.574,0.527-0.914
	c0.606-1.435,1.302-3.091,1.927-4.482C86.642,114.547,86.763,114.512,86.775,114.539z M85.625,117.961
	c0.493,0.028,1.106,0.038,1.598,0c-0.275-0.62-0.496-1.292-0.779-1.903C86.134,116.656,85.902,117.331,85.625,117.961z"/>
<path fill-rule="evenodd" clip-rule="evenodd" fill="#6D6E71" d="M60.574,120.145c0,0.055,0,0.105,0,0.155
	c-0.045,0.075-0.177,0.041-0.288,0.041c-0.682,0.003-1.492,0.013-2.163-0.022c-0.086-0.25,0.227-0.185,0.407-0.209
	c0.15-0.025,0.299-0.041,0.352-0.16c0.109-0.25-0.091-0.607-0.177-0.836c-0.102-0.269-0.194-0.516-0.272-0.759
	c-0.627,0-1.258,0-1.889,0c-0.102,0.174-0.205,0.447-0.31,0.74c-0.091,0.243-0.271,0.593-0.197,0.798
	c0.044,0.113,0.178,0.16,0.313,0.191c0.131,0.035,0.313-0.003,0.407,0.101c0,0.038,0,0.075,0,0.116
	c-0.05,0.077-0.158,0.041-0.231,0.041c-0.574,0.009-1.282,0.005-1.852-0.022c-0.031-0.191,0.017-0.134,0.139-0.194
	c0.199-0.099,0.365-0.106,0.523-0.31c0.125-0.161,0.209-0.412,0.313-0.642c0.563-1.283,1.143-2.651,1.715-3.957
	c0.102-0.234,0.174-0.48,0.29-0.664c0.211-0.09,0.211,0.101,0.294,0.313c0.514,1.317,1.013,2.583,1.558,3.894
	c0.084,0.2,0.194,0.438,0.31,0.686C59.984,119.799,60.142,120.109,60.574,120.145z M56.682,117.961c0.49,0.031,1.104,0.038,1.595,0
	c-0.275-0.607-0.49-1.286-0.778-1.891c0-0.009-0.003-0.019-0.021-0.012C57.198,116.675,56.948,117.326,56.682,117.961z"/>
<path fill-rule="evenodd" clip-rule="evenodd" fill="#6D6E71" d="M134.669,120.145c0,0.055,0,0.105,0,0.155
	c-0.044,0.075-0.179,0.041-0.291,0.041c-0.676,0.003-1.492,0.013-2.16-0.022c-0.089-0.266,0.262-0.182,0.446-0.209
	c0.34-0.06,0.387-0.26,0.272-0.648c-0.106-0.366-0.31-0.739-0.409-1.106c-0.629,0-1.258,0-1.891,0c-0.1,0.164-0.2,0.434-0.311,0.721
	c-0.093,0.249-0.257,0.595-0.194,0.798c0.044,0.136,0.17,0.175,0.313,0.209c0.13,0.035,0.307-0.003,0.409,0.101
	c0,0.038,0,0.075,0,0.116c-0.05,0.077-0.16,0.041-0.236,0.041c-0.571,0.009-1.279,0.005-1.847-0.022
	c-0.036-0.195,0.019-0.134,0.136-0.194c0.202-0.099,0.363-0.114,0.504-0.288c0.258-0.316,0.432-0.911,0.604-1.308
	c0.569-1.306,1.185-2.722,1.717-3.976c0.225-0.09,0.225,0.088,0.31,0.313c0.512,1.324,1.022,2.607,1.579,3.894
	c0.144,0.341,0.374,1.105,0.7,1.29C134.442,120.118,134.584,120.1,134.669,120.145z M130.774,117.961
	c0.491,0.031,1.109,0.038,1.598,0c-0.264-0.62-0.518-1.261-0.757-1.903c-0.02,0-0.039,0-0.061,0
	C131.309,116.703,131.024,117.318,130.774,117.961z"/>
<path fill-rule="evenodd" clip-rule="evenodd" fill="#6D6E71" d="M13.577,114.594c0.421,0,0.842,0,1.265,0
	c0.294,0.243,0.485,0.591,0.662,0.936c0.36,0.697,0.668,1.456,0.974,2.218c0.151,0.38,0.302,0.754,0.468,1.113
	c0.574-1.377,1.148-2.757,1.598-4.266c0.559,0.014,1.169-0.028,1.695,0.022c0.091,0.3-0.255,0.155-0.487,0.25
	c-0.302,0.131-0.232,0.574-0.197,1.011c0.082,1.023,0.149,2.088,0.256,3.158c0.041,0.407,0.086,0.922,0.307,1.033
	c0.158,0.075,0.399,0.013,0.529,0.097c0,0.044,0,0.088,0,0.135c-0.039,0.075-0.192,0.041-0.292,0.041
	c-0.588,0.003-1.252,0.025-1.871,0c-0.075-0.006-0.219,0.047-0.252-0.06c-0.059-0.213,0.189-0.144,0.39-0.172
	c0.141-0.025,0.29-0.072,0.332-0.138c0.117-0.188,0.023-0.712,0-1.033c-0.077-1.014-0.188-2.082-0.255-3.021
	c-0.096,0.019-0.127,0.144-0.155,0.216c-0.521,1.29-1.05,2.657-1.557,3.991c-0.156,0.009-0.286,0.041-0.449,0.041
	c-0.534-1.449-1.088-2.873-1.755-4.189c-0.12,0.853-0.183,1.999-0.25,3.06c-0.021,0.29-0.114,0.817,0.034,0.975
	c0.083,0.081,0.239,0.081,0.352,0.099c0.133,0.014,0.287-0.018,0.37,0.075c0,0.031,0,0.065,0,0.097
	c-0.023,0.1-0.165,0.06-0.233,0.06c-0.593,0.025-1.346,0-1.928-0.022c0-0.041,0-0.089,0-0.134c0.087-0.101,0.405-0.06,0.564-0.135
	c0.265-0.131,0.29-0.625,0.333-1.07c0.094-1.011,0.196-2.013,0.291-3.042c0.017-0.21,0.083-0.448,0.06-0.604
	c-0.027-0.157-0.231-0.419-0.41-0.485c-0.133-0.05-0.28-0.008-0.41-0.056C13.566,114.728,13.532,114.62,13.577,114.594z"/>
<path fill-rule="evenodd" clip-rule="evenodd" fill="#6D6E71" d="M21.288,114.594c0.798,0.014,1.649-0.028,2.417,0.022
	c0.062,0.243-0.092,0.192-0.253,0.209c-0.143,0.022-0.252,0.025-0.332,0.082c-0.221,0.153-0.195,0.75-0.195,1.186
	c0,0.974,0,1.793,0,2.767c0,0.46-0.031,1.096,0.234,1.208c0.022,0.008,0.167,0.028,0.333,0.057c0.143,0.025,0.279,0,0.213,0.156
	c-0.031,0.084-0.031,0.053-0.119,0.06c-0.681,0.056-1.386,0.009-2.042,0c-0.089,0-0.208,0.035-0.272-0.041
	c-0.055-0.208,0.124-0.177,0.252-0.191c0.136-0.019,0.261-0.009,0.351-0.082c0.204-0.16,0.175-0.745,0.175-1.207
	c0-0.909,0-1.771,0-2.728c0-0.416,0.03-1.036-0.175-1.186c-0.133-0.099-0.46-0.075-0.603-0.099c0-0.052,0-0.104,0-0.155
	C21.269,114.628,21.266,114.594,21.288,114.594z"/>
<path fill-rule="evenodd" clip-rule="evenodd" fill="#6D6E71" d="M28.925,114.594c0.806,0.014,1.662-0.028,2.434,0.022
	c0,0.05,0,0.103,0,0.155c-0.069,0.077-0.236,0.042-0.351,0.055c-0.1,0.017-0.225,0.038-0.29,0.1
	c-0.175,0.16-0.158,0.815-0.158,1.227c0,0.862,0,1.791,0,2.727c0,0.416-0.008,1.033,0.194,1.17c0.099,0.062,0.167,0.05,0.351,0.075
	c0.097,0.016,0.332-0.033,0.253,0.156c-0.033,0.084-0.031,0.053-0.119,0.06c-0.683,0.056-1.402,0.009-2.062,0
	c-0.089,0-0.209,0.035-0.273-0.041c-0.052-0.219,0.128-0.157,0.255-0.175c0.114-0.013,0.255-0.03,0.329-0.075
	c0.221-0.143,0.216-0.739,0.216-1.189c0-0.936,0-1.83,0-2.801c0-0.415,0.001-1.039-0.216-1.172c-0.138-0.089-0.449-0.05-0.583-0.078
	c0-0.052,0-0.104,0-0.155C28.901,114.628,28.901,114.594,28.925,114.594z"/>
<path fill-rule="evenodd" clip-rule="evenodd" fill="#6D6E71" d="M38.759,114.594c0.46,0.072,1.023-0.104,1.462,0.022
	c0.175,0.047,0.382,0.269,0.548,0.447c0.479,0.512,0.923,1.04,1.363,1.556c0.31,0.37,0.615,0.712,0.896,1.052
	c0.299,0.363,0.582,0.717,0.895,1.053c0.069-0.13,0.023-0.308,0.021-0.469c-0.013-0.828,0.014-1.629-0.021-2.531
	c-0.013-0.275-0.025-0.698-0.192-0.817c-0.117-0.084-0.319-0.075-0.488-0.099c-0.03-0.005-0.127,0.034-0.138-0.038
	c0-0.047,0-0.096,0-0.139c0.053-0.072,0.172-0.038,0.253-0.038c0.512-0.009,1.114-0.028,1.657,0c0.06,0,0.193-0.042,0.213,0.06
	c0.052,0.194-0.147,0.16-0.236,0.172c-0.114,0.022-0.233,0.022-0.329,0.082c-0.252,0.156-0.213,0.787-0.213,1.207
	c0,1.391,0,2.942,0,4.227c-0.106,0.013-0.183,0.078-0.294,0.06c-0.158-0.035-0.373-0.41-0.504-0.585
	c-1.077-1.399-2.375-2.82-3.509-4.091c-0.033,0.979-0.03,2.261,0,3.352c0.012,0.331-0.003,0.858,0.213,0.974
	c0.075,0.034,0.2,0.034,0.391,0.06c0.164,0.016,0.31,0.034,0.252,0.172c-0.03,0.077-0.021,0.053-0.094,0.06
	c-0.516,0.053-1.106,0-1.598,0c-0.102,0-0.199,0.003-0.292,0c-0.072,0-0.185,0.035-0.233-0.041c-0.053-0.21,0.147-0.182,0.272-0.191
	c0.144-0.019,0.272-0.009,0.369-0.082c0.194-0.141,0.179-0.595,0.194-1.033c0.031-0.791,0.02-1.626,0.02-2.414
	c0-0.468,0.083-1.08-0.06-1.404c-0.124-0.28-0.494-0.369-0.834-0.369c0-0.052,0-0.104,0-0.155
	C38.739,114.628,38.739,114.594,38.759,114.594z"/>
<path fill-rule="evenodd" clip-rule="evenodd" fill="#6D6E71" d="M48.073,114.594c0.421,0.077,1.062-0.11,1.479,0.022
	c0.172,0.05,0.343,0.285,0.505,0.463c0.775,0.858,1.531,1.72,2.28,2.592c0.304,0.354,0.565,0.734,0.895,1.053
	c0.025-0.842,0.005-2.036-0.019-3.041c-0.008-0.297-0.021-0.683-0.233-0.797c-0.122-0.064-0.29-0.055-0.449-0.078
	c-0.03-0.005-0.127,0.034-0.135-0.038c0-0.047,0-0.096,0-0.139c0.048-0.072,0.158-0.038,0.234-0.038
	c0.584-0.013,1.309-0.006,1.888,0.022c-0.011,0.069,0.011,0.092,0,0.134c-0.026,0.089-0.039,0.042-0.117,0.058
	c-0.105,0.017-0.318,0.031-0.41,0.078c-0.274,0.139-0.254,0.775-0.254,1.185c0,1.412,0,2.942,0,4.27
	c-0.102,0.013-0.185,0.082-0.289,0.06c-0.125-0.028-0.412-0.466-0.509-0.585c-1.052-1.33-2.147-2.565-3.254-3.839
	c-0.072-0.083-0.13-0.213-0.25-0.233c0.016,0.989-0.053,2.248,0,3.39c0.016,0.313,0.034,0.801,0.216,0.917
	c0.091,0.06,0.172,0.031,0.388,0.06c0.141,0.014,0.308,0.028,0.252,0.172c-0.031,0.077-0.019,0.053-0.099,0.06
	c-0.681,0.072-1.488-0.038-2.104-0.022c-0.05-0.213,0.096-0.195,0.235-0.209c0.131-0.019,0.272-0.003,0.368-0.06
	c0.36-0.204,0.236-1.606,0.236-2.202c0-0.451,0.019-0.843,0.019-1.209c0-0.614,0.109-1.456-0.255-1.693
	c-0.15-0.097-0.461-0.122-0.64-0.136c0-0.052,0-0.104,0-0.155C48.049,114.628,48.049,114.594,48.073,114.594z"/>
<path fill-rule="evenodd" clip-rule="evenodd" fill="#6D6E71" d="M67.178,114.594c0.701,0.022,1.459-0.028,2.184,0
	c0.073,0,0.212-0.044,0.252,0.06c0.051,0.209-0.171,0.163-0.252,0.172c-0.128,0.022-0.265,0.022-0.351,0.082
	c-0.227,0.156-0.194,0.779-0.194,1.186c0,0.93,0,1.793,0,2.767c0,0.46-0.017,1.1,0.231,1.208c0.088,0.038,0.197,0.023,0.313,0.041
	c0.13,0.014,0.229,0.003,0.252,0.094c0.056,0.216-0.353,0.138-0.524,0.138c-0.701,0-1.314,0.016-1.931-0.022
	c-0.049-0.213,0.1-0.194,0.235-0.209c0.138-0.019,0.273-0.003,0.369-0.082c0.197-0.153,0.189-0.776,0.195-1.207
	c0.014-0.928,0.031-1.798,0-2.762c-0.012-0.407,0.002-1.039-0.214-1.172c-0.139-0.089-0.452-0.05-0.585-0.078
	c0-0.052,0-0.104,0-0.155C67.158,114.628,67.157,114.594,67.178,114.594z"/>
<path fill-rule="evenodd" clip-rule="evenodd" fill="#6D6E71" d="M77.014,114.594c0.431,0.077,1.06-0.11,1.484,0.022
	c0.144,0.042,0.373,0.278,0.523,0.447c0.776,0.852,1.532,1.734,2.258,2.607c0.307,0.363,0.576,0.726,0.898,1.053
	c0.016-0.842,0.033-2.011-0.019-3c-0.014-0.299,0.003-0.681-0.194-0.817c-0.173-0.122-0.421-0.044-0.624-0.116
	c0-0.055,0-0.106,0-0.16c0.051-0.072,0.161-0.038,0.233-0.038c0.588-0.013,1.308-0.006,1.891,0.022
	c-0.008,0.069,0.016,0.092,0,0.134c-0.031,0.097-0.118,0.058-0.235,0.075c-0.086,0.016-0.208,0.014-0.272,0.041
	c-0.286,0.131-0.264,0.773-0.272,1.167c-0.041,1.424,0.03,2.967,0,4.307c-0.106,0.013-0.185,0.082-0.292,0.06
	c-0.119-0.028-0.419-0.474-0.505-0.585c-1.045-1.339-2.141-2.579-3.255-3.839c-0.072-0.08-0.128-0.213-0.253-0.233
	c0.043,1.019-0.055,2.223,0,3.39c0.016,0.3,0.043,0.801,0.214,0.917c0.102,0.066,0.399,0.031,0.567,0.075
	c0.072,0.02,0.087,0.009,0.095,0.097c0.019,0.194-0.302,0.119-0.486,0.119c-0.563,0-0.935,0.009-1.482,0
	c-0.083,0-0.197,0.035-0.25-0.041c-0.049-0.219,0.103-0.155,0.231-0.175c0.109-0.013,0.252-0.019,0.335-0.057
	c0.403-0.175,0.26-1.485,0.29-2.202c0.017-0.449,0-0.872,0-1.248c0-0.585,0.103-1.374-0.194-1.637
	c-0.15-0.125-0.493-0.16-0.704-0.174c0-0.052,0-0.104,0-0.155C76.994,114.628,76.993,114.594,77.014,114.594z"/>
<path fill-rule="evenodd" clip-rule="evenodd" fill="#6D6E71" d="M90.085,114.594c0.728,0.034,1.427-0.044,2.222,0
	c0.136,0.006,0.207-0.031,0.232,0.077c0.037,0.152-0.11,0.143-0.254,0.155c-0.147,0.022-0.288,0.025-0.347,0.061
	c-0.23,0.13-0.218,0.744-0.218,1.172c0.003,0.93,0,1.839,0,2.762c0,0.449,0.005,1.028,0.255,1.128
	c0.167,0.069,0.837,0.05,1.07,0.022c0.391-0.053,0.668-0.366,0.818-0.701c0.031-0.069,0.055-0.204,0.097-0.291
	c0.038-0.089,0.041-0.213,0.214-0.158c0.074,0.034,0.039,0.143,0.039,0.192c-0.013,0.435-0.119,0.959-0.216,1.327
	c-1.219-0.03-2.49,0.036-3.739,0c-0.06,0-0.158,0.036-0.194-0.041c-0.047-0.2,0.102-0.177,0.233-0.191
	c0.126-0.019,0.26-0.003,0.351-0.06c0.217-0.138,0.205-0.751,0.213-1.189c0.022-0.936,0.03-1.826,0-2.801
	c-0.011-0.404,0.008-1.035-0.213-1.172c-0.139-0.089-0.449-0.05-0.583-0.078c0-0.052,0-0.104,0-0.155
	C90.065,114.628,90.063,114.594,90.085,114.594z"/>
<path fill-rule="evenodd" clip-rule="evenodd" fill="#6D6E71" d="M97.253,114.594c1.229,0,2.454,0,3.681,0
	c0.039,0.335,0.041,0.789-0.036,1.169c-0.026,0.114-0.033,0.271-0.216,0.213c-0.06-0.048-0.049-0.135-0.057-0.192
	c-0.029-0.192-0.062-0.426-0.177-0.567c-0.307-0.374-1.022-0.192-1.56-0.138c0,0.75,0,1.498,0,2.241
	c0.458-0.001,0.979,0.099,1.269-0.097c0.1-0.069,0.114-0.15,0.153-0.231c0.036-0.075,0.021-0.227,0.216-0.18
	c0.069,0.029,0.042,0.146,0.036,0.195c-0.009,0.305-0.041,0.708-0.056,1.055c-0.008,0.138,0.034,0.282-0.036,0.39
	c-0.048,0-0.095,0-0.141,0c-0.072-0.047-0.053-0.189-0.079-0.292c-0.017-0.105-0.041-0.2-0.094-0.272
	c-0.226-0.297-0.782-0.147-1.269-0.194c0.004,0.355-0.003,0.814,0,1.287c0.004,0.366-0.027,0.917,0.197,1.07
	c0.093,0.062,0.233,0.045,0.37,0.06c0.111,0.009,0.25-0.009,0.33,0.075c0,0.038,0,0.075,0,0.116
	c-0.042,0.075-0.178,0.041-0.291,0.041c-0.709,0.003-1.556,0.013-2.261-0.022c-0.042-0.2,0.061-0.185,0.255-0.209
	c0.121-0.018,0.235-0.003,0.33-0.06c0.232-0.143,0.213-0.751,0.213-1.17c0-0.914,0-1.806,0-2.745c0-0.363,0.038-1.021-0.155-1.208
	c-0.125-0.122-0.429-0.086-0.643-0.117C97.245,114.742,97.211,114.628,97.253,114.594z"/>
<path fill-rule="evenodd" clip-rule="evenodd" fill="#6D6E71" d="M111.92,117.577c0.338,0.629,0.71,1.379,1.189,1.964
	c0.209,0.258,0.418,0.498,0.781,0.568c0.116,0.047,0.163-0.025,0.192,0.094c0.038,0.15-0.116,0.141-0.253,0.155
	c-0.127,0.018-0.288,0.018-0.369,0.021c-0.305,0.025-0.498,0.088-0.72,0.022c-0.211-0.066-0.377-0.329-0.526-0.548
	c-0.303-0.441-0.521-0.861-0.76-1.343c-0.083-0.166-0.241-0.559-0.427-0.623c-0.196-0.069-0.515,0.011-0.683-0.02
	c0.008,0.361-0.019,0.77,0,1.189c0.008,0.317-0.008,0.851,0.191,0.994c0.083,0.056,0.28,0.066,0.393,0.075
	c0.119,0.016,0.324-0.049,0.271,0.175c-0.041,0.075-0.18,0.041-0.291,0.041c-0.698,0.003-1.527,0.013-2.221-0.022
	c-0.038-0.25,0.084-0.172,0.216-0.194c0.106-0.016,0.265-0.013,0.349-0.057c0.257-0.124,0.235-0.729,0.235-1.17
	c0-0.967,0-1.803,0-2.764c0-0.44,0.022-1.061-0.177-1.208c-0.062-0.043-0.2-0.062-0.309-0.078c-0.116-0.016-0.291,0.031-0.314-0.077
	c-0.044-0.177,0.053-0.124,0.197-0.139c0.191-0.019,0.585-0.031,0.757-0.038c1.64-0.078,3.348-0.06,3.293,1.52
	C112.906,116.854,112.5,117.226,111.92,117.577z M111.415,117.495c0.42-0.131,0.662-0.857,0.604-1.461
	c-0.082-0.827-0.811-1.268-1.675-0.955c0,0.814,0,1.625,0,2.437C110.745,117.47,111.124,117.589,111.415,117.495z"/>
<path fill-rule="evenodd" clip-rule="evenodd" fill="#6D6E71" d="M114.588,114.594c1.248,0,2.495,0,3.741,0
	c0.035,0.36,0.016,0.823-0.06,1.169c-0.023,0.108-0.012,0.277-0.194,0.213c-0.105-0.092-0.057-0.243-0.077-0.349
	c-0.043-0.225-0.164-0.468-0.372-0.563c-0.38-0.181-0.93-0.012-1.401,0.016c0,0.714,0,1.434,0,2.144
	c0.453,0,0.947,0.104,1.244-0.075c0.111-0.067,0.135-0.154,0.179-0.236c0.034-0.071,0.022-0.229,0.212-0.177
	c0.074,0.032,0.042,0.144,0.04,0.194c-0.013,0.297-0.044,0.695-0.058,1.033c-0.006,0.136,0.039,0.29-0.038,0.393
	c-0.249,0.077-0.178-0.15-0.214-0.312c-0.131-0.532-0.691-0.417-1.365-0.43c0.006,0.417-0.009,0.82,0,1.285
	c0.009,0.379,0.006,0.913,0.253,1.033c0.287,0.141,1.197,0.019,1.382-0.094c0.219-0.143,0.354-0.344,0.446-0.607
	c0.031-0.075,0.031-0.173,0.1-0.234c0.045,0,0.092,0,0.135,0c0.087,0.077,0.028,0.241,0.022,0.351
	c-0.03,0.338-0.094,0.701-0.175,0.995c-1.268-0.013-2.584,0.025-3.819-0.022c-0.042-0.26,0.1-0.174,0.233-0.194
	c0.114-0.016,0.266-0.025,0.352-0.075c0.224-0.143,0.211-0.748,0.211-1.17c0-0.967,0-1.791,0-2.766c0-0.427,0.012-1.06-0.174-1.207
	c-0.133-0.11-0.444-0.067-0.623-0.099c0-0.052,0-0.104,0-0.155C114.57,114.628,114.565,114.594,114.588,114.594z"/>
<path fill-rule="evenodd" clip-rule="evenodd" fill="#6D6E71" d="M123.88,114.594c1.579,0,3.156,0,4.732,0
	c0.092,0.469,0.163,1.058,0.138,1.574c-0.253,0.058-0.226-0.065-0.294-0.291c-0.087-0.297-0.217-0.664-0.485-0.798
	c-0.396-0.194-0.77-0.006-1.304-0.016c0,1.205,0,2.537,0,3.855c0,0.349-0.016,0.973,0.172,1.109
	c0.058,0.041,0.235,0.062,0.373,0.082c0.182,0.019,0.299-0.009,0.312,0.113c0.013,0.153-0.083,0.108-0.235,0.119
	c-0.703,0.038-1.36,0.003-2.044,0c-0.092,0-0.238,0.035-0.292-0.041c-0.058-0.208,0.152-0.182,0.252-0.191
	c0.122-0.018,0.272-0.009,0.373-0.06c0.236-0.131,0.231-0.704,0.231-1.07c0-1.276,0-2.727,0-3.9
	c-0.466-0.053-1.039-0.17-1.363,0.042c-0.28,0.18-0.382,0.565-0.485,0.913c-0.014,0.047,0.016,0.125-0.061,0.134
	c-0.052,0-0.105,0-0.156,0c-0.072-0.022-0.038-0.124-0.038-0.174c0.011-0.415,0.089-0.947,0.136-1.341
	C123.841,114.62,123.857,114.6,123.88,114.594z"/>
<path fill-rule="evenodd" clip-rule="evenodd" fill="#6D6E71" d="M135.234,114.594c0.708,0.011,1.454-0.013,2.185,0
	c0.075,0,0.192-0.035,0.253,0.038c-0.008,0.055,0.01,0.092,0,0.119c-0.031,0.089-0.05,0.042-0.136,0.058
	c-0.118,0.017-0.365,0.031-0.448,0.078c-0.227,0.13-0.216,0.681-0.216,1.131c0,0.983,0,1.697,0,2.684
	c0,0.327-0.047,1.089,0.216,1.229c0.169,0.092,0.87,0.069,1.106,0.041c0.473-0.06,0.706-0.457,0.859-0.876
	c0.039-0.105,0.066-0.335,0.272-0.274c0.074,0.034,0.039,0.139,0.038,0.192c-0.012,0.438-0.125,0.955-0.213,1.327
	c-1.222-0.03-2.492,0.036-3.739,0c-0.06,0-0.161,0.036-0.194-0.041c-0.052-0.229,0.117-0.157,0.231-0.175
	c0.155-0.019,0.307-0.035,0.39-0.114c0.194-0.185,0.157-0.792,0.157-1.229c0-0.961,0-1.762,0-2.723c0-0.452,0.02-1.035-0.194-1.172
	c-0.139-0.089-0.424-0.047-0.583-0.078c0-0.052,0-0.104,0-0.155C135.215,114.628,135.215,114.594,135.234,114.594z"/>
<path fill-rule="evenodd" clip-rule="evenodd" fill="#6D6E71" d="M90.049,20.844c0-0.022,0.018-0.01,0.018,0
	c0.039,0.012,0.048-0.035,0.019-0.038c0.025-0.06,0.089,0.034,0.039,0.059c0.06,0.022,0.044-0.178,0.019-0.117
	c-0.021,0.105-0.021-0.077,0-0.099c-0.073,0-0.036,0.072-0.037,0.082c-0.036,0.07-0.003-0.044-0.039-0.119
	c-0.062,0.044-0.033-0.062-0.018-0.097c0.052-0.016-0.016,0.088,0.036,0.08c-0.003-0.124,0.053-0.116-0.08-0.1
	c-0.004-0.052,0.077-0.016,0.062-0.08c0.02-0.087-0.074,0.041-0.062-0.059c0.11,0.011-0.016-0.032-0.016-0.032
	c-0.003-0.019,0.038-0.029,0.036-0.062c0-0.016-0.036-0.038-0.036-0.06c-0.023-0.263-0.033-0.543-0.062-0.857
	c-0.053-0.607-0.034-1.476-0.094-2.24c-0.03-0.333,0-0.728,0-1.109c0-0.385-0.016-0.77,0-1.111c0.025-0.585,0.2-1.012,0.507-1.208
	c0.396-0.252,1.091-0.188,1.421,0.099c0.487,0.427,0.387,1.54,0.428,2.456c0.084,1.837,0.07,3.756,0.177,5.646
	c0.016,0.354,0.119,0.713,0.194,1.055c0.221,0.97,0.524,1.972,0.916,2.766c0.038-7.34,0.021-15.142,0.021-22.616
	c0-0.507-0.035-1.012,0-1.499c0.061-0.896,0.79-1.64,1.809-1.578c0.413,0.025,0.928,0.255,1.131,0.544
	c0.044,0.066,0.008,0.058,0.057,0.157c0.12-0.038,0.034,0.131,0.099,0.058c0.02,0.028-0.104,0.089-0.116,0
	c-0.019,0.071,0.014,0.102,0.038,0.174c0.072,0.008-0.012-0.169,0.099-0.094c-0.095-0.009,0,0.222-0.119,0.094
	c-0.013,10.251,0.029,20.727-0.018,31.012c0.008,0.084,0.025-0.045,0.057,0.038c-0.033,0.025-0.005,0.089-0.019,0.135
	c-0.014,0.053-0.106,0.139-0.038,0.1c-0.325,0.74-0.804,1.609-1.17,2.432c-0.548-1.024-1.03-2.096-1.576-3.193
	c-0.08-0.163-0.207-0.304-0.233-0.444c-0.067-0.361,0-0.77,0-1.133c0-0.16,0-0.366,0-0.566c0-0.175,0.041-0.404,0-0.544
	c-0.045-0.138-0.341-0.316-0.47-0.449c-0.444-0.443-0.837-0.798-1.222-1.282c-0.028-0.035-0.111-0.062-0.062-0.121
	c-0.03,0.019-0.227-0.105-0.155-0.211c-0.039,0.038-0.082,0.044-0.039-0.021c-0.086,0.019-0.221-0.202-0.157-0.232
	c-0.022-0.019-0.053-0.019-0.078-0.039c0.056-0.066-0.084-0.058-0.017-0.155c-0.007-0.088-0.093,0.022-0.082-0.062
	c0-0.106-0.058-0.132-0.036-0.191c-0.052-0.012,0.036-0.053,0.019-0.1c-0.096,0.08-0.093,0.038-0.136-0.039
	c0.017-0.05,0.045,0.042,0.058,0.058c0.069-0.108-0.061-0.179,0-0.346c-0.109-0.067,0.044-0.205-0.099-0.117
	c0.106-0.148-0.058-0.244-0.017-0.469c-0.128-0.27-0.104-0.784-0.253-1.033c0.016-0.067,0.016-0.235-0.06-0.271
	c0.05-0.071-0.044-0.196,0.017-0.274c-0.036-0.027-0.078-0.053-0.094-0.097c0.013-0.288-0.083-0.357-0.078-0.643
	c0.028-0.074-0.086-0.005-0.058-0.08c0.014-0.108-0.056-0.203-0.078-0.312c-0.027-0.126-0.006-0.25-0.022-0.33
	c0.003,0.009-0.031-0.16-0.036-0.055c-0.042-0.1-0.006-0.236-0.021-0.355c-0.025,0.006-0.013,0.05-0.019,0.082
	c-0.066-0.031,0.045-0.119-0.039-0.119c-0.1-0.013,0.05-0.016,0.019-0.079c-0.009-0.041-0.045-0.056-0.039-0.114
	c0.021-0.067-0.025-0.064-0.077-0.061c0.038-0.053,0.023-0.194,0-0.253c-0.042-0.044-0.048,0.036-0.078,0.06
	c-0.036-0.027,0.065-0.075,0.058-0.135c-0.003,0.016-0.117,0.042-0.076-0.041C90.067,20.862,90.063,20.853,90.049,20.844z
	 M96.417,0.606c-0.003-0.021,0.026-0.028,0-0.039C96.353,0.665,96.518,0.574,96.417,0.606z M96.417,32.221
	c0.023-0.031,0.048-0.057,0.075-0.075C96.428,32.121,96.381,32.273,96.417,32.221z M91.156,25.734
	c-0.03,0.004-0.016,0.047-0.016,0.077C91.168,25.805,91.156,25.766,91.156,25.734z M90.885,24.218
	C90.93,24.315,90.937,24.147,90.885,24.218L90.885,24.218z M91.098,25.266c-0.008-0.025-0.021-0.041-0.038-0.056
	C91.057,25.235,91.09,25.315,91.098,25.266z M91.236,26.124c0.004-0.016,0.014-0.023,0.039-0.019
	c-0.003-0.038-0.014-0.065-0.039-0.078C91.245,26.061,91.178,26.108,91.236,26.124z"/>
<path fill-rule="evenodd" clip-rule="evenodd" fill="#6D6E71" d="M92.131,5.943c-0.141,0.038-0.11-0.242-0.271-0.252
	c-0.009-0.031,0.014-0.034,0.036-0.041c-0.021-0.038-0.108-0.058-0.056-0.116c-0.105-0.084-0.163-0.216-0.235-0.332
	c-0.005-0.021-0.036-0.016-0.058-0.019c0.031-0.061-0.055-0.097-0.077-0.135c-0.009-0.012,0.027-0.023,0.019-0.041
	c-0.052-0.091-0.146-0.229-0.235-0.31c-0.019-0.019-0.052-0.026-0.077-0.041c0.013-0.141-0.125-0.221-0.117-0.294
	c-0.003-0.039-0.049-0.039-0.099-0.037c0.047-0.147-0.099-0.11-0.077-0.232c-0.143-0.081-0.108-0.169-0.196-0.275
	c-0.066-0.022-0.031,0.062-0.039,0.1c-0.064-0.006-0.047-0.148,0.02-0.134c-0.068-0.091-0.083-0.248-0.136-0.354
	c-0.042,0.025,0.053,0.153,0,0.194c-0.049-0.003,0.025-0.031,0-0.075c-0.044,0.102-0.061-0.141,0-0.175
	c-0.016-0.566,0.241-0.999,0.74-1.075c0.729-0.108,1.16,0.283,1.227,0.878c0.069,0.629-0.006,1.348,0.058,2.064
	c0.016,0.161,0.05,0.458,0.058,0.646c0.001,0.072-0.023,0.157-0.021,0.232c0.003,0.023,0.034,0.031,0.042,0.058
	c0.027,0.167-0.016,0.352,0.019,0.47c0.003,0.045-0.033,0.058-0.061,0.077c0.021,0.055,0.053-0.028,0.08,0.02
	c0.003,0.088,0.009,0.177-0.08,0.172c0.072-0.042,0.044-0.069,0.061-0.172c-0.023,0.002-0.017,0.035-0.019,0.058
	c-0.122-0.097-0.131-0.297-0.273-0.371c0.039-0.092-0.102-0.108-0.041-0.155C92.239,6.198,92.092,6.089,92.131,5.943z M90.613,3.509
	c-0.033,0-0.011-0.053-0.038-0.058C90.556,3.489,90.604,3.56,90.613,3.509z M90.826,3.998C90.893,4.056,90.885,3.926,90.826,3.998
	L90.826,3.998z"/>
<path fill-rule="evenodd" clip-rule="evenodd" fill="#6D6E71" d="M90.553,3.625c0.105-0.05-0.053,0.106,0.022,0.138
	c-0.064,0.056-0.064-0.089-0.041-0.138C90.553,3.663,90.602,3.663,90.553,3.625z"/>
<path fill-rule="evenodd" clip-rule="evenodd" fill="#6D6E71" d="M96.848,21.722c0-0.021,0.014-0.011,0.014,0
	c0.049-0.881,0.011-1.849,0.021-2.764c0.498-0.782,0.865-1.906,1.13-3.023c0.089-0.365,0.207-0.762,0.234-1.144
	c0.042-0.568,0.032-1.158,0.058-1.717c0.084-1.751,0.094-3.551,0.177-5.316c0.003-0.1-0.011-0.229,0-0.351
	c0.051-0.569,0.427-0.999,0.973-1.055c0.869-0.087,1.269,0.454,1.324,1.287c0.023,0.351,0,0.76,0,1.167c0,0.404,0.016,0.817,0,1.172
	c-0.017,0.368,0.01,0.798-0.037,1.187c-0.008,0.042-0.038,0.053-0.039,0.08c-0.016,0.238,0.017,0.482,0,0.717
	c-0.005,0.044-0.035,0.057-0.04,0.104c-0.014,0.081,0.047,0.191-0.02,0.271c0.067,0.005-0.023,0.199,0.02,0.29
	c-0.041,0.013-0.038,0.06-0.08,0.022c0.084,0.039-0.001,0.038,0.06,0.082c-0.016,0.134-0.036,0.354-0.041,0.385
	c-0.008,0.069,0.013,0.15-0.058,0.196c0.019,0.07,0.033,0.158-0.038,0.192c0.034,0.023,0.095,0.008,0,0.041
	c-0.067,0.044,0.1,0.013,0.056,0.097c-0.06,0.017-0.07-0.019-0.092-0.041c-0.011,0.05,0.023,0.069,0.074,0.062
	c-0.067,0.056,0.016,0.038,0,0.133c-0.067,0.018-0.064-0.029-0.038-0.056c-0.036,0.014-0.05,0.052-0.058,0.096
	c-0.013,0.043,0.1-0.085,0.096,0.021c-0.084-0.1-0.041,0.082,0,0.018c-0.03,0.042-0.047,0.051-0.118,0.038
	c0.009,0.034,0.063,0.019,0.044,0.08c-0.022,0-0.019-0.022-0.022-0.038c0.003,0-0.041,0.128-0.022,0.155
	c0.061,0.071,0.096-0.055,0,0.021c-0.023,0.014,0.067,0.118-0.019,0.041c0.019,0.097-0.066,0.132-0.017,0.232
	c-0.013,0.06-0.061,0.084-0.08,0.134c-0.006,0.312-0.135,0.592-0.116,0.781c-0.061,0.016-0.028-0.064-0.077-0.058
	c0.044,0.122,0.039,0.155,0,0.291c0.144,0.031,0.058-0.175,0.116-0.233c0.064-0.014-0.043,0.308-0.039,0.33
	c-0.047-0.033-0.082-0.078-0.118-0.116c0.011,0.109,0,0.131,0.021,0.216c-0.077,0.082-0.042,0.279-0.119,0.368
	c-0.003,0.384-0.18,0.747-0.194,1.188c-0.109,0.153-0.078,0.288-0.116,0.468c-0.011,0.049-0.034,0.014-0.041,0.019
	c-0.003,0.011,0.03,0.033,0.02,0.061c-0.02,0.062-0.058,0.189-0.077,0.308c0.016,0.049,0.057,0.074,0.038,0.155
	c-0.07,0.022-0.012-0.086-0.078-0.075c-0.014,0.078,0.041,0.091,0.041,0.155c-0.055-0.026-0.064,0.105-0.041,0.039
	c0.06,0.006-0.065,0.08,0,0.096c-0.08-0.03-0.014,0.186-0.096,0.216c0.018,0.039,0.058,0.058,0.058,0.116
	c-0.041-0.017-0.07,0.064-0.039,0.058c-0.019,0.065-0.039-0.022-0.061-0.021c0.006,0.047-0.009,0.143,0.022,0.139
	c-0.074,0.006-0.105,0.258-0.177,0.31c-0.017,0.014-0.028,0.014-0.038-0.019c-0.023,0.009,0.009,0.075-0.019,0.119
	c-0.61,0.717-1.291,1.454-2.026,2.084c-0.045,0.036-0.097,0.092-0.158,0.135C96.963,21.688,96.911,21.792,96.848,21.722z
	 M99.494,18.312c0.006,0.034-0.02,0.097,0.038,0.08c0-0.026,0-0.052,0-0.08C99.519,18.312,99.508,18.312,99.494,18.312z
	 M99.222,19.266c-0.007-0.06,0.055,0.05,0.059-0.019c-0.023-0.003-0.014-0.02,0-0.041c-0.022-0.006-0.047-0.019-0.022,0
	C99.261,19.235,99.161,19.247,99.222,19.266z M100.602,12.799c0.005-0.025-0.008-0.072-0.019-0.038
	C100.577,12.79,100.596,12.838,100.602,12.799z M99.979,15.839c0.006-0.027-0.009-0.075-0.019-0.04
	C99.956,15.826,99.975,15.876,99.979,15.839z M99.55,18.177c-0.008-0.022-0.019-0.044-0.037-0.058
	C99.511,18.146,99.542,18.225,99.55,18.177z M99.394,18.857c0.038,0,0.053-0.014,0.061-0.039
	C99.424,18.818,99.388,18.818,99.394,18.857z"/>
<path fill-rule="evenodd" clip-rule="evenodd" fill="#6D6E71" d="M100.471,14.202c0.039,0.003-0.027,0.05,0,0.1
	c0.017-0.003,0.014-0.026,0.017-0.041c0.057,0.014-0.017,0.041,0,0.078C100.446,14.324,100.435,14.236,100.471,14.202z"/>
<path fill-rule="evenodd" clip-rule="evenodd" fill="#6D6E71" d="M70.375,15.041c-0.011,0.025-0.028,0.039-0.06,0.039
	C70.299,15.014,70.344,15.014,70.375,15.041z"/>
<path fill-rule="evenodd" clip-rule="evenodd" fill="#6D6E71" d="M69.556,17.768c0.055,0.042,0.011-0.039,0.058-0.039
	c0.045,0-0.008,0.058-0.019,0.058c0.064,0.008,0.064-0.021,0.08-0.019c0.094,0.005-0.028,0.019-0.021,0.057
	c0.016,0.045,0.039-0.061,0.099-0.038c0.014,0.099,0.125-0.008,0.078,0.099c0.022-0.05,0.064-0.038,0.116-0.022
	c0.038,0.042,0.038,0.019,0,0.06c0.146-0.021,0.287,0.109,0.43,0.156c0.517-0.405,1.545-0.297,2.453-0.312
	c-0.102-0.043-0.008-0.045,0.058-0.02c-0.016-0.03-0.049-0.041-0.096-0.041c0-0.043,0.081-0.004,0.117-0.02
	c0.013-0.07-0.095-0.023-0.138-0.035c-0.052-0.062-0.052-0.17-0.177-0.155c-0.001-0.163-0.174-0.157-0.192-0.296
	c-0.091-0.065-0.177-0.136-0.257-0.213c-0.075-0.077-0.153-0.164-0.192-0.274c-0.096-0.029-0.146-0.1-0.196-0.172
	c-0.004-0.03-0.048-0.019-0.078-0.022c-0.056-0.135-0.191-0.244-0.291-0.351c-0.052-0.055-0.106-0.084-0.136-0.175
	c-0.055-0.011-0.081-0.061-0.119-0.097c-0.144-0.152-0.307-0.341-0.465-0.507c-0.061-0.064-0.139-0.146-0.234-0.157
	c-0.018-0.062,0.017-0.072,0.039-0.097c-0.069,0.038-0.067-0.047-0.175-0.022C70.363,15.1,70.39,15.048,70.432,15
	c0.055,0.029,0.128,0.008,0.194,0c0.216-0.013,0.726,0.003,1.091,0.019c1.349,0.069,2.614,0.388,3.664,0.859
	c0.502,0.227,0.977,0.53,1.441,0.821c0.473,0.29,0.95,0.573,1.384,0.874c1.834,1.261,3.336,2.852,3.895,5.143
	c1.496,0.745,2.935,1.556,4.245,2.513c0.647,0.471,1.263,0.989,1.87,1.518c1.801,1.563,3.371,3.359,4.734,5.399
	c0.908,1.352,1.706,2.836,2.258,4.496c0.365-0.786,0.679-1.569,1.053-2.317c2.431-4.839,6.044-8.567,11.066-10.851
	c0.189-0.086,0.383-0.173,0.579-0.252c0.181-0.072,0.419-0.109,0.547-0.291c-0.017-0.1-0.146,0.016-0.155-0.022
	c-0.011-0.178,0.041-0.374,0.21-0.313c0.034,0.08-0.083,0.01-0.075,0.063c0.51-0.035,0.839-0.448,1.147-0.759
	c0.355-0.358,0.771-0.656,1.229-0.936c0.006,0.1-0.092,0.188-0.156,0.252c-0.205,0.221-0.456,0.435-0.679,0.661
	c-0.302,0.304-0.618,0.595-0.916,0.876c0.717-0.269,1.343-0.667,1.969-1.052c0.62-0.382,1.231-0.77,1.829-1.187
	c-0.86,0.207-1.632,0.666-2.241,1.187c0.006-0.141,0.138-0.222,0.214-0.31c0.429-0.498,0.97-0.896,1.482-1.344
	c0.282-0.25,0.544-0.488,0.757-0.8c-0.842,0.462-1.413,1.199-2.2,1.717c0.696-0.916,1.815-1.407,2.534-2.302
	c0.333-0.066,0.373-0.429,0.739-0.463c0.43-0.557,1.082-0.913,1.637-1.365c0.543-0.448,1.019-1.033,1.52-1.405
	c0,0.064-0.067,0.128-0.118,0.178c-0.158,0.147-0.375,0.294-0.508,0.485c0.247-0.008,0.256-0.253,0.508-0.253
	c-0.004-0.05-0.036-0.06,0-0.094c0.102,0.044,0.006-0.014,0.041-0.041c-0.006,0,0.083-0.044,0.077-0.039
	c0.009-0.008,0.028-0.055,0.038-0.058c0.091-0.016,0.006,0.062,0.041-0.019c-0.003,0,0.028-0.038,0.017-0.022
	c0.072-0.084,0.199-0.138,0.233-0.235c0.08-0.034,0.112-0.082,0.158-0.06c-0.031-0.038,0.003-0.022,0-0.077
	c0.05,0,0.021,0.016,0.02,0.039c-0.017-0.003-0.02,0.011-0.02,0.011c0.017,0,0.034-0.008,0.041-0.031
	c0.082-0.045-0.016,0.065-0.041,0.078c0.031,0.055,0.156-0.139,0.156-0.058c-0.045,0.011-0.057,0.047-0.116,0.097
	c-0.048,0.038-0.105,0.097-0.157,0.08c0.055,0.045-0.031,0.083-0.042,0.017c0.05,0.081-0.045,0.091-0.135,0.16
	c-0.016,0.006-0.022,0.043-0.041,0.056c-0.443,0.31-0.897,0.814-1.285,1.189c0.167,0.022,0.256-0.199,0.427-0.235
	c-0.034,0.116-0.166,0.15-0.25,0.213c-0.089,0.07-0.147,0.153-0.235,0.216c-0.014-0.059,0.036-0.058,0.02-0.116
	c-0.051,0.028-0.104,0.091-0.177,0.153c-0.119,0.104-0.285,0.213-0.292,0.388c-0.192,0.06-0.312,0.244-0.466,0.371
	c-0.46,0.383-0.975,0.774-1.384,1.225c-0.031,0.066-0.045-0.058-0.019-0.055c-0.039-0.004-0.222,0.227-0.272,0.271
	c-0.273,0.238-0.686,0.469-0.916,0.664c1.396-0.604,2.341-1.653,3.584-2.417c0.008-0.06-0.06-0.042-0.038-0.116
	c0.022-0.025,0.091-0.025,0.116,0c0.208-0.373,0.667-0.554,0.994-0.839c0.114-0.096,0.177-0.219,0.293-0.309
	c0.065,0.136-0.138,0.158-0.138,0.293c0.274-0.204,0.552-0.388,0.762-0.609c0.043-0.005,0.078-0.036,0.116,0
	c0.034-0.048,0.038-0.143,0.135-0.174c0.077,0.003,0.108,0.039,0.194,0.039c-0.041,0.058-0.111,0-0.117,0.114
	c-0.025-0.106,0.077-0.081-0.04-0.153c-0.055,0.01-0.067,0.062-0.075,0.118c-0.025,0.056,0.161,0.045,0.038,0.077
	c-0.03,0.103-0.03-0.021-0.038-0.021c-0.06,0.013-0.021,0.028,0,0.099c-0.088,0.066-0.147,0.075-0.155,0.117
	c-0.098,0.061-0.017-0.042-0.019-0.058c0.001,0.016-0.035,0.016-0.039-0.022c-0.008-0.016,0.026-0.031,0-0.058
	c-0.022,0.072-0.022,0.169,0.016,0.196c-0.091,0.034-0.096,0.084-0.135,0.06c-0.016,0.034-0.025,0.072-0.058,0.099
	c-0.026,0.02-0.058-0.002-0.058,0c-0.023,0.008,0,0.02-0.022,0.039c-0.066,0.056-0.136,0.114-0.213,0.175
	c-0.851,0.682-2.062,1.527-2.979,2.277c0.571-0.136,0.967-0.443,1.402-0.721c0.042-0.041,0.064,0.051,0.157,0.02
	c0.587-0.238,1.022-0.681,1.5-1.052c0.227-0.18,0.439-0.355,0.701-0.524c0.031-0.022,0.051-0.091,0.098-0.038
	c-0.014-0.082,0.036-0.035,0.077-0.119c0.102-0.026,0.094-0.047,0.158-0.116c0.069,0.003-0.044,0.062,0.016,0.058
	c0.06-0.027-0.009-0.114,0.097-0.116c0.023,0.108-0.111,0.116-0.077,0.213c0.077-0.039-0.035-0.126,0.114-0.077
	c-0.042,0.011-0.044,0.077-0.094,0.114c-0.015,0.008-0.069,0-0.099,0.021c-0.033,0.022-0.035,0.069-0.057,0.078
	c0.01-0.003-0.102-0.001-0.08-0.019c-0.028,0.019,0.028,0.025-0.021,0.078c-0.05,0.056-0.174,0.084-0.274,0.153
	c-0.266,0.189-0.585,0.417-0.912,0.626c-0.027,0.06,0.033,0.06,0,0.114c-0.038,0.064-0.219,0.08-0.213,0.196
	c0.167-0.019,0.277-0.15,0.386-0.25c0.219-0.21,0.468-0.377,0.739-0.549c0.127-0.077,0.266-0.161,0.412-0.194
	c0.019-0.038,0.169-0.18,0.291-0.118c-0.058,0.1-0.169,0.144-0.253,0.214c0.069,0.039,0.131-0.02,0.174-0.039
	c0.061-0.019,0.1,0.005,0.12-0.058c0.03,0.011-0.011,0.026,0,0.058c0.042-0.064,0.091-0.111,0.193-0.078
	c-0.031-0.057,0.039-0.028,0.08-0.075c0.033,0.042-0.048,0.124-0.117,0.075c0.028,0.064-0.082,0.048-0.099,0.06
	c-0.042,0.023-0.138,0.1-0.177,0.041c-0.066,0.006,0.072,0.053,0,0.056c-0.351,0.116-0.834,0.379-1.127,0.683
	c0.391-0.141,0.77-0.297,1.111-0.487c0.075-0.034,0.178-0.055,0.233-0.138c0.013,0.053,0.009,0.005,0.058,0.041
	c0.052-0.058-0.038-0.026,0-0.077c0.075,0.003,0.119-0.077,0.08,0.019c0.066-0.006,0.038-0.104,0.092-0.119
	c0.028-0.047,0.075,0.022,0.08-0.019c0.067-0.011-0.083-0.041,0.021-0.039c0.014,0.017,0.034,0.028,0.059,0.039
	c0.041-0.088-0.025,0.119-0.08,0.119c0.011-0.003,0.125,0.021,0.119,0.019c0.041,0.004-0.021,0.069-0.06,0.058
	c0.045,0.023,0.103,0.008,0.099-0.058c0.07,0.043-0.057,0.124-0.118,0.173c-0.016,0.013-0.036,0.03-0.077,0.058
	c-0.062,0.044-0.055,0.028-0.156,0.119c0.041,0.081,0.151-0.106,0.156,0c0.031-0.072,0.13-0.08,0.172-0.135
	c-0.041,0.074,0.148-0.016,0.062-0.022c0.03-0.062,0.061,0.041,0.095,0.038c-0.073-0.087,0.014-0.087,0.096-0.058
	c-0.006-0.021-0.023-0.039-0.058-0.039c0.023-0.077,0.072,0.013,0.08,0.06c-0.104,0.038,0.058,0.05,0,0.097
	c0.033-0.016,0.055-0.06,0.094-0.021c-0.039,0.053-0.033-0.012-0.077,0.042c-0.019,0.022,0.035,0.05-0.017,0.077
	c0.042,0.065,0.052-0.099,0.094-0.021c-0.047,0.038,0.066-0.022,0.1-0.019c-0.017,0.036-0.072,0.031-0.077,0.078
	c0.027,0.061,0.082,0.008,0.114,0.038c-0.006,0.028-0.048,0.019-0.077,0.021c0.013,0.058,0.077,0.014,0.135,0.036
	c0.017,0.006,0.013,0.038,0.021,0.044c0.048,0.016,0.103,0.05,0.177,0.034c-0.077,0.121,0.06,0.255,0.155,0.197
	c-0.033,0.006-0.035-0.016-0.06-0.022c0.17,0.006-0.066,0.132-0.138,0.099c0.014,0.042,0.033-0.023,0.061,0.019
	c-0.119,0.061-0.468,0.189-0.818,0.194c0.016,0.086,0.156,0.039,0.216,0.08c-0.336,0.203-0.751,0.441-1.191,0.662
	c-0.437,0.214-0.9,0.413-1.322,0.624c0.292-0.038,0.59-0.138,0.878-0.234c0.669-0.232,1.3-0.543,1.948-0.797
	c0.067-0.031,0.138-0.086,0.252-0.139c0.058-0.027,0.118-0.016,0.155-0.078c0.047,0.009-0.02,0.055-0.041,0.062
	c0.022-0.022,0.16-0.006,0.079-0.08c0.098-0.011,0.053,0.052,0.136,0.08c-0.023,0.022-0.125,0.108-0.233,0.092
	c0.003,0.074-0.119,0.062-0.155,0.083c-0.168,0.083-0.399,0.183-0.526,0.347c0.376-0.019,0.676-0.219,0.977-0.253
	c0.008-0.028,0.01-0.028,0.058-0.06c0.08,0.014,0.135-0.012,0.211-0.075c0.116,0.097,0-0.042,0.099,0
	c0.087,0.062-0.089,0.072-0.099,0.058c0.056,0.086,0.099-0.017,0.174-0.017c-0.08-0.041-0.08-0.075,0.021-0.097
	c0.002,0.019-0.084,0.035-0.021,0.057c0.072,0.043-0.006-0.027,0.041-0.057c0.038,0.114,0.086,0.022,0.177,0.057
	c-0.061-0.016-0.174,0.1-0.139,0.02c-0.125,0.104-0.319,0.13-0.487,0.192c-0.074,0.03-0.121,0.063-0.214,0.099
	c0.045-0.019,0.014-0.026-0.038,0c-0.421,0.202-1,0.287-1.305,0.644c0.742-0.172,1.422-0.473,1.987-0.664
	c0.039,0.02,0.05-0.013,0.057,0.059c-0.035-0.075,0.133-0.158,0.257-0.119c-0.028,0.061-0.113-0.047-0.118,0.042
	c0.027,0.071,0.062,0.049,0.118,0.018c-0.011,0.043-0.044,0.064-0.06,0.097c-0.006,0.057,0.128-0.021,0.097,0.06
	c-0.086-0.06-0.131,0.106-0.177,0.019c-0.055,0.119-0.183,0.072-0.211,0.158c-0.005-0.104-0.044,0.077-0.119,0
	c0,0.061-0.197,0.167-0.274,0.155c0,0.075-0.175,0.109-0.233,0.194c0.283-0.087,0.557-0.194,0.837-0.272
	c0.016-0.006,0.08-0.072,0.08,0c0.045-0.094,0.229-0.05,0.252-0.119c0.078,0.016,0.12,0.06,0.195,0.08
	c-0.036-0.048,0.049-0.042,0-0.117c0.041,0.038,0.038,0.103,0.116,0.06c0.051,0.038-0.111,0.038-0.079,0.02
	c-0.025,0.016-0.008,0.053,0.021,0.038c-0.067,0.039-0.229,0.13-0.312,0.077c-0.062-0.006,0.047,0.055-0.022,0.06
	c-0.17,0.03-0.329,0.13-0.505,0.194c-1.28,0.471-2.618,0.979-3.989,1.364c0.421-0.012,0.84-0.141,1.244-0.234
	c0.417-0.1,0.833-0.16,1.248-0.254c0.737-0.17,1.447-0.437,2.102-0.721c0.096-0.038,0.194-0.111,0.293-0.058
	c-0.089-0.03,0.034-0.065,0-0.056c0.051-0.013,0.075-0.009,0.1-0.06c0.005,0.078,0.027-0.026,0.057,0
	c0.064-0.038,0.017,0.003,0,0.038c0.045-0.034,0.052-0.034,0.096,0c0.065-0.028-0.063-0.021-0.035-0.078
	c0.072-0.013,0.108-0.019,0.211-0.06c0.026,0.082-0.171,0.013-0.136,0.119c0.078,0.067,0.025-0.072,0.078,0.019
	c0.067,0,0.035-0.106,0.058-0.056c0.077,0.028-0.135,0.122-0.192,0.078c0.016,0.072,0.076,0.013,0.134,0.019
	c-0.139,0.038,0.031,0.101-0.078,0.096c0.091,0.07,0.097-0.111,0.213-0.077c-0.019,0.026-0.03,0.06-0.055,0.077
	c0.063,0.013,0.069-0.124,0.155-0.017c0.045,0-0.009-0.053-0.039-0.041c0.004-0.061,0.12,0.069,0.077,0
	c0.045-0.012,0.059,0.086-0.056,0.058c-0.003,0.039-0.066,0.033-0.137,0.078c0.027-0.028,0.05-0.065,0.099-0.078
	c-0.039-0.064-0.153,0.136-0.141,0.058c0.025-0.003,0.019-0.034,0.021-0.058c-0.074,0.047-0.039,0.05-0.116,0.136
	c-0.02-0.013,0.01-0.086-0.061-0.097c0.021,0.025,0.021,0.069,0.021,0.119c-0.047-0.082-0.239,0.166-0.314,0.058
	c0,0.058-0.124,0.1-0.213,0.135c-0.595,0.239-1.269,0.493-1.85,0.764c0.183-0.011,0.383-0.067,0.604-0.117
	c0.537-0.128,1.373-0.26,1.965-0.296c0.024,0,0.162-0.017,0.121,0.039c0.026-0.008,0.047-0.028,0.075-0.039
	c0.025-0.055,0.025,0.033,0,0.039c0.045,0.008,0.022-0.056,0.06-0.056c0.064-0.019,0.062,0.028,0.1,0.037
	c-0.031-0.056,0.117-0.037,0.231-0.058c-0.014,0.038-0.086,0.053-0.117,0.021c-0.011,0.028-0.011,0.028-0.058,0.056
	c-0.565,0.097-1.122,0.246-1.695,0.374c-1.695,0.373-3.43,0.747-4.947,1.305c2.038-0.405,4.379-0.891,6.62-1.191
	c0.138-0.019,0.272-0.045,0.408-0.06c0.11-0.009,0.207,0.028,0.313-0.038c0.031,0.091,0.05-0.017,0.116,0
	c0.056,0.088,0.037,0.07,0.138,0.078c-0.005,0.045-0.042,0.085,0.019,0.096c-0.546,0.108-1.363,0.3-2.042,0.565
	c0.23,0.109,0.698,0.041,1.071,0.06c0.153,0.009,0.303,0.038,0.429,0.06c-0.097,0.05-0.231,0.031-0.393,0.038
	c-1.926,0.087-3.513,0.662-5.022,1.189c1.825,0.016,3.604-0.188,4.83-0.839c-0.078,0.135-0.319,0.277-0.469,0.41
	c0.803-0.069,1.38-0.247,1.989-0.488c-0.222,0.204-0.557,0.316-0.896,0.412c-1.033,0.282-2.349,0.329-3.331,0.662
	c1.072,0.402,2.226-0.363,3.368-0.275c-0.285,0.191-0.72,0.229-1.108,0.313c0.715-0.009,1.568,0,2.219,0.117
	c-0.815,0.042-1.623,0-2.375,0.039c-1.045,0.05-1.83,0.435-2.805,0.526c0.236,0.1,0.545,0.113,0.896,0.097
	c1.222-0.05,2.387-0.375,3.583-0.448c-0.269,0.16-0.651,0.207-1.012,0.275c0.652-0.028,1.383-0.141,2.065-0.2
	c-1.208,0.413-2.792,0.443-4.325,0.529c2.124,0.097,4.363-0.329,6.233-0.254c-0.856,0.21-2.141,0.219-3.233,0.31
	c0.574,0.087,1.319-0.1,1.928,0.019c-2.258,0.414-4.761,0.836-7.44,0.607c-0.313-0.03-0.621-0.022-0.956-0.041
	c-1.371-0.075-2.744-0.213-4.067-0.39c-0.827-0.108-1.675-0.218-2.418-0.388c-0.457-0.105-0.969-0.092-1.421-0.255
	c-0.156,0.097-0.222,0.285-0.427,0.332c-0.023-0.066-0.046-0.138-0.042-0.235c-6.587,3.876-11.223,9.797-11.742,19.675
	c1.395-2.385,3.269-4.507,5.549-6.197c2.277-1.684,5.025-2.908,8.568-3.171c0.407-0.031,0.901-0.061,1.348-0.022
	c0.048,0.088,0.127,0.146,0.174,0.233c-0.019,0.073-0.042,0.139-0.06,0.214c-2.708,0.532-4.88,1.465-6.815,2.69
	c-1.944,1.224-3.561,2.772-4.871,4.612c-1.649,2.318-2.775,5.152-3.29,8.571c-0.106,0.693-0.17,1.41-0.255,2.127
	c-0.238,2.044-0.565,4.185-0.914,6.191c-0.122,0.681-0.235,1.339-0.431,1.948c-0.385,1.197-0.831,2.312-1.364,3.368
	c-1.049,2.086-2.282,3.961-3.834,5.649c-1.488,1.622-3.284,3.049-5.435,4.052c-2.155,1.008-4.615,1.762-7.558,1.928
	c-2.108,0.122-4.062-0.031-5.959-0.351c-3.108-0.524-5.789-1.556-8.064-2.903c-4.629-2.742-7.759-6.856-9.528-12.428
	c-0.582-1.843-1.114-3.768-1.612-5.686c-0.491-1.883-1.012-3.897-1.62-5.686c-0.307-0.903-0.649-1.787-1.126-2.531
	c-0.473-0.735-1.066-1.378-2.028-1.62c-0.224,0.556-0.401,1.167-0.565,1.793c-0.806,3.072-1.166,6.825-0.994,10.789
	c0.103,2.387,0.415,4.745,0.779,6.837c-1.578-3.15-2.817-6.892-3.135-11.337c-0.055-0.765-0.078-1.656-0.041-2.512
	c0.208-4.692,1.614-8.392,3.331-11.55c3.449,0.297,6.423,0.961,9.06,1.988c3.286,1.277,6.005,3.18,8.415,5.374
	c0.237,0.216,0.476,0.435,0.718,0.659c2.137,1.967,4.143,4.124,6.292,6.099c0.722,0.661,1.471,1.287,2.241,1.909
	c0.252,0.205,0.5,0.405,0.739,0.625c-0.866,1.263-1.449,2.744-1.537,4.695c-0.084,1.848,0.332,3.357,0.955,4.596
	c1.252,2.488,3.344,4.119,6.214,5.083c0.83,0.275,1.617,0.438,2.705,0.39c1.767-0.081,3.296-0.803,4.501-1.598
	c1.213-0.801,2.247-1.842,3.056-3.039c0.415-0.604,0.762-1.309,1.071-1.983c0.936-2.044,1.698-4.497,1.853-7.289
	c0.174-3.086-0.299-6.045-0.761-8.687c-0.151-0.869-0.43-1.705-0.699-2.512c-1.069-3.225-2.612-5.933-4.539-8.335
	c-2.412-3.008-5.313-5.355-8.922-7.171c-1.417-0.71-2.961-1.309-4.652-1.791c-1.889-0.546-3.858-0.876-6.099-0.973
	c-2.006-0.091-3.809,0.124-5.493,0.524c-0.583,1.476-1.261,2.994-2.084,4.285c-0.192,0.305-0.404,0.578-0.625,0.859
	c-0.041,0.05-0.016,0.039-0.095,0.119c-0.006,0-0.08,0.06-0.099,0.132c-0.038,0.041-0.038-0.008-0.078-0.016
	c0.023,0.058,0.008,0.047-0.021,0.094c-0.031-0.016,0-0.036,0-0.06c-0.061,0.016-0.022,0.055-0.018,0.1
	c-0.072-0.034-0.076-0.023-0.041,0.038c-0.05-0.019-0.092-0.072-0.058,0.019c-0.042-0.025-0.106-0.016-0.038-0.057
	c-0.644,0.122-1.535,0.009-2.28,0.116c-0.053,0.006-0.1,0.035-0.157,0.039c-0.645,0.058-1.278-0.07-1.869,0.077
	c-0.273-0.097-0.764,0.096-1.07-0.039c0.026,0.099,0.017,0.064-0.06,0.039c-0.047,0,0.008,0.057,0.038,0.041
	c-0.062,0.025-0.167-0.047-0.058-0.1c-0.011-0.038-0.151,0.084-0.058,0.1c-0.008,0.044-0.088-0.038-0.038-0.06
	c-0.058-0.008-0.147,0.18-0.117,0.078c0.039-0.028-0.102,0.072-0.158,0.079c-0.077,0-0.169-0.088-0.213-0.06
	c-0.025-0.031,0.016-0.075-0.038-0.138c-0.08,0.025,0,0.067,0,0.119c-0.031-0.075-0.084,0.019-0.136,0.019
	c0.024,0-0.07-0.022-0.059-0.019c-0.223-0.038-0.697,0.028-0.953,0.038c-0.086,0.006-0.158-0.019-0.235-0.019
	c-0.05,0-0.064,0.033-0.116,0.041c-0.202,0.025-0.595-0.013-0.898,0c-0.377,0.016-0.928,0.031-1.326,0.078
	c-0.034,0.006-0.067-0.004-0.092,0.038c-0.114-0.031-0.233-0.062-0.335,0c-1.042-0.026-1.815,0.066-2.825,0.074
	c-0.031,0.019-0.011,0.048,0.022,0.045c-0.022,0.039-0.117-0.038-0.138,0.038c-0.035-0.011-0.031-0.188,0.021-0.083
	c-0.022-0.039-0.022-0.047-0.099-0.074c-0.03,0.057-0.015,0.023,0.042,0.019c-0.057,0.1-0.111-0.05-0.099-0.077
	c-0.07-0.05-0.077-0.118-0.119-0.155c-0.312-0.294-0.981-0.178-1.266-0.488c-0.149-0.166-0.315-0.569-0.213-0.894
	c0.114-0.38,0.693-0.556,0.757-1.016c0.023-0.158-0.023-0.292-0.019-0.41c0.016-0.469,0.384-0.984,0.761-1.126
	c0.283-0.113,0.686-0.132,0.818-0.451c0.124-0.294-0.092-0.614-0.02-0.933c0.113-0.498,0.789-0.695,1.266-0.854
	c0.322-0.114,0.659-0.175,0.953-0.256c0.535-0.147,1.144-0.623,1.148-1.307c0.003-0.28-0.109-0.646,0.216-0.721
	c0.246-0.055,0.714,0,1.152-0.017c0.338-0.016,0.685-0.018,0.951,0c0.421,0.026,0.889,0.069,0.916-0.388
	c0.016-0.221-0.108-0.368,0.021-0.548c0.185-0.25,0.75-0.105,1.03-0.017c0.269,0.081,0.718,0.383,0.958,0.056
	c0.111-0.156,0.041-0.338,0.272-0.388c0.086-0.021,0.172,0.013,0.253,0.019c0.607,0.043,1.165,0.178,1.676,0.369
	c0.527,0.2,0.989,0.435,1.321,0.645c0.016-0.041,0.165,0.056,0.117,0.075c0.036,0,0.05-0.016,0.099,0
	c0.03,0.011,0.021,0.045,0.038,0.06c0.02,0.014,0.058-0.001,0.059,0c0.016,0.019,0.021,0.102,0,0.062
	c-0.066,0.035-0.092,0.006-0.019-0.021c-0.116-0.061-0.106,0.159-0.116,0.269c-0.067,0.072-0.152,0.247-0.121,0.294
	c-0.042,0.025-0.055,0.088-0.114,0.097c-0.045,0.135,0.006,0.149-0.042,0.235c0.013,0.06-0.013,0.086-0.073,0.075
	c0.016,0.2-0.127,0.239-0.119,0.429c-0.03,0.009-0.017,0.066-0.078,0.041c0.017,0.082-0.03,0.147,0,0.174
	c-0.072,0.104-0.144,0.246-0.155,0.354c-0.081,0.092-0.056,0.293-0.195,0.331c0.006,0.034-0.019,0.097,0.041,0.081
	c-0.028,0.031-0.119-0.016-0.136,0.016c-0.028,0.042,0.215-0.006,0.039,0.079c0.01-0.019,0.046-0.019,0.038-0.058
	c-0.026,0.006-0.03,0.033-0.059,0.039c0.026,0.122,0.067-0.033,0.119,0.019c-0.056,0.056,0.047,0.031,0.039,0.097
	c-0.031-0.025-0.111-0.047-0.058-0.097c-0.118,0.05,0.098,0.185,0.114,0.061c0.065,0.011-0.086,0.061-0.017,0.077
	c0.001,0.058,0.104,0.009,0.058,0.038c0.119,0.117,0.23,0.152,0.31,0.216c0.171,0.131,0.355,0.257,0.546,0.429
	c1.157-0.354,2.316-0.701,3.487-1.033c-0.072-0.108-0.186-0.163-0.291-0.235c2.618-0.836,5.617-1.336,9.098-1.17
	c2.962,0.144,5.696,0.833,8.102,1.734c4.761,1.796,8.47,4.673,11.337,8.338c1.085,1.387,2.063,2.862,2.842,4.539
	c0.253,0.542,0.485,1.111,0.839,1.615c-0.789-4.139-2.504-7.484-4.636-10.301c-2.134-2.822-4.784-5.189-7.947-6.977
	c-0.959,0.538-2.169,0.729-3.625,0.664c-1.54-0.066-3.021-0.451-4.361-0.858c-0.675-0.202-1.333-0.441-1.95-0.664
	c-0.571-0.2-1.247-0.454-1.674-0.679c-0.025-0.012-0.102-0.003-0.06-0.06c-0.077,0.016-0.133-0.012-0.194-0.058
	c-0.011-0.009-0.031-0.055-0.038-0.058c-0.021-0.012-0.096,0.008-0.119,0c-0.061-0.028-0.047-0.081-0.114-0.078
	c-0.053-0.044,0.061-0.044,0-0.097c-0.011,0.01-0.097,0.028-0.041,0.038c-0.075,0.057,0.008-0.099,0.041-0.117
	c0-0.593-0.016-1.062-0.041-1.617c-0.016-0.035-0.022,0.011-0.018,0.041c-0.068-0.299,0.086-0.682-0.061-0.895
	c0.056-0.041,0.056-0.147,0.061-0.216c0.005-0.169-0.043-0.373-0.021-0.567c-0.042,0.035-0.006,0.153-0.021,0.216
	c0,0.039,0,0.078,0,0.116c0,0.031,0,0.065,0,0.1c0.009,0.069-0.034,0.025-0.019-0.021c0-0.038,0-0.08,0-0.117
	c0-0.07,0-0.141,0-0.216c0.042-0.185-0.03-0.388,0.039-0.563c-0.047-0.016,0.023-0.15-0.058-0.138
	c-0.031-0.071,0.067-0.01,0.058-0.055c-0.036-0.105-0.122-0.101-0.118-0.177c-0.016,0-0.058,0.066-0.017,0.058
	c-0.07,0.07,0.026-0.166-0.041-0.039C69.401,17.629,69.676,17.713,69.556,17.768z M114.182,18.199c-0.03,0-0.017,0.044-0.023,0.078
	c-0.041,0.041-0.186-0.009-0.23,0.035c-0.061,0.366-0.574,0.438-0.703,0.801c1.084-0.705,1.923-1.646,2.98-2.379
	c0.037-0.272,0.377-0.349,0.388-0.584C115.859,16.9,115.011,17.54,114.182,18.199z M117.648,15.391
	c0.016-0.038,0.128-0.077,0.077-0.119C117.725,15.327,117.592,15.347,117.648,15.391z M119.517,16.834
	c0-0.009,0.004-0.025,0.02-0.022c-0.02,0.104-0.072-0.041-0.095,0.022c0.08,0.033-0.025,0.022,0,0.097
	c0.062,0,0.033-0.097,0.114-0.08c0-0.011,0-0.023,0-0.039C119.537,16.771,119.472,16.825,119.517,16.834z M119.829,17.125
	c0,0.022-0.015,0.022-0.018,0.038c0.011,0.003,0.022,0.003,0.018,0.022c0.016-0.006,0.039,0,0.039-0.022
	c-0.023,0-0.011-0.019,0-0.038C119.856,17.125,119.842,17.125,119.829,17.125z M58.903,23.901c-0.006,0.031-0.031,0.035-0.041,0.06
	c0.05-0.033,0.067,0.025,0.099-0.02C58.923,23.947,58.923,23.917,58.903,23.901z M70.432,15.116c0.014,0,0.028,0,0.039,0
	c0-0.013,0-0.022,0-0.036c-0.011,0-0.025,0-0.039,0C70.432,15.094,70.432,15.103,70.432,15.116z M119.304,16.989
	c0.042,0.008,0.072-0.004,0.077-0.041C119.345,16.953,119.315,16.962,119.304,16.989z M119.497,17.048
	c0.005-0.014,0.005-0.023,0.021-0.021c0-0.016,0-0.026,0-0.039c-0.028,0.002-0.072-0.008-0.075,0.018
	C119.476,17.001,119.476,17.034,119.497,17.048z M72.886,17.552c-0.032-0.014-0.116-0.023-0.058,0.021
	C72.822,17.513,72.881,17.621,72.886,17.552z M117.022,18.253c0.232-0.055,0.434-0.211,0.585-0.33
	c0.05-0.038,0.15-0.062,0.136-0.136C117.475,17.914,117.191,18.026,117.022,18.253z M69.83,17.923
	c0.047,0.06,0.056,0.006,0.038-0.038C69.884,17.918,69.757,17.895,69.83,17.923z M69.787,18.408
	c-0.006-0.072,0.023-0.29-0.019-0.272C69.781,18.214,69.75,18.43,69.787,18.408z M115.741,18.468
	c0.042-0.006,0.07,0.006,0.075,0.042c-0.063-0.005-0.141,0.011-0.172-0.022c-0.003,0.05,0.026,0.061,0.038,0.095
	c-0.196,0.023-0.249,0.266-0.47,0.197c0.018,0.08-0.028,0.1-0.019,0.177c0.089-0.004,0.125-0.086,0.192-0.139
	c0.18-0.128,0.458-0.219,0.548-0.351c0.003-0.006,0.048-0.065,0-0.077C115.888,18.439,115.741,18.377,115.741,18.468z
	 M121.385,18.781c0-0.012,0.003-0.023,0.021-0.02c0,0.017,0.064,0.058,0.06,0.02c-0.011-0.003-0.023-0.003-0.021-0.02
	c0.01,0,0.023-0.018,0-0.019C121.439,18.778,121.335,18.731,121.385,18.781z M114.706,19.598c0.391-0.194,0.761-0.41,1.053-0.703
	c0.001-0.022,0.026-0.038-0.019-0.038C115.392,19.103,114.917,19.222,114.706,19.598z M114.415,19.48
	c0.194-0.233,0.56-0.292,0.74-0.543c-0.006-0.022,0.004-0.057-0.021-0.06C115.005,19.141,114.468,19.211,114.415,19.48z
	 M121.717,19.016c0.045-0.027,0.075,0.05,0.078,0c-0.021-0.008-0.03-0.023-0.039-0.041c0.023,0,0.026,0.025,0.06,0.02
	C121.819,18.906,121.717,18.981,121.717,19.016z M121.836,19.034c0.011,0,0.026,0,0.037,0c0-0.011,0-0.026,0-0.026
	c-0.011-0.013-0.026-0.013-0.037-0.013C121.836,18.995,121.836,19.023,121.836,19.034z M115.04,20.03
	c-0.241,0.113-0.495,0.217-0.645,0.41c0.925-0.313,1.85-0.728,2.627-1.152c0.113-0.061,0.236-0.1,0.313-0.196
	C116.6,19.41,115.741,19.692,115.04,20.03z M115.485,20.377c1.075-0.163,1.922-0.595,2.822-0.914
	c0.045-0.016,0.179-0.031,0.139-0.079C117.266,19.524,116.451,20.023,115.485,20.377z M121.913,19.48
	c-0.033,0.011-0.05-0.027-0.057,0c0.036,0.058,0.131-0.042,0.094-0.058C121.943,19.466,121.858,19.43,121.913,19.48z
	 M113.773,20.105c0.199,0,0.229-0.257,0.408-0.216c-0.103-0.073,0.066-0.112,0.016-0.172
	C114.047,19.839,113.863,19.923,113.773,20.105z M111.241,22.15c-0.009,0.091,0.089,0.052,0.092,0c-0.05,0-0.119,0.019-0.092-0.058
	c0.177-0.003,0.347-0.266,0.504-0.1c-0.127-0.022-0.025,0.188-0.175,0.138c-0.042-0.008,0.003-0.106-0.057-0.095
	c-0.014,0.095-0.155,0.065-0.134,0.195c0.451-0.034,1.036-0.108,1.302-0.393c-0.34-0.099-0.662,0.155-0.972,0.02
	c0.044-0.037,0.125-0.053,0.191-0.02c0.011-0.069-0.089-0.061-0.038-0.116c0.067-0.011,0.13-0.03,0.214-0.021
	c0.729-0.603,1.623-1.038,2.299-1.693c-0.232,0.121-0.521,0.182-0.664,0.39c0.041,0.039,0.116-0.135,0.178-0.08
	c-0.591,0.417-1.174,0.958-1.848,1.247c-0.108,0.048-0.324,0.064-0.393,0.118c-0.264,0.203-0.555,0.403-0.84,0.568
	C110.966,22.23,111.075,22.165,111.241,22.15z M113.169,20.671c-0.135,0.072-0.313,0.13-0.313,0.269
	c0.125-0.166,0.421-0.219,0.584-0.346c0.042-0.036,0.111-0.1,0.1-0.155C113.445,20.527,113.299,20.598,113.169,20.671z
	 M117.258,21.041c0.573-0.094,1.279-0.163,1.733-0.351c0.061-0.026,0.194-0.069,0.134-0.095
	C118.495,20.731,117.825,20.834,117.258,21.041z M123.548,20.671C123.423,20.649,123.506,20.731,123.548,20.671L123.548,20.671z
	 M123.743,20.769C123.621,20.747,123.703,20.83,123.743,20.769L123.743,20.769z M114.182,21.977
	c0.744-0.097,1.431-0.243,2.063-0.448c0.034,0,0.048-0.021,0-0.021C115.532,21.642,114.797,21.75,114.182,21.977z M69.847,21.935
	c0.016,0,0.025,0,0.039,0c0,0,0-0.024,0-0.035c-0.014,0-0.023,0-0.039,0C69.847,21.911,69.847,21.923,69.847,21.935z M69.886,22.035
	C69.795,22.042,70,22.023,69.886,22.035L69.886,22.035z M114.51,22.696c1.343,0.301,2.959,0.041,3.897-0.446
	c0.005-0.005,0.096,0.001,0.039-0.042C117.304,22.539,115.493,22.202,114.51,22.696z M110.458,22.891
	c0.33-0.094,0.791-0.057,1.013-0.255C111.11,22.696,110.703,22.712,110.458,22.891z M111.649,23.105
	c0.216,0.011,0.634,0.072,0.913,0.021C112.399,22.913,111.853,22.97,111.649,23.105z M110.108,23.082
	c-0.092,0.087-0.312,0.044-0.371,0.158c0.466,0.177,1.164,0.111,1.717,0.195c0.059-0.041-0.096-0.1-0.021-0.153
	c0.252-0.065,0.632,0.153,0.835-0.06c-0.723,0.006-1.458-0.222-2.103,0C110.165,23.16,110.188,23.075,110.108,23.082z
	 M115.933,23.374c1.277,0.38,3.122,0.202,4.207-0.231C118.764,23.24,117.326,23.263,115.933,23.374z M115.058,24.023
	c0.59,0.06,1.358,0.282,1.889,0.055C116.316,24.036,115.65,23.939,115.058,24.023z M118.463,24.233
	c-0.087,0.022-0.206,0.028-0.272,0.099c1.642-0.017,3.471,0.077,4.95-0.157c0.2-0.031,0.419-0.055,0.601-0.139
	C122,24.045,119.951,23.923,118.463,24.233z M57.849,26.417c-0.012,0-0.021,0.017,0,0.021c0-0.025,0.035-0.019,0.04-0.041
	C57.833,26.393,57.823,26.358,57.849,26.417z M53.779,32.437c0.052,0.028,0.065,0.013,0.017-0.022
	C53.893,32.407,53.768,32.375,53.779,32.437z M50.68,32.59c-0.031,0.01-0.113-0.022-0.114,0.019
	C50.599,32.6,50.68,32.634,50.68,32.59z M50.877,32.59c-0.035,0.01-0.116-0.022-0.119,0.019C50.792,32.6,50.874,32.634,50.877,32.59
	z M46.827,32.746C46.6,32.724,46.686,32.808,46.827,32.746L46.827,32.746z M117.725,15.356c0.048,0.041,0.052-0.069,0.019-0.064
	C117.745,15.292,117.731,15.36,117.725,15.356z"/>
<path fill-rule="evenodd" clip-rule="evenodd" fill="#6D6E71" d="M121.836,18.916c-0.047-0.039,0.039,0.011,0.077,0
	c-0.005,0.019-0.021,0.022-0.021,0.042c-0.011,0-0.027,0-0.036,0C121.858,18.934,121.852,18.922,121.836,18.916z"/>
<path fill-rule="evenodd" clip-rule="evenodd" fill="#6D6E71" d="M120.92,18.119c-0.017,0.014-0.055,0.014-0.059,0.038
	c-0.022-0.011,0.031-0.111,0.078-0.116C120.996,18.058,120.88,18.056,120.92,18.119z"/>
<path fill-rule="evenodd" clip-rule="evenodd" fill="#6D6E71" d="M120.781,18.041c-0.014,0.017-0.034,0.03-0.056,0.039
	c0.013,0.019,0.034,0.028,0.056,0.039c0.009-0.017-0.004-0.017-0.014-0.02c0.01-0.031,0.042-0.009,0.035,0.02
	c0.023-0.008,0.016-0.039,0.042-0.039c-0.035-0.02-0.044,0-0.019-0.077c0.038-0.008,0.05,0.011,0.077,0.016
	c-0.016,0.038-0.036,0.006-0.058,0c0.012,0.023,0.023,0.052,0.017,0.1c-0.006,0.008-0.094,0.027-0.036,0.038
	c-0.044,0.067-0.058-0.058-0.121-0.038c0.021,0.027,0.052,0.038,0.077,0.058c-0.001,0.022-0.038,0.014-0.038,0.038
	c-0.072-0.023,0.023-0.072-0.077-0.038c0.027-0.028,0.011-0.058-0.022-0.078C120.675,18.095,120.714,18.048,120.781,18.041z"/>
<path fill-rule="evenodd" clip-rule="evenodd" fill="#6D6E71" d="M120.124,17.321c-0.008,0.026-0.06,0.008-0.061,0.039
	C120.011,17.352,120.083,17.3,120.124,17.321z"/>
<path fill-rule="evenodd" clip-rule="evenodd" fill="#6D6E71" d="M119.695,16.872c0.022,0.006,0.038,0.025,0.038,0.06
	c0.058,0.028-0.047,0.012-0.021-0.041c-0.039,0.041-0.111,0.014-0.156,0C119.59,16.809,119.645,16.933,119.695,16.872z"/>
<path fill-rule="evenodd" clip-rule="evenodd" fill="#6D6E71" d="M119.187,16.559C119.094,16.527,119.163,16.463,119.187,16.559
	L119.187,16.559z"/>
<path fill-rule="evenodd" clip-rule="evenodd" fill="#6D6E71" d="M119.03,16.386c-0.066-0.091-0.008-0.022-0.099-0.02
	c0.022-0.047,0.06-0.071,0.117-0.077c0.003,0.019,0.023,0.012,0.041,0.019c-0.011,0.019-0.025,0.031,0,0.038
	c-0.02,0.062-0.033-0.044-0.059-0.038c-0.056,0.019,0.045,0.028,0.019,0.078c-0.026,0.019-0.074,0.019-0.08,0.057
	C118.938,16.443,119.003,16.33,119.03,16.386z"/>
<path fill-rule="evenodd" clip-rule="evenodd" fill="#6D6E71" d="M117.298,15.429c0.05-0.082,0.202-0.169,0.233-0.214
	c0.094-0.05-0.031,0.17-0.08,0.1C117.436,15.327,117.373,15.482,117.298,15.429z"/>
<path fill-rule="evenodd" clip-rule="evenodd" fill="#6D6E71" d="M117.648,15.195c-0.033-0.003-0.045-0.031-0.041-0.08
	c0.058,0.064,0.045,0.016,0.099-0.017C117.744,15.109,117.648,15.156,117.648,15.195z"/>
<path fill-rule="evenodd" clip-rule="evenodd" fill="#6D6E71" d="M117.805,15c0.021-0.057,0.021,0.029-0.02,0.019
	c-0.002,0.019,0.006,0.019,0.02,0.022c-0.014,0.056-0.031-0.03-0.061-0.022c-0.038,0.072,0.01-0.066,0.021,0
	C117.783,15.019,117.785,15,117.805,15z"/>
<path fill-rule="evenodd" clip-rule="evenodd" fill="#6D6E71" d="M118.057,15.041c0.036,0.001,0.013,0.062,0.058,0.058
	C118.107,15.142,118.046,15.08,118.057,15.041z"/>
<path fill-rule="evenodd" clip-rule="evenodd" fill="#6D6E71" d="M118.019,15.099c-0.016,0.023,0.013-0.045,0.018,0
	C118.046,15.16,117.933,15.219,118.019,15.099z"/>
<path fill-rule="evenodd" clip-rule="evenodd" fill="#6D6E71" d="M118.758,15.529c-0.004,0.014-0.062-0.025-0.019-0.022
	C118.814,15.515,118.702,15.654,118.758,15.529z"/>
<path fill-rule="evenodd" clip-rule="evenodd" fill="#6D6E71" d="M100.311,15.607C100.263,15.557,100.364,15.493,100.311,15.607
	L100.311,15.607z"/>
<path fill-rule="evenodd" clip-rule="evenodd" fill="#6D6E71" d="M119.049,16.17c0.023-0.058,0.023,0.031-0.019,0.019
	c0.004,0.022,0.039,0.019,0.039,0c0.031,0.006-0.017,0.038,0.02,0.041c-0.034,0.02-0.09-0.049-0.098,0.06
	c-0.016-0.008-0.022-0.022-0.038-0.022c0-0.013,0-0.025,0-0.038C119.013,16.236,119.007,16.177,119.049,16.17z"/>
<path fill-rule="evenodd" clip-rule="evenodd" fill="#6D6E71" d="M100.137,16.208c0.021,0.013,0.021,0.047,0.058,0.042
	C100.139,16.386,100.163,16.327,100.137,16.208z"/>
<path fill-rule="evenodd" clip-rule="evenodd" fill="#6D6E71" d="M119.108,16.25c0.022,0.002,0.011,0.018,0,0.018
	c0.005,0.022,0.038,0.012,0.038,0.041c0.048,0.041-0.042-0.026-0.077-0.019C119.076,16.264,119.108,16.274,119.108,16.25z"/>
<path fill-rule="evenodd" clip-rule="evenodd" fill="#6D6E71" d="M119.362,16.405c0,0.038-0.052,0.025-0.038,0.078
	c-0.042-0.033-0.028,0-0.08,0C119.267,16.439,119.321,16.43,119.362,16.405z"/>
<path fill-rule="evenodd" clip-rule="evenodd" fill="#6D6E71" d="M119.633,16.543c0.023,0,0.012,0.016,0,0.016
	c-0.003,0.016,0.009,0.022,0.022,0.022c-0.003,0.022-0.022,0.009-0.022,0.009c-0.016-0.008-0.017,0.009-0.038,0.009
	C119.55,16.64,119.625,16.562,119.633,16.543z"/>
<path fill-rule="evenodd" clip-rule="evenodd" fill="#6D6E71" d="M119.695,16.559c0.012,0,0.017,0.008,0.017,0.022
	c0.016,0.001,0.021-0.009,0.021-0.022c0.041-0.005-0.005,0.056-0.021,0.06c-0.048,0.059,0.033-0.044-0.017-0.038
	C119.667,16.608,119.686,16.582,119.695,16.559z"/>
<path fill-rule="evenodd" clip-rule="evenodd" fill="#6D6E71" d="M119.476,16.637C119.551,16.559,119.362,16.765,119.476,16.637
	L119.476,16.637z"/>
<path fill-rule="evenodd" clip-rule="evenodd" fill="#6D6E71" d="M119.417,16.637C119.454,16.693,119.338,16.748,119.417,16.637
	L119.417,16.637z"/>
<path fill-rule="evenodd" clip-rule="evenodd" fill="#6D6E71" d="M119.695,16.677c-0.014,0.053-0.084,0.024-0.1,0.022
	C119.504,16.73,119.655,16.64,119.695,16.677z"/>
<path fill-rule="evenodd" clip-rule="evenodd" fill="#6D6E71" d="M119.811,16.734C119.777,16.73,119.93,16.752,119.811,16.734
	L119.811,16.734z"/>
<path fill-rule="evenodd" clip-rule="evenodd" fill="#6D6E71" d="M119.847,16.793c0.048-0.041-0.028,0.023-0.019,0.058
	c0.023-0.008,0.031-0.031,0.058-0.039c0.047-0.031-0.064,0.078-0.075,0.06C119.773,16.869,119.822,16.796,119.847,16.793z"/>
<path fill-rule="evenodd" clip-rule="evenodd" fill="#6D6E71" d="M99.921,16.948c-0.031-0.036,0.005-0.023,0-0.077
	c0.045,0.019,0.016,0.13-0.038,0.117C99.875,16.955,99.899,16.953,99.921,16.948z"/>
<path fill-rule="evenodd" clip-rule="evenodd" fill="#6D6E71" d="M120.24,16.931c0.002-0.022,0.018-0.011,0.018-0.011
	c0.017,0.013,0.02,0.001,0.02-0.008c0.022,0.003,0.008,0.019,0,0.019c-0.003,0.012,0.006,0.017,0.017,0.017
	C120.284,17.006,120.267,16.92,120.24,16.931z"/>
<path fill-rule="evenodd" clip-rule="evenodd" fill="#6D6E71" d="M120.218,17.263c0.006,0.038-0.055-0.003-0.058-0.019
	c-0.053-0.031,0.072,0.022,0.08-0.042c0.013,0,0.055,0.064,0.018,0.061C120.274,17.3,120.198,17.194,120.218,17.263z"/>
<path fill-rule="evenodd" clip-rule="evenodd" fill="#6D6E71" d="M120.124,17.263C120.076,17.222,120.24,17.36,120.124,17.263
	L120.124,17.263z"/>
<path fill-rule="evenodd" clip-rule="evenodd" fill="#6D6E71" d="M120.511,17.513c-0.003,0.025-0.021,0.011-0.021,0
	c-0.016,0.005-0.019,0.019-0.039,0.019C120.404,17.524,120.498,17.476,120.511,17.513z"/>
<path fill-rule="evenodd" clip-rule="evenodd" fill="#6D6E71" d="M69.44,17.687c0.003-0.016-0.01-0.016-0.021-0.017
	c0.025-0.06,0.061,0.021,0.021,0.037C69.417,17.704,69.427,17.687,69.44,17.687z"/>
<path fill-rule="evenodd" clip-rule="evenodd" fill="#6D6E71" d="M99.687,17.945c0.016-0.039,0.033,0.022,0,0.016
	c0.008,0.028,0.041,0.022,0.041,0c0.034,0,0,0.077-0.041,0.058C99.69,17.967,99.657,17.983,99.687,17.945z"/>
<path fill-rule="evenodd" clip-rule="evenodd" fill="#6D6E71" d="M121.037,17.983c0.003,0.016-0.008,0.016-0.021,0.02
	c-0.011,0.016-0.016,0.077-0.056,0.116C120.983,18.067,120.939,17.995,121.037,17.983z"/>
<path fill-rule="evenodd" clip-rule="evenodd" fill="#6D6E71" d="M121.055,18.019c0.031,0.061,0.01,0.006-0.019,0.022
	C121.113,17.995,121.13,18.038,121.055,18.019z"/>
<path fill-rule="evenodd" clip-rule="evenodd" fill="#6D6E71" d="M99.649,18.099c0.062,0.02,0,0.061,0.038,0.116
	C99.728,18.268,99.591,18.126,99.649,18.099z"/>
<path fill-rule="evenodd" clip-rule="evenodd" fill="#6D6E71" d="M99.669,18.253C99.645,18.191,99.735,18.405,99.669,18.253
	L99.669,18.253z"/>
<path fill-rule="evenodd" clip-rule="evenodd" fill="#6D6E71" d="M99.649,18.51c-0.042-0.011-0.067-0.036-0.077-0.08
	C99.616,18.439,99.641,18.461,99.649,18.51z"/>
<path fill-rule="evenodd" clip-rule="evenodd" fill="#6D6E71" d="M99.55,18.488c0.047-0.011,0.031,0.038,0.06,0.038
	c-0.011,0.061-0.044,0.1-0.116,0.099c0.041-0.018,0.062-0.053,0.097-0.079C99.577,18.526,99.544,18.526,99.55,18.488z"/>
<path fill-rule="evenodd" clip-rule="evenodd" fill="#6D6E71" d="M121.564,18.526c-0.058-0.03,0.067,0.02,0.116,0
	c0,0.02-0.025,0.014-0.039,0.02c0,0.019,0.025,0.014,0.039,0.019c-0.003,0.072-0.062-0.042-0.06,0.019
	c-0.022-0.003-0.009-0.019,0-0.019C121.617,18.538,121.564,18.56,121.564,18.526z"/>
<path fill-rule="evenodd" clip-rule="evenodd" fill="#6D6E71" d="M121.756,18.51c0.023,0.039,0.026,0.073-0.039,0.073
	C121.803,18.583,121.673,18.521,121.756,18.51z"/>
<path fill-rule="evenodd" clip-rule="evenodd" fill="#6D6E71" d="M121.62,18.625c0.025,0.001,0.013,0.02,0,0.02
	c0.025,0.023,0.057,0.033,0.038,0.097c-0.025-0.031-0.091-0.023-0.075-0.097C121.604,18.646,121.617,18.64,121.62,18.625z"/>
<path fill-rule="evenodd" clip-rule="evenodd" fill="#6D6E71" d="M99.513,18.645c0.061-0.004-0.047,0.055,0.019,0.058
	C99.5,18.771,99.476,18.656,99.513,18.645z"/>
<path fill-rule="evenodd" clip-rule="evenodd" fill="#6D6E71" d="M122.049,18.916c0.014-0.055,0.028,0.031,0.058,0.022
	C122.09,19,122.069,18.916,122.049,18.916z"/>
<path fill-rule="evenodd" clip-rule="evenodd" fill="#6D6E71" d="M122.636,19.172c0.019-0.059,0.021,0.016,0.019,0.016
	C122.646,19.194,122.616,19.222,122.636,19.172z"/>
<path fill-rule="evenodd" clip-rule="evenodd" fill="#6D6E71" d="M122.808,19.344c-0.014,0-0.019,0.009-0.019,0.009
	C122.751,19.266,122.905,19.443,122.808,19.344z"/>
<path fill-rule="evenodd" clip-rule="evenodd" fill="#6D6E71" d="M90.106,21.099c0.019,0.005,0.016,0.038,0.037,0.042
	c-0.019,0.031-0.042,0.069-0.076,0.037c0.003-0.026,0.019-0.014,0.019,0c0.017-0.006,0.021-0.021,0.039-0.021
	C90.115,21.141,90.106,21.125,90.106,21.099z"/>
<path fill-rule="evenodd" clip-rule="evenodd" fill="#6D6E71" d="M69.362,21.722c0.001-0.021,0.02-0.011,0.02,0
	c0.016,0.004,0.016-0.008,0.016-0.008c0.025-0.008,0.013,0.008,0,0.008c-0.001,0.017,0.009,0.017,0.022,0.017
	C69.407,21.8,69.393,21.71,69.362,21.722z"/>
<path fill-rule="evenodd" clip-rule="evenodd" fill="#6D6E71" d="M69.556,21.857c0.023,0.003,0.011,0.019,0,0.019
	c0.012,0.019,0.038,0.026,0.058,0.041c0.039,0.047-0.063-0.022-0.096-0.017C69.52,21.876,69.556,21.886,69.556,21.857z"/>
<path fill-rule="evenodd" clip-rule="evenodd" fill="#6D6E71" d="M90.67,23.728c0.015,0.031,0.058,0.031,0.057,0.077
	C90.677,23.809,90.678,23.764,90.67,23.728z"/>
<path fill-rule="evenodd" clip-rule="evenodd" fill="#6D6E71" d="M90.67,23.883c0.018,0.013,0.03,0.034,0.036,0.058
	C90.702,23.989,90.667,23.909,90.67,23.883z"/>
<path fill-rule="evenodd" clip-rule="evenodd" fill="#6D6E71" d="M59.175,24.058C59.239,24.061,59.064,24.052,59.175,24.058
	L59.175,24.058z"/>
<path fill-rule="evenodd" clip-rule="evenodd" fill="#6D6E71" d="M90.727,24.783c0.026-0.064,0.026,0.052-0.021,0.034
	C90.67,24.864,90.719,24.797,90.727,24.783z"/>
<path fill-rule="evenodd" clip-rule="evenodd" fill="#6D6E71" d="M90.863,24.994c0.022-0.063,0.056,0.021,0.061,0.037
	C90.904,25.094,90.904,24.979,90.863,24.994z"/>
<path fill-rule="evenodd" clip-rule="evenodd" fill="#6D6E71" d="M90.98,25.523c0.048-0.06,0.067,0.072,0.1,0.092
	c-0.012,0.036-0.045,0.016-0.041-0.016c-0.017-0.008-0.017,0.005-0.021,0.016C90.985,25.62,91.057,25.517,90.98,25.523z"/>
<path fill-rule="evenodd" clip-rule="evenodd" fill="#6D6E71" d="M91.02,25.658c0.053-0.006,0.053,0.039,0.061,0.077
	c-0.02,0.008-0.037,0.019-0.041,0.036C90.99,25.745,91.005,25.705,91.02,25.658z M91.02,25.734c0.016,0,0.027,0,0.041,0
	c0-0.016,0-0.023,0-0.038c-0.014,0-0.025,0-0.041,0C91.02,25.711,91.02,25.719,91.02,25.734z"/>
<path fill-rule="evenodd" clip-rule="evenodd" fill="#6D6E71" d="M91.061,25.754c0.05,0.003-0.03,0.033,0,0.077
	C91.012,25.83,91.056,25.766,91.061,25.754z"/>
<path fill-rule="evenodd" clip-rule="evenodd" fill="#6D6E71" d="M115.174,28.423c0.035,0.041,0.092-0.061,0.136-0.08
	c0.038,0.041,0.086,0.041,0.019,0c0.019-0.05,0.117,0.025,0.056,0.059c0.109-0.012-0.053-0.103,0.042-0.1
	c0.005,0.061,0.082-0.019,0,0c1.143-0.53,2.592-0.865,4.363-0.754c1.46,0.088,2.827,0.609,3.937,1.187
	c1.13,0.593,2.012,1.235,2.997,2.102c0.445,0.39,0.876,0.815,1.326,1.229c0.457,0.419,0.944,0.781,1.462,1.089
	c0.283,0.172,0.547,0.324,0.856,0.432c0.318,0.108,0.654,0.161,0.992,0.269c0.752,0.25,1.438,0.604,1.754,1.249
	c-0.335-0.124-0.571-0.294-0.917-0.332c-0.787-0.087-1.414,0.077-2.085,0.253c-0.612,0.166-1.224,0.313-1.79,0.528
	c-0.183,0.065-0.335,0.177-0.507,0.274c-1.308,0.735-2.583,1.461-4.087,2.078c-0.385,0.16-0.803,0.344-1.172,0.374
	c-0.323,0.026-0.539-0.147-0.935-0.119c-0.253,0.019-0.476,0.077-0.66,0.177c-0.005-0.032-0.058-0.074-0.116-0.101
	c-0.016,0.101,0.058-0.006,0.076,0.101c-0.059-0.024-0.065,0.043-0.177,0.058c0.013-0.077-0.077-0.055-0.058-0.136
	c-0.122-0.022-0.222-0.075-0.272-0.172c-0.133-0.022-0.211-0.089-0.274-0.182c-0.038,0-0.077,0-0.114,0
	c-0.077-0.147-0.285-0.169-0.371-0.31c-0.124-0.031-0.257-0.043-0.293-0.155c-0.117,0.011-0.163-0.064-0.253-0.114
	c-0.06-0.038-0.133-0.053-0.177-0.082c-0.038-0.022-0.066-0.155-0.193-0.112c-0.076-0.091-0.169-0.162-0.292-0.197
	c-0.034-0.05-0.075-0.097-0.1-0.158c-0.083-0.017-0.144-0.006-0.192-0.017c0.006-0.021,0.038-0.013,0.038-0.038
	c-0.038-0.019-0.221,0.016-0.155-0.099c-0.967-0.019-2.284-0.138-2.805-0.722c-0.205-0.231-0.29-0.638-0.156-1.072
	c-0.042,0.067-0.121-0.067-0.215-0.133c-0.062-0.048-0.058-0.069-0.172-0.059c-0.03-0.082-0.136-0.075-0.157-0.158
	c-0.172-0.005-0.197-0.15-0.374-0.155c-0.003-0.08-0.072-0.097-0.097-0.157c-0.138-0.001-0.209-0.072-0.308-0.117
	c-0.008-0.035,0.016-0.038,0.038-0.039c-0.022-0.072-0.18,0.047-0.156-0.038c0.02,0,0.041,0,0.058,0
	c0.061-0.035-0.084-0.016-0.117-0.022c0.075-0.104,0.332-0.104,0.486-0.113c0.542-0.042,1.147-0.08,1.739-0.097
	c-0.542-0.28-1.292-0.576-1.154-1.424c0.082-0.48,0.5-1.008,0.82-1.266c0.144-0.118,0.354-0.216,0.543-0.312
	c0.518-0.263,1.214-0.566,1.909-0.604c-0.124-0.144-0.366-0.179-0.485-0.329c-0.046,0-0.093,0-0.136,0
	c-0.016-0.085-0.049-0.066-0.118-0.101c-0.012-0.008-0.011-0.053-0.017-0.056c-0.038-0.017-0.082,0.006-0.099,0
	c-0.012-0.006-0.026-0.121-0.117-0.078c0-0.028,0-0.053,0-0.078c-0.316-0.038-0.437-0.333-0.781-0.392c0-0.025,0-0.05,0-0.078
	c-0.05,0-0.104,0-0.157,0c0-0.038,0-0.078,0-0.113c-0.125-0.033-0.265-0.048-0.308-0.156c-0.147-0.042-0.224-0.038-0.335-0.119
	c0.009-0.028,0.028,0.006,0.061,0c-0.014-0.045-0.036-0.084-0.098-0.077c0-0.061,0.041-0.077,0.056-0.121
	c-0.053-0.003-0.042,0.075-0.092,0.021c-0.011-0.008,0.019,0.108,0.055,0.117c-0.036,0.01-0.141-0.075-0.192-0.117
	c-0.013-0.017-0.025-0.033,0-0.038C115.177,28.399,115.201,28.412,115.174,28.423z M115.778,28.714
	c0.041-0.011,0.125,0.023,0.136-0.019C115.866,28.676,115.805,28.664,115.778,28.714z M118.037,30.098
	C117.911,30.074,117.994,30.158,118.037,30.098L118.037,30.098z M126.744,33.878c-0.036,0.008-0.118-0.026-0.118,0.019
	C126.66,33.883,126.741,33.921,126.744,33.878z M127.016,33.897c-0.029,0.008-0.102-0.024-0.098,0.017
	C126.948,33.905,127.018,33.937,127.016,33.897z M127.523,33.937C127.378,33.913,127.462,33.993,127.523,33.937L127.523,33.937z
	 M127.971,33.974C127.846,33.952,127.927,34.033,127.971,33.974L127.971,33.974z M120.767,38.259c0.01,0,0.025,0,0.035,0
	c0-0.012,0-0.026,0-0.026c-0.009-0.011-0.025-0.011-0.035-0.011C120.767,38.221,120.767,38.247,120.767,38.259z M120.902,38.237
	C121.013,38.318,120.955,38.209,120.902,38.237L120.902,38.237z"/>
<path fill-rule="evenodd" clip-rule="evenodd" fill="#6D6E71" d="M115.094,28.519c-0.05-0.074,0.069-0.013,0.099,0
	c0,0.031-0.053,0.065-0.038,0c-0.023,0.025-0.05,0.011-0.021,0C115.13,28.497,115.094,28.5,115.094,28.519z"/>
<path fill-rule="evenodd" clip-rule="evenodd" fill="#6D6E71" d="M114.997,28.519C115.057,28.487,115.107,28.6,114.997,28.519
	L114.997,28.519z"/>
<path fill-rule="evenodd" clip-rule="evenodd" fill="#6D6E71" d="M96.571,31.849C96.607,31.905,96.493,31.961,96.571,31.849
	L96.571,31.849z"/>
<path fill-rule="evenodd" clip-rule="evenodd" fill="#6D6E71" d="M46.126,32.944c0.001-0.028,0.016-0.016,0.016,0
	c0.019,0,0.022-0.01,0.022-0.022c0.011,0.022-0.011,0.065-0.022,0.117c0,0.067,0.011-0.1-0.036-0.039
	C46.034,32.988,46.201,32.96,46.126,32.944z"/>
<path fill-rule="evenodd" clip-rule="evenodd" fill="#6D6E71" d="M120.55,38.416c0.07-0.016,0.095,0.016,0.019,0
	C120.564,38.416,120.504,38.422,120.55,38.416z"/>
<path fill-rule="evenodd" clip-rule="evenodd" fill="#6D6E71" d="M77.152,54.779c0.024,0,0.011,0.016,0,0.016
	c-0.396,1.243-0.382,2.845-0.039,4.031c0.152,0.523,0.457,1.074,0.74,1.562c0.585,0.999,1.307,1.695,2.299,2.275
	c0.487,0.287,1.014,0.545,1.617,0.664c1.316,0.261,2.801-0.026,3.878-0.507c1.031-0.46,1.94-1.086,2.745-1.831
	c0.793-0.732,1.509-1.565,2.006-2.571c1.014-2.054,1.468-4.534,1.732-7.423c0.344,1.853,0.46,3.869,0.25,5.787
	c-0.199,1.866-0.657,3.54-1.283,4.949c-0.64,1.443-1.418,2.704-2.473,3.761c-1.032,1.031-2.406,1.835-4.071,2.158
	c-0.984,0.194-1.949,0.194-2.845,0.078c-0.876-0.111-1.686-0.429-2.376-0.739c-0.721-0.326-1.349-0.735-1.889-1.227
	c-0.549-0.491-1.038-1.087-1.404-1.715c-0.37-0.635-0.748-1.366-0.895-2.219c-0.147-0.874-0.236-1.947-0.118-2.88
	c0.111-0.864,0.407-1.654,0.759-2.36C76.144,55.878,76.584,55.246,77.152,54.779z"/>
<path fill-rule="evenodd" clip-rule="evenodd" fill="#6D6E71" d="M48.073,65.121c0.179,0.139,0.283,0.355,0.427,0.524
	c1.025,1.239,2.268,2.349,3.819,3.097c1.601,0.773,3.495,1.095,5.451,1.461c0.28,0.05,0.585,0.063,0.82,0.154
	c0.235,0.097,0.625,0.579,0.856,0.801c1.499,1.415,3.288,2.642,5.243,3.583c2.399,1.157,5.003,1.935,8.238,2.219
	c-4.463,0.595-8.722-0.327-11.999-1.518c-3.377-1.23-6.211-3.061-8.65-5.261C50.643,68.709,49.237,67.013,48.073,65.121z"/>
</svg>
