<?xml version="1.0" encoding="utf-8"?>
<!-- Generator: Adobe Illustrator 15.0.0, SVG Export Plug-In  -->
<!DOCTYPE svg PUBLIC "-//W3C//DTD SVG 1.1//EN" "http://www.w3.org/Graphics/SVG/1.1/DTD/svg11.dtd" [
	<!ENTITY ns_flows "http://ns.adobe.com/Flows/1.0/">
]>
<svg version="1.1"
	 xmlns="http://www.w3.org/2000/svg" xmlns:xlink="http://www.w3.org/1999/xlink" xmlns:a="http://ns.adobe.com/AdobeSVGViewerExtensions/3.0/"
	 x="0px" y="0px" width="293px" height="227px" viewBox="-63.968 -85.17 293 227"
	 overflow="visible" enable-background="new -63.968 -85.17 293 227" xml:space="preserve">
<defs>
</defs>
<path fill-rule="evenodd" clip-rule="evenodd" fill="#6D6E71" d="M164.453,28.143c-27.69,9.396-55.112,19.054-82.666,28.583
	C54.494,47.13,27.319,37.419,0,27.853C27.087,18.441,54.461,9.322,81.641,0c25.767,8.544,52.02,17.576,77.828,26.239
	c1.317,0.439,2.567,0.815,3.956,1.318C163.752,27.678,164.347,27.712,164.453,28.143z M40.164,17.004c0,0.145,0,0.296,0,0.445
	c0.42,0.645,2.124,0.017,2.341,0.874c0.003,5.771-0.001,12.795,0,19.055c-0.352,0.92-2.652-0.115-2.341,1.463
	c0.141,0.821,1.177,0.424,1.609,0.442c0.687,0.031,1.514,0,2.199,0c4.262,0,9.231,0.409,13.189,0
	c5.121-0.528,9.279-5.74,9.235-11.288c-0.042-5.418-4.05-10.903-8.938-11.432c-5.351-0.577-10.933,0.426-17.153,0
	C40.137,16.587,40.148,16.797,40.164,17.004z M72.262,23.599c-1.042,1.178-2.333,3.67-2.347,6.304
	c-0.048,9.174,11.37,12.622,18.761,8.792c3.949-2.043,7.104-7.634,4.103-13.334c-1.971-3.742-6.625-6.132-12.751-5.421
	C76.142,20.381,73.646,22.037,72.262,23.599z M94.248,21.109c0,0.39,0,0.78,0,1.17c0.645-0.058,1.128,0.042,1.466,0.296
	c1.744,5.141,4.043,9.73,5.565,15.094c-0.083,0.701-1.239,0.326-1.466,0.882c0,0.34,0,0.68,0,1.027c3.228,0,6.452,0,9.676,0
	c0-0.347,0-0.687,0-1.027c-0.137-0.601-1.473,0.003-1.468-0.735c0.954-3.198,2.464-5.846,3.815-8.646
	c0.932,2.977,2.338,5.473,3.076,8.646c-0.4,0.579-1.607,0.347-1.176,1.762c2.983,0,5.964,0,8.944,0c0-0.392,0-0.787,0-1.174
	c-0.229-0.357-1.234,0.059-1.32-0.44c0.204-1.445,0.895-2.822,1.466-4.103c1.171-2.64,2.39-5.092,3.52-7.622
	c0.547-1.234,0.908-2.675,1.905-3.664c0.334-0.254,0.815-0.354,1.464-0.296c0-0.442,0-0.877,0-1.318c-2.98,0-5.959,0-8.942,0
	c0,0.392,0,0.779,0,1.171c0.428,0.309,1.337,0.13,1.468,0.738c-1.021,3.283-2.282,6.313-3.521,9.377
	c-1.375-3.513-2.687-7.087-3.954-10.703c-2.053,0-4.104,0-6.158,0c-1.158,3.489-2.379,6.911-3.662,10.265
	c-1.03-2.978-2.212-5.804-2.932-9.09c-0.058-0.69,1.15-0.12,1.172-0.735c0-0.292,0-0.582,0-0.875
	C100.538,20.866,96.89,20.866,94.248,21.109z"/>
<path fill-rule="evenodd" clip-rule="evenodd" fill="#6D6E71" d="M47.927,21.403c3.176,0,6.35,0,9.532,0
	c4.856,1.363,5.711,10.682,0.733,12.606c-2.826,1.089-6.656-0.206-10.407,0.292c0-4.154,0-8.304,0-12.463
	C47.771,21.635,47.759,21.423,47.927,21.403z"/>
<path fill-rule="evenodd" clip-rule="evenodd" fill="#6D6E71" d="M80.761,24.625c3.404-0.47,5.903,1.14,6.594,1.904
	c0.512,0.558,1.025,1.602,1.027,1.614c0.486,1.286,0.41,4.002-0.877,5.572c-2.744,3.345-9.086,2.508-11.142,0
	c-0.167-0.208-0.848-1.272-1.027-1.906C74.143,27.499,77.432,25.088,80.761,24.625z"/>
<path fill-rule="evenodd" clip-rule="evenodd" fill="#6D6E71" d="M125.759,44.854c3.291-0.575,5.245,1.511,5.279,4.101
	c0.051,4.763-6.845,5.844-8.507,1.904C121.341,48.039,123.056,45.326,125.759,44.854z M125.025,52.327
	c2.354,1.105,5.182-0.42,5.13-3.372c-0.043-2.352-1.772-3.849-4.251-3.372C122.718,46.202,121.994,50.902,125.025,52.327z"/>
<path fill-rule="evenodd" clip-rule="evenodd" fill="#6D6E71" d="M125.025,46.466c1.307-0.041,2.546-0.003,3.374,0.44
	c0.498,1.04,0.192,2.255-0.883,2.493c0.194,0.928,0.979,1.27,1.172,2.195c-1.833,0.174-1.021-2.3-2.784-2.195
	c-0.508,0.367,0.302,2.063-0.441,2.195c-0.779-0.142-0.434-1.365-0.438-2.195c-0.005-0.862,0.004-1.799,0-2.493
	C125.025,46.758,125.025,46.61,125.025,46.466z M125.759,48.664c0.735-0.045,1.732,0.168,2.052-0.295
	c0.082-0.471-0.1-0.68-0.148-1.023c-0.47-0.211-1.228-0.136-1.904-0.148C125.759,47.685,125.759,48.176,125.759,48.664z"/>
</svg>
