<?xml version="1.0" encoding="utf-8"?>
<!-- Generator: Adobe Illustrator 15.0.0, SVG Export Plug-In  -->
<!DOCTYPE svg PUBLIC "-//W3C//DTD SVG 1.1//EN" "http://www.w3.org/Graphics/SVG/1.1/DTD/svg11.dtd" [
	<!ENTITY ns_flows "http://ns.adobe.com/Flows/1.0/">
]>
<svg version="1.1"
	 xmlns="http://www.w3.org/2000/svg" xmlns:xlink="http://www.w3.org/1999/xlink" xmlns:a="http://ns.adobe.com/AdobeSVGViewerExtensions/3.0/"
	 x="0px" y="0px" width="188px" height="188px" viewBox="-27.152 -30.881 188 188"
	 overflow="visible" enable-background="new -27.152 -30.881 188 188" xml:space="preserve">
<defs>
</defs>
<g>
	<g>
		<path fill="#1071B3" d="M112.849,70.31c-0.812,0-1.479-0.647-1.499-1.464c-0.444-18.223-10.005-34.783-25.577-44.3
			c-0.707-0.433-0.93-1.355-0.498-2.062s1.355-0.928,2.062-0.498c16.445,10.051,26.542,27.542,27.011,46.788
			c0.02,0.828-0.635,1.516-1.463,1.536C112.874,70.31,112.861,70.31,112.849,70.31z"/>
	</g>
</g>
<g>
	<g>
		<path fill="#1071B3" d="M3.049,70.31c-0.012,0-0.024,0-0.037,0c-0.828-0.021-1.483-0.708-1.463-1.536
			c0.47-19.246,10.567-36.735,27.011-46.786c0.708-0.43,1.63-0.209,2.062,0.498c0.432,0.707,0.209,1.63-0.498,2.062
			C14.555,34.063,4.993,50.624,4.548,68.846C4.528,69.662,3.861,70.31,3.049,70.31z"/>
	</g>
</g>
<g>
	<g>
		<path fill="#1071B3" d="M57.951,126.603c-10.566,0-20.88-2.949-29.827-8.528c-0.703-0.438-0.917-1.363-0.479-2.066
			c0.438-0.702,1.365-0.917,2.066-0.479c8.471,5.281,18.236,8.073,28.24,8.073s19.768-2.792,28.236-8.073
			c0.705-0.438,1.628-0.224,2.067,0.479c0.438,0.703,0.224,1.628-0.479,2.066C78.83,123.653,68.517,126.603,57.951,126.603z"/>
	</g>
</g>
<path fill="#333333" d="M21.197,120.042c0,1.381-1.159,2.502-2.589,2.502H2.587c-1.428,0-2.587-1.121-2.587-2.502V79.911
	c0-1.379,1.159-2.502,2.587-2.502h16.021c1.43,0,2.589,1.123,2.589,2.502V120.042z"/>
<rect x="1.736" y="83.155" fill="#FFFFFF" width="17.723" height="31.826"/>
<circle fill="#FFFFFF" cx="10.598" cy="118.825" r="1.751"/>
<path fill="#FFFFFF" d="M12.706,80.806c0,0.303-0.247,0.551-0.553,0.551H9.044c-0.306,0-0.553-0.248-0.553-0.551l0,0
	c0-0.307,0.247-0.555,0.553-0.555h3.109C12.459,80.251,12.706,80.499,12.706,80.806L12.706,80.806z"/>
<circle fill="#FFFFFF" cx="10.598" cy="79.009" r="0.439"/>
<path fill-rule="evenodd" clip-rule="evenodd" fill="#1071B3" d="M11.052,105.731c-1.236-1.424-2.62-3.102-3.571-4.924
	c-0.319-0.611-0.691-1.301-0.756-2.055c-0.121-1.369,0.477-2.42,1.108-3.111c0.658-0.719,1.651-1.322,2.893-1.406
	c1.46-0.1,2.617,0.506,3.356,1.246c0.709,0.709,1.399,1.83,1.27,3.326c-0.062,0.713-0.43,1.457-0.757,2.055
	C13.612,102.665,12.298,104.257,11.052,105.731z M9.13,97.157c-0.459,0.844-0.156,2.021,0.353,2.541
	c1.256,1.291,3.53,0.467,3.706-1.246c0.147-1.438-0.921-2.441-2.19-2.404C10.066,96.075,9.428,96.61,9.13,97.157z"/>
<path fill="#1071B3" d="M98.805,4.734c-0.275-0.48-1.881-0.682-2.712-0.814c-3.057-0.477-6.372-0.676-9.544-0.875
	c-9.503-0.57-18.531,2.154-27.88,2.74C49.323,5.199,40.3,2.475,30.797,3.045c-3.182,0.199-6.479,0.398-9.553,0.875
	c-0.83,0.133-2.429,0.334-2.706,0.814c-0.84,1.459,5.475,2.453,7.367,2.842c4.949,1.037,9.529,1.188,14.823,1.066
	c0,0,14.95-1.465,17.94-1.867c2.988,0.402,17.947,1.867,17.947,1.867c5.301,0.121,9.864-0.029,14.82-1.066
	C93.333,7.188,99.638,6.193,98.805,4.734z"/>
<path fill="#333333" d="M62.524,11.598c0,0,0.047-11.127-4.157-11.598c-4.202,0.471-4.157,11.598-4.157,11.598
	s0.109,0.018,0.293,0.045h7.701C62.312,11.629,62.417,11.613,62.524,11.598z"/>
<polygon fill="#333333" points="46.044,16.002 45.989,16.041 45.989,31.947 71.64,31.947 71.64,16.041 71.586,16.002 "/>
<rect x="48.606" y="12.992" fill="#333333" width="19.521" height="3.869"/>
<path fill="#333333" d="M94.577,94.886c-0.061-0.102-0.34-0.201-0.438-0.232c-0.334-0.107-0.892-0.033-1.243,0.064
	c-0.652,0.182-1.015,0.676-1.208,1.33c-0.261,0.891,0.2,1.828,0.972,2.291c0.374,0.227,0.81,0.328,1.165,0.59
	c0.34,0.25,0.629,0.592,0.791,0.986c0,0,0.4,0.932,0.458,1.467c0,0,0.21,1.598,1.351,1.844c0,0-0.304,0.912-0.896,0.779
	l-0.608,0.014l2.359,1.586c0,0-0.494-1.998,0.381-2.189c0,0,0.438-0.285,0.552,0.914c0,0,0.362,0.666,0.132-1.18
	c0,0-0.132-0.371,1.144-0.963l-0.229-0.596c0,0-1.197,1.084-2.453,0.873c0,0-0.928,0.096-1.254-1.672
	c-0.063-0.348-0.154-0.684-0.268-1.02c-0.055-0.16-0.33-0.479-0.306-0.635c0.054-0.332,0.763-0.08,0.949-0.049
	c0.397,0.064,0.802,0.164,1.089,0.463c0.302,0.312,0.469,0.752,0.588,1.164c0,0,0.475,0.418,0-1.334c0,0-0.344-0.9,0.873-1.605
	c0,0-0.346-0.721-0.312-0.68c-0.064,0.133-0.957,1.023-1.017,1.057c-0.616,0.334-1.336,0.432-2.03,0.402
	c-0.946-0.043-2.568-0.326-2.791-1.443c-0.072-0.371-0.01-1.033,0.237-1.355c0,0,0.827-1.316,2.515,0.262L94.577,94.886z"/>
<path fill="#333333" d="M107.146,112.56c-0.545,0-1.075-0.102-1.581-0.301c-1.085-0.012-6.639-0.186-7.635-2.615l-2.006-4.328
	c-1.246-0.303-5.851-1.645-7.229-5.141l-0.018-0.057l-0.658-2.297c-0.343-0.633-2.659-5.201,0.046-8.766
	c0.387-0.781,4.092-7.893,10.509-7.893c0.261,0,0.527,0.016,0.792,0.035c0.578-0.588,2.215-1.926,5.198-1.926
	c0.979,0,2.022,0.145,3.109,0.432c0.031-0.023,0.053-0.041,0.059-0.047c0.791-0.561,1.757-0.867,2.721-0.867
	c0.453,0,0.891,0.07,1.298,0.209c0.306,0.102,0.747,0.275,1.122,0.537c0.141,0.1,0.461,0.408,0.811,0.844
	c0.557-0.264,1.527-0.631,2.618-0.631c1.218,0,2.294,0.463,3.136,1.344c0.186-0.008,0.441-0.021,0.752-0.021
	c1.746,0,5.954,0.406,7.782,4.137c0.813,0.42,3.565,2.127,4.058,6.244c0.706,0.701,3.037,3.426,1.536,7.486
	c0.229,0.654,0.696,2.455-0.54,3.793c0.145,0.701,0.314,2.232-0.579,3.455c-0.944,1.293-2.737,1.82-5.327,1.568l-0.055-0.006
	l-0.051-0.014c-0.007-0.002-0.806-0.217-2.24-0.217c-1.87,0-4.922,0.361-8.827,2.1l-0.038,0.016l-7.062,2.578
	C108.679,112.288,108.036,112.56,107.146,112.56z M89.832,99.759c1.341,3.336,6.581,4.428,6.635,4.439l0.3,0.061l2.279,4.92
	c0.545,1.361,4.363,1.871,6.641,1.871h0.125l0.113,0.047c0.39,0.168,0.801,0.254,1.222,0.254c0.698,0,1.194-0.236,1.2-0.238
	l0.059-0.027l7.07-2.58c4.091-1.814,7.314-2.195,9.299-2.195c1.408,0,2.28,0.191,2.51,0.246c0.365,0.033,0.715,0.053,1.039,0.053
	c1.536,0,2.592-0.379,3.145-1.129c0.814-1.107,0.316-2.742,0.311-2.758l-0.117-0.377l0.301-0.262
	c1.217-1.045,0.413-2.877,0.404-2.896l-0.105-0.232l0.096-0.24c1.606-4.018-1.17-6.414-1.289-6.512l-0.188-0.16l-0.026-0.244
	c-0.41-4.205-3.537-5.568-3.57-5.58l-0.218-0.092l-0.099-0.215c-1.43-3.16-4.858-3.633-6.775-3.633
	c-0.562,0-0.921,0.043-0.926,0.045l-0.325,0.041l-0.214-0.252c-0.641-0.768-1.455-1.154-2.423-1.154
	c-1.32,0-2.456,0.699-2.469,0.707l-0.481,0.299l-0.329-0.459c-0.386-0.539-0.763-0.916-0.851-0.984
	c-0.189-0.129-0.48-0.268-0.807-0.377c-0.282-0.096-0.592-0.143-0.912-0.143c-0.698,0-1.428,0.227-2.004,0.631
	c-0.014,0.012-0.033,0.031-0.057,0.049c-0.234,0.203-0.343,0.295-0.573,0.295h-0.085l-0.082-0.021
	c-1.091-0.316-2.129-0.473-3.088-0.473c-3.151,0-4.457,1.699-4.471,1.717l-0.211,0.281l-0.351-0.045
	c-0.319-0.041-0.643-0.062-0.958-0.062c-5.892,0-9.411,7.191-9.447,7.264l-0.027,0.059l-0.039,0.051
	c-2.418,3.123,0.022,7.502,0.047,7.545l0.036,0.062L89.832,99.759z"/>
<path fill="#333333" d="M104.226,87.688c-0.276-0.178-0.675-0.266-1.186-0.266c-0.799,0-1.625,0.219-1.744,0.252
	c-0.148-0.068-0.668-0.885-0.864-1.234c-0.196-0.359-0.253-0.746-0.312-1.156l-0.025-0.176c-0.066-0.43-0.078-0.84-0.034-1.225
	c0.138-1.217,0.771-2.307,1.651-2.842c0.393-0.236,0.911-0.49,1.188-0.49c0.044,0,0.079,0.008,0.104,0.02c0,0,0,0,0.002,0
	c0.041,0.021,0.094,0.006,0.115-0.039c0.021-0.043,0.004-0.094-0.039-0.113c-0.201-0.102-0.419-0.156-0.645-0.156
	c-1.393,0-2.722,1.904-2.768,1.973c-0.06,0.062-0.071,0.184-0.078,0.455c-0.002,0.061-0.004,0.115-0.007,0.141
	c-0.03,0.219-0.075,0.432-0.125,0.633c-0.366,1.449-1.359,2.863-2.722,3.881c-0.038,0.027-0.045,0.082-0.016,0.117
	c0.027,0.041,0.082,0.047,0.119,0.02l0.001-0.002c0.302-0.223,0.655-0.244,0.804-0.238c0.096,0.967,0.66,1.547,0.686,1.574
	c0.026,0.027,0.07,0.031,0.104,0.014s0.05-0.057,0.04-0.096c-0.476-1.855,0.349-2.744,0.704-3.025
	c-0.008,0.881,1.056,2.076,1.33,2.369c-2.419,2.207-2.205,3.744-2.195,3.811c0.006,0.037,0.038,0.068,0.078,0.072
	c0.001,0,0.005,0,0.007,0c0.036,0,0.069-0.023,0.082-0.059c1.257-3.773,4.429-4.066,5.37-4.066c0.199,0,0.314,0.014,0.316,0.014
	c0.042,0.004,0.076-0.02,0.092-0.061C104.273,87.751,104.259,87.71,104.226,87.688z"/>
<path fill="#333333" d="M98.913,90.161c-0.58-0.502-1.222-0.766-1.854-0.766c-0.474,0-0.919,0.145-1.328,0.439
	c-0.498-0.658-0.797-1.25-0.917-1.812c-0.193-0.904,0.228-1.516,0.714-2.221c0.088-0.125,0.176-0.25,0.265-0.377
	c0.118-0.16,0.233-0.326,0.347-0.494l0,0c0.027-0.039,0.016-0.092-0.023-0.119c-0.039-0.025-0.094-0.014-0.121,0.023
	c-0.104,0.154-0.254,0.303-0.4,0.441c-0.084,0.084-0.17,0.168-0.243,0.25l-0.249,0.277c-0.133,0.145-0.267,0.295-0.4,0.441
	c-0.393,0.428-0.864,0.926-1.396,1.373c-0.128,0.107-0.257,0.215-0.387,0.324c-0.29,0.248-0.593,0.506-0.894,0.74
	c-0.028,0.02-0.057,0.043-0.083,0.064c-0.036,0.029-0.042,0.082-0.014,0.119c0.03,0.037,0.083,0.045,0.121,0.016l0.08-0.062
	c0.372-0.271,0.896-0.461,1.261-0.549c0.049-0.012,0.098-0.016,0.144-0.016c0.394,0,0.685,0.416,0.921,0.754l0.055,0.08
	c0.292,0.414,0.456,0.877,0.575,1.283c-0.454,0.43-1.155,1.246-1.176,2.195c-0.226-0.047-0.481-0.072-0.765-0.072
	c-0.443,0-0.849,0.057-1.108,0.109c-0.14,0.023-0.273,0.07-0.403,0.113c-0.184,0.061-0.356,0.119-0.523,0.119
	c-0.127,0-0.238-0.031-0.347-0.1c-0.257-0.166-0.331-0.475-0.404-0.777c-0.023-0.088-0.044-0.176-0.069-0.258
	c-0.012-0.039-0.047-0.064-0.088-0.061c-0.039,0.004-0.072,0.031-0.08,0.07c-0.202,1.117-0.338,2.281,0.387,3.219
	c0.016,0.021,0.049,0.031,0.069,0.037c0.05-0.006,0.087-0.041,0.087-0.09c0-0.014-0.002-0.025-0.004-0.035
	c-0.019-0.143,0.031-0.318,0.076-0.475c0.012-0.039,0.023-0.078,0.032-0.115c0.041-0.15,0.116-0.301,0.231-0.461
	c0.373-0.518,0.955-0.625,1.377-0.625c0.065,0,0.131,0.002,0.196,0.01c0.44,0.031,0.882,0.113,1.28,0.24
	c0.013,0.076,0.021,0.154,0.028,0.23c0.017,0.145,0.032,0.289,0.065,0.432c0.058,0.236,0.139,0.469,0.241,0.686
	c0.241,0.514,0.608,0.932,0.962,1.336c0.076,0.086,0.15,0.172,0.223,0.258c0.018,0.02,0.043,0.031,0.066,0.031h0.002
	c0.043,0.002,0.087-0.039,0.087-0.086c0-0.021-0.007-0.043-0.021-0.057c-0.494-1.023-0.772-1.846-0.902-2.662
	c-0.084-0.529-0.033-0.992,0.155-1.373c0.227-0.461,0.62-0.832,1.01-1.166l0.108-0.092c0.351-0.301,0.711-0.611,1.162-0.637
	c0.018-0.002,0.035-0.002,0.051-0.002c0.717,0,1.16,0.771,1.279,1.008c0.014,0.031,0.048,0.051,0.08,0.049
	c0.034-0.004,0.064-0.025,0.076-0.057l0.41-1.059C98.951,90.222,98.94,90.183,98.913,90.161z"/>
<path fill="#333333" d="M90.263,87.704c0,0-1.227,1.633,1.158,2.654c0,0,1.057,0.41,1.193,0.887c0,0,0,0.229-1.567-0.652
	c0,0-2.29-1.086-2.964,0.994C88.083,91.587,88.831,87.704,90.263,87.704z"/>
<path fill="#333333" d="M93.901,100.62c-0.019-0.184-0.07-0.379-0.156-0.582c-0.032-0.074-0.082-0.148-0.129-0.219
	c-0.053-0.086-0.106-0.164-0.129-0.238c-0.014-0.047-0.062-0.072-0.109-0.061c-0.045,0.016-0.07,0.064-0.055,0.111l0,0
	c0.055,0.178,0.063,0.527-0.061,0.693c-0.057,0.078-0.141,0.105-0.25,0.08c-0.205-0.045-0.384-0.281-0.527-0.469
	c-0.039-0.053-0.074-0.1-0.109-0.141l-0.107-0.135c-0.078-0.096-0.153-0.189-0.231-0.281c-0.506-0.602-1.132-1.127-1.86-1.564
	l-0.133-0.082c-0.34-0.201-0.66-0.396-0.932-0.695c-0.033-0.037-0.07-0.076-0.111-0.117c-0.125-0.127-0.279-0.285-0.326-0.42v-0.004
	c-0.014-0.043-0.062-0.068-0.107-0.053s-0.07,0.066-0.055,0.109l0.578,1.74c0.014,0.037,0.054,0.064,0.096,0.057
	s0.094,0.773,0.094,0.73c0-0.084,0.217-0.135,0.195-0.217c-0.044-0.156,0.216-0.383,0.338-0.393
	c0.324-0.025,0.516,0.195,0.765,0.432c0.06,0.061,0.12,0.119,0.18,0.174c0.188,0.172,0.376,0.359,0.558,0.541
	c0.465,0.461,0.943,0.938,1.52,1.285c0.135,0.08,0.547,0.326,0.574,0.539c0.005,0.029,0.004,0.076-0.052,0.133
	c-0.032,0.035-0.032,0.09,0.002,0.121c0.017,0.018,0.038,0.027,0.06,0.027c0.023,0,0.047-0.01,0.062-0.027
	C93.798,101.37,93.936,101.019,93.901,100.62z"/>
<path fill="#333333" d="M123.077,82.431l-2.951-0.674c0,0-3.527-0.98-3.529-0.98c-0.045-0.014-0.094,0.014-0.104,0.061
	c-0.013,0.043,0.015,0.094,0.06,0.105c0.202,0.057,0.416,0.184,0.623,0.309c0.072,0.043,0.141,0.084,0.207,0.121
	c0.221,0.123,0.453,0.262,0.66,0.434c0.209,0.176,0.409,0.496,0.491,0.779c0.079,0.271,0.075,0.623-0.005,0.902
	c-0.127,0.439-0.469,0.939-0.938,1.377c-0.245,0.225-0.529,0.41-0.805,0.584c-0.211,0.137-0.43,0.275-0.631,0.434
	c-0.385,0.303-0.686,0.719-0.867,1.172c-0.193,0.479-0.18,0.998-0.184,1.504c0,0.143,0,0.281,0,0.424
	c0,0.174,0.006,0.35,0.011,0.523c0.015,0.379,0.028,0.77-0.024,1.143c-0.113,0.812-0.688,1.412-1.755,1.832
	c-0.478,0.188-0.91,0.465-1.251,0.803c-0.467,0.463-0.818,1.074-1.076,1.857c-0.174,0.535-0.197,1.096-0.217,1.637
	c-0.016,0.367-0.03,0.744-0.09,1.105c-0.129,0.752-0.417,1.145-0.93,1.277c-0.278,0.072-0.488,0.078-0.668,0.02
	c-0.289-0.09-0.551-0.225-0.756-0.387c-0.768-0.611-1.033-1.568-1.291-2.49c-0.043-0.156-0.086-0.309-0.131-0.461
	c-0.085-0.285-0.157-0.52-0.252-0.76c-0.004-0.012-0.01-0.031-0.018-0.049c-0.045-0.137-0.09-0.256-0.17-0.299
	c-0.029-0.014-0.055-0.021-0.079-0.021s-0.064,0.02-0.081,0.039c-0.035,0.041-0.027,0.1-0.018,0.154
	c0.004,0.016,0.455,2.465,0.458,2.473c0.346,1.211-0.318,1.592-0.357,1.613c-0.54,0.393-1.956,0.893-1.972,0.902
	c-1.571,0.623-2.748,0.717-3.31,0.717c-0.216,0-0.337-0.014-0.337-0.014c-0.713-0.186-0.997-1.787-0.999-1.803
	c-0.009-0.047-0.05-0.078-0.097-0.072c-0.046,0.006-0.078,0.047-0.074,0.094c0.162,1.783-0.258,2.518-0.264,2.529
	c-0.008,0.012-0.189,0.32-0.19,0.334c-0.019,0.131-0.107,0.705,0.067,0.623c0.166-0.078,0.184-0.062,0.322-0.164
	c0.391-0.27,0.926-0.498,0.93-0.504c0.062-0.031,0.166-0.039,0.256-0.051c0.059-0.006,0.115-0.012,0.162-0.02
	c0.195-0.043,0.391-0.092,0.592-0.143c0.623-0.154,1.247-0.338,1.854-0.512c0.216-0.062,0.435-0.125,0.652-0.188l0.153-0.041
	c0.521-0.148,1.06-0.301,1.551-0.539c0.689-0.336,1.274-0.5,1.79-0.5c0.459,0,0.871,0.135,1.227,0.396
	c0.916,0.684-0.544,2.662-0.56,2.684c-0.022,0.031-0.022,0.07-0.001,0.102c0.017,0.021,0.044,0.037,0.072,0.037
	c0.008,0,0.016-0.002,0.025-0.004c0.925-0.297,1.321-1.377,1.338-1.424c0.031-0.1,0.055-0.193,0.08-0.289
	c0.079-0.316,0.146-0.584,0.408-0.795c0.132-0.105,0.3-0.154,0.474-0.205c0.106-0.035,0.219-0.066,0.321-0.113
	c0.721-0.328,0.704-0.455,0.695-0.512c-0.07-0.527-0.145-1.156-0.152-1.785c-0.01-0.705,0.051-1.723,0.4-2.541
	c0.111-0.258,0.257-0.504,0.436-0.732c0.257-0.332,0.569-0.631,0.925-0.889c0.196-0.141,0.411-0.262,0.62-0.381
	c0.229-0.125,0.463-0.26,0.678-0.418c0.621-0.461,1.381-1.307,1.479-2.176c0.04-0.357,0.032-0.729,0.023-1.086
	c-0.004-0.178-0.008-0.357-0.006-0.531c0.002-0.195,0.004-0.391,0.004-0.584c0.004-0.539,0.125-1.08,0.554-1.443
	c0.259-0.217,0.564-0.373,0.842-0.564c0.288-0.203,0.526-0.461,0.751-0.73c0.586-0.693,1.133-1.449,1.547-2.258
	c0.176-0.346,0.359-0.67,0.674-0.795c0.373-0.148,0.838-0.178,1.162-0.178c0.18,0,0.359,0.01,0.536,0.025
	c0.342,0.035,0.674,0.078,0.991,0.146c0.047,0.01,0.092-0.02,0.104-0.066C123.151,82.485,123.123,82.438,123.077,82.431z"/>
<path fill="#333333" d="M114.725,83.864c-0.612,0.012-1.321-0.438-1.529-0.971c-0.138-0.354-0.035-0.691,0.297-0.984
	c0.028-0.023,0.036-0.066,0.021-0.1c0,0-0.424-0.898-0.43-0.91c-0.021-0.043-0.07-0.061-0.112-0.043
	c-0.039,0.018-0.06,0.059-0.05,0.102c-0.009,0.082-0.192,0.424-0.293,0.609c-0.095,0.18-0.155,0.287-0.173,0.344
	c-0.19,0.576-0.169,1.186-0.147,1.773c0.006,0.168,0.012,0.338,0.014,0.506c-0.054,0.037-0.158,0.105-0.221,0.143
	c-0.057,0.033-0.103,0.062-0.11,0.066c-0.264,0.189-0.568,0.428-0.821,0.775c-0.316,0.436-0.534,0.93-0.646,1.469
	c-0.021,0.092-0.029,0.227-0.039,0.385c-0.022,0.357-0.055,0.891-0.252,0.988c-0.234,0.111-0.654-0.195-0.883-0.359
	c-0.031-0.023-0.062-0.045-0.09-0.064c-0.268-0.188-0.521-0.402-0.77-0.609c-0.181-0.152-0.368-0.312-0.561-0.457
	c-0.539-0.414-1.006-0.924-1.359-1.502c-0.09-0.148-0.193-0.283-0.297-0.422c-0.08-0.109-0.156-0.225-0.201-0.355
	c-0.035-0.098-0.059-0.207-0.074-0.312c0,0,0.002,0.012,0.003,0.016c-0.005-0.031-0.054-0.191-0.11-0.145
	c-0.059,0.045-0.078,0.113-0.102,0.178c-0.077,0.207-0.217,0.426-0.381,0.574c-0.082,0.072-0.182,0.131-0.289,0.158
	c-0.291,0.074-0.602-0.072-0.857-0.191c-0.15-0.072-0.298-0.146-0.446-0.221c-0.081-0.039-0.245-0.141-0.337-0.084
	c-0.166,0.102,0.344,0.48,0.421,0.549c0.179,0.154,0.36,0.312,0.573,0.414c0.249,0.121,0.521,0.189,0.789,0.254
	c0.115,0.027,0.217,0.035,0.311,0.107c0.541,0.428,1.07,0.873,1.607,1.309c0.48,0.391,0.961,0.779,1.444,1.168
	c0.03,0.021,0.498,0.396,0.503,0.391c-0.254,0.312-1.234,1.555-1.495,2.609c-0.655-0.127-4.933-0.854-6.585,1.779
	c-0.492,0.785-1.048,1.535-1.946,1.354c-0.366-0.074-0.688-0.293-0.998-0.506c-0.104-0.068-0.206-0.139-0.311-0.203
	c-0.418-0.26-0.973-0.574-1.58-0.707c-0.04-0.008-0.079,0.01-0.095,0.049c-0.018,0.035-0.008,0.078,0.023,0.104
	c0.012,0.008,1.117,0.881,1.424,1.305c0.013,0.014,1.381,1.57,0.479,3.146c-0.022,0.043-0.009,0.096,0.033,0.119
	c0.033,0.021,0.074,0.012,0.101-0.012l0.157,0.168c-0.008,0.025-0.013,0.047-0.014,0.053c-0.012,0.047-0.254,0.312-0.209,0.324
	c0.05,0.01,0.138-0.053,0.178-0.076c0.037-0.021,0.076-0.041,0.113-0.07c0.033-0.021,0.076-0.041,0.098-0.076
	c0.016-0.029,0.019-0.076,0.027-0.105c0.005-0.025,0.012-0.049,0.017-0.074c0.015-0.055,0.027-0.107,0.042-0.16
	c0.041-0.154,0.084-0.307,0.129-0.457c0.056-0.184,0.115-0.363,0.18-0.541c0.065-0.182,0.137-0.359,0.221-0.531
	c0.074-0.154,0.152-0.301,0.256-0.438c0.009-0.012,0.023-0.025,0.032-0.041c0.003-0.008,0.379-0.674,0.856-0.674
	c0.003,0,0.008,0,0.013,0c0.304,0.008,0.595,0.289,0.862,0.826c0.16,0.484,0.27,1.008,0.346,1.654
	c0.024,0.225,0.027,0.402,0.009,0.574c-0.002,0.021-0.013,0.062-0.023,0.113c-0.06,0.242-0.091,0.408-0.02,0.486
	c0.034,0.037,0.077,0.057,0.122,0.057c0.015,0,0.027-0.002,0.041-0.006c0.221-0.057,0.393-0.594,0.395-0.6
	c0.084-0.361,0.041-0.74,0.002-1.105c-0.008-0.074-0.016-0.143-0.021-0.213c-0.068-0.74-0.149-1.34-0.253-1.891
	c-0.093-0.49,0.036-1.092,0.345-1.607c0.415-0.691,1.197-1.076,2.334-1.148c1.938-0.123,3.613,0.52,4.594,1.758
	c0.328,0.416,0.615,0.951,0.812,1.512c0.015,0.037,0.052,0.059,0.093,0.057c0.041-0.006,0.071-0.039,0.075-0.082
	c0.006-0.092,0.128-2.258-1.286-3.357c0.031-0.316,0.301-2.209,1.96-2.842c0,0,0.376-0.01,1.439,1.707
	c0.005,0.006,0.567,0.881,0.707,1.342c0.013,0.049,0.062,0.072,0.106,0.059c0.047-0.012,0.072-0.062,0.059-0.107
	c-0.066-0.223-0.123-0.453-0.176-0.676c-0.107-0.445-0.219-0.908-0.423-1.334c-0.106-0.223-0.233-0.438-0.358-0.646
	c-0.209-0.354-0.426-0.717-0.535-1.121c-0.25-0.904-0.089-1.756,0.477-2.533c0.01-0.016,1.071-1.541,2.775-1.588
	c0.049-0.002,0.087-0.043,0.085-0.088C114.811,83.899,114.774,83.864,114.725,83.864z"/>
<path fill="#333333" d="M109.743,79.979c0,0-1.826,0.82,0,1.799c0,0,2.199,1.244,2.702,1.457l0.184,1.033l-0.184,0.158
	c0,0-1.301-1.227-3.003-2.172c-0.033-0.016-0.064-0.033-0.096-0.051c-1.747-0.953-1.428-1.418-3.733-1.828l2.207,0.078
	L109.743,79.979z"/>
<path fill="#333333" d="M123.007,97.151c-0.013-0.029-0.044-0.051-0.078-0.051c-0.348,0-0.682,0.365-0.832,0.559
	c-0.263-0.42-0.975-0.771-1.01-0.785c-0.039-0.02-0.084-0.01-0.108,0.029c-0.023,0.033-0.021,0.082,0.011,0.109
	c0.425,0.398,0.531,0.852,0.531,0.855c0.005,0.021,0.016,0.041,0.03,0.049c0.36,0.279-0.077,1.197-0.171,1.504
	c-0.093,0.303-0.1,0.654-0.455,0.725c-0.622,0.123-1.25,0.059-1.873,0.244c-0.541,0.166-1.037,0.438-1.516,0.738
	c-0.79,0.492-1.54,1.039-2.217,1.682c-0.637,0.6-1.851,1.58-2.635,0.59c-0.12-0.643,1.058-2.656,1.527-3.383
	c0.023-0.037,0.016-0.086-0.017-0.113c-0.032-0.029-0.082-0.029-0.114,0c-1.245,1.088-1.87,2.773-1.877,2.797
	c-0.484,1.859-3.167,2.5-3.188,2.502c-0.505,0.08-0.953,0.121-1.332,0.121c-0.865,0-1.23-0.203-1.386-0.371
	c-0.134-0.146-0.122-0.281-0.122-0.281c0.001-0.018,0-0.029-0.004-0.039c-0.092-0.346-0.009-1.158,0.227-2.234
	c0.043-0.125,0.075-0.262,0.094-0.406c0.006-0.043-0.024-0.088-0.068-0.094c-0.045-0.01-0.089,0.018-0.102,0.062
	c0,0-0.037,0.156-0.09,0.393c-0.377,1.092-1.643,1.211-2.168,1.211c-0.179,0-0.293-0.012-0.295-0.012
	c-0.213-0.025-0.428-0.037-0.641-0.037c-1.768,0-2.894,0.771-2.94,0.805c-0.036,0.025-0.046,0.072-0.026,0.113
	c0.021,0.037,0.068,0.055,0.108,0.037c0.64-0.256,2.548-0.365,2.57-0.365c0.134-0.014,0.266-0.02,0.393-0.02
	c1.745,0,2.456,1.26,2.472,1.285c0.401,0.514,1.183,0.773,2.321,0.773c0.815,0,1.557-0.141,1.708-0.17
	c0.465,0.201,0.887,0.303,1.254,0.303c0.821,0,1.096-0.502,1.108-0.521c0.017-0.031,0.013-0.068-0.009-0.096
	c-0.021-0.025-0.056-0.037-0.089-0.031c-0.757,0.201-1.259,0.176-1.436-0.057c-0.081-0.107-0.079-0.238-0.071-0.309
	c0.629-0.09,1.607-0.76,1.845-0.928c0.278,0.195,0.63,0.289,1.044,0.289c0.479,0,0.922-0.127,1.145-0.205
	c-0.078,0.607,0.025,2.154,0.029,2.221c0,0.58-0.914,0.668-1.46,0.668c-0.365,0-0.661-0.037-0.661-0.037
	c-0.48-0.092-0.93-0.135-1.342-0.135c-0.555,0-1.463,0.055-1.88,0.496c-0.163,0.176-0.165,0.412-0.461,0.412
	c-0.231,0-0.467-0.152-0.474-0.156c-0.552-0.316-1.168-0.479-1.83-0.479c-0.872,0-1.505,0.279-1.523,0.287
	c-0.352,0.119-0.76,0.18-1.214,0.18c-1.603,0-3.288-0.75-3.308-0.76c-2.066-0.818-2.769-1.715-2.993-2.324
	c-0.239-0.646-0.085-1.402-0.083-1.41c0.018-0.033,0.095,0.215,0.065,0.189c-0.03-0.027-0.073-0.029-0.106-0.006
	c-0.328,0.229-0.527,0.562-0.594,0.986c-0.281,1.816,1.954,4.768,2.049,4.895c0.006,0.008,0.015,0.016,0.023,0.021l1.404,0.848
	c0.012,0.008,0.029,0.012,0.046,0.012c0.044,0.004,0.088-0.039,0.088-0.086c0-0.027-0.015-0.055-0.036-0.072
	c-1.373-1.6-1.394-2.049-1.34-2.166c0.021-0.043,0.065-0.062,0.136-0.062c0.023,0,0.042,0.002,0.04,0
	c1.151,0.404,2.477,0.607,3.936,0.607c1.613,0,2.82-0.26,2.82-0.26c0.15-0.012,0.297-0.018,0.432-0.018
	c1.229,0,1.581,0.502,1.658,0.656c-0.534,0.521-1.936,0.725-1.948,0.727c-0.042,0.006-0.073,0.039-0.075,0.078
	c-0.002,0.045,0.027,0.082,0.066,0.092c0.333,0.078,0.661,0.119,0.97,0.119c1.647-0.002,2.383-1.094,2.454-1.209
	c0.809-0.85,2.523-0.553,2.543-0.551c0.446,0.053,0.859,0.08,1.225,0.08c1.457-0.004,1.904-0.426,2.043-0.674
	c0.383,0.498,0.848,0.9,0.869,0.918c0.028,0.023,0.069,0.027,0.1,0.008l0.795-0.477c0.031-0.016,0.048-0.053,0.041-0.088
	c-0.006-0.035-0.031-0.062-0.066-0.07c-0.671-0.148-1.151-0.475-1.424-0.971c-0.584-1.057-0.055-2.555-0.052-2.564
	c0.555-1.256,1.918-2.031,2.373-2.264c-0.186,1.104-0.182,3.018-0.182,3.104c0,0.047,0.038,0.086,0.086,0.086
	c0.047,0,0.086-0.037,0.087-0.084c0.017-0.594,0.188-1.193,0.34-1.762c0.145-0.535,0.234-1.271,0.618-1.691
	c0.349-0.379,0.812-0.65,1.296-0.818c0.498-0.174,0.973-0.17,1.437-0.441c0.336-0.193,0.308-0.422,0.354-0.779
	c0.062-0.432,0.207-0.861,0.381-1.262c0.18-0.418,0.416-0.842,0.716-1.189C123.017,97.22,123.022,97.185,123.007,97.151z"/>
<path fill="#333333" d="M125.306,105.054c1.298-1.189,2.312-2.131,2.312-2.131c0.035-0.031,0.037-0.084,0.008-0.119
	s-0.083-0.041-0.119-0.014c-1.041,0.795-2.055,1.199-3.012,1.199c-1.418,0-2.226-0.906-2.234-0.916
	c-0.549-0.586-0.625-1.475-0.506-2.232c0.047-0.305,0.12-0.604,0.142-0.912c0.009-0.123,0.011-0.25,0.019-0.375
	c0.004-0.057,0.025-0.129-0.006-0.184c-0.068,0.131-0.062,0.293-0.086,0.436c-0.008,0.051-0.021,0.336-0.072,0.359l-1.172,0.537
	c-0.043,0.018-0.062,0.068-0.045,0.109l0.352,0.904c0.407,1.629-0.992,4.049-1.006,4.074c-0.019,0.029-0.017,0.066,0.006,0.094
	c0.021,0.029,0.059,0.041,0.092,0.031c0.674-0.195,1.465-1.748,1.673-2.178c0.447,0.371,1.294,0.721,1.331,0.738
	c0.006,0.002,0.013,0.002,0.018,0.002c0.729,0.135,1.178,0.387,1.34,0.744c0.141,0.305,0.021,0.609-0.025,0.707
	c-1.746,0.344-2.707,0.623-2.717,0.627c-0.041,0.012-2.494,0.488-0.172,0.301c0.042-0.004,0.154-0.133,0.198-0.133l4.888-0.139
	c0.042-0.002,0.078-0.035,0.084-0.076c0.005-0.041-0.021-0.082-0.062-0.096c-1.095-0.336-1.376-0.678-1.42-0.91
	C125.065,105.251,125.298,105.06,125.306,105.054z"/>
<path fill="#333333" d="M130.174,88.825c-0.069-0.143-1.735-3.52-3.224-3.52c-0.07,0-0.139,0.008-0.205,0.023
	c-0.041,0.008-0.068,0.043-0.068,0.086c0,0.035,0.079,3.627,2.225,5.512c0.016,0.014,0.037,0.021,0.057,0.021
	c0.002,0,0.002,0,0.004,0c0.048,0,0.086-0.035,0.086-0.086c0-0.023-0.008-0.043-0.023-0.061c-0.461-0.852-1.555-3.133-1.303-3.832
	c0.018-0.008,0.049-0.02,0.104-0.02c0.211,0,0.847,0.191,2.2,1.965c0.025,0.035,0.078,0.043,0.115,0.021
	C130.179,88.913,130.192,88.866,130.174,88.825z"/>
<path fill="#333333" d="M132.209,93.296c0,0-1.333-2.355-1.353-2.391c-0.023-0.043-0.077-0.055-0.118-0.031
	c-0.042,0.021-0.056,0.076-0.032,0.115c0.07,0.123-0.092,0.496-0.145,0.621l-0.014,0.025c-0.125,0.289-0.316,0.504-0.666,0.74
	c-0.455,0.311-0.926,0.48-1.324,0.48c-0.23,0-0.445-0.057-0.637-0.168c-0.42-0.25-0.787-0.754-1.121-1.545l-0.043-0.102
	c-0.732-1.809-1.297-2.547-1.944-2.547c-0.197,0-0.4,0.07-0.604,0.221c-0.006,0.004-0.015,0.012-0.019,0.02
	c-0.031,0.041-0.087,0.092-0.11,0.092c-0.002-0.002-0.123-0.064-0.058-0.887c0.021-0.277-0.311-0.484-0.454-0.562
	c-0.383-0.201-0.831-0.258-1.064-0.271c-0.038-0.002-0.08-0.006-0.122-0.008c-0.343-0.016-0.641-0.029-0.736-0.393
	c-0.108-0.418,0.274-0.709,0.513-0.842c0.008-0.004,0.588-0.346,1.012-0.475c0.036-0.012,0.061-0.045,0.062-0.082
	c0.002-0.033-0.021-0.068-0.057-0.082c-0.009-0.004-0.245-0.088-0.569-0.088c-0.312,0-0.592,0.074-0.836,0.225
	c-0.113-0.236-0.45-0.852-0.979-1.018c-0.037-0.012-0.074,0-0.094,0.029c-0.023,0.029-0.025,0.068-0.007,0.1
	c0.009,0.01,0.761,1.236,0.321,1.975c-0.152,0.258-0.414,0.518-0.799,0.793c-0.205,0.146-0.451,0.25-0.686,0.355
	c-0.373,0.16-0.758,0.33-1.03,0.658c-0.358,0.43-0.528,1.053-0.493,1.797c0.001,0.047,0.041,0.084,0.086,0.084
	c0.051,0.002,0.09-0.039,0.09-0.09c0-0.008-0.002-0.016-0.002-0.021c0-0.131,0.033-0.82,0.571-1.389
	c0.498-0.525,1.274-0.803,2.31-0.824c0.105,0,0.212-0.004,0.321-0.01c0.146-0.008,0.297-0.014,0.446-0.014
	c0.282,0,0.647,0.021,0.965,0.182c0.592,0.299,0.592,1.008,0.59,1.627v0.053c-0.016,0.15-0.348,3.795,0.868,3.951
	c0.003,0,0.008,0,0.015,0c0.029,0,0.075-0.02,0.09-0.047c0.019-0.037-0.023-0.057-0.042-0.082c-0.016-0.021-0.027-0.041-0.04-0.062
	c-0.036-0.061-0.058-0.129-0.08-0.193c-0.05-0.146-0.084-0.297-0.117-0.443c-0.031-0.135-0.062-0.271-0.092-0.406l-0.012-0.055
	c-0.17-0.773-0.175-1.375-0.017-1.893c0.169-0.553,0.582-0.973,0.96-0.973c0.234,0,0.448,0.162,0.622,0.467
	c0.015,0.029,1.536,2.828,1.285,3.725c-0.349,1.242-1.671,1.686-2.79,1.686c-0.648,0-1.271-0.145-1.752-0.404
	c-0.418-0.229-0.967-0.703-1.203-1.18c-0.005-0.01-0.559-1.123-0.906-2.105c-0.016-0.043-0.066-0.068-0.11-0.053
	c-0.045,0.016-0.069,0.066-0.054,0.111c0.123,0.348,0.143,0.709,0.16,1.086c0.018,0.326,0.033,0.662,0.121,0.984
	c0.174,0.635,0.545,1.186,1.049,1.551c0.705,0.512,1.555,0.797,2.387,0.801h0.021c0.421,0,0.866-0.086,1.298-0.166
	c0.425-0.08,0.867-0.166,1.282-0.166c0.167,0,0.314,0.014,0.457,0.039c0.782,0.146,0.989,1.469,1.067,1.967
	c0.007,0.041,0.043,0.072,0.088,0.072c0.195,0,0.074-0.592,0.08-0.701c0.026-0.439-0.031-0.832-0.246-1.225
	c-0.058-0.104-0.123-0.205-0.197-0.299c-0.07-0.094-0.166-0.184-0.258-0.271c-0.144-0.135-0.294-0.277-0.356-0.426
	c-0.171-0.426,0.302-0.771,0.728-1.021c0.018-0.012,1.885-0.9,3.253-0.9c0.519,0,0.901,0.129,1.132,0.379
	c0.028,0.035,0.078,0.039,0.114,0.014C132.219,93.382,132.229,93.335,132.209,93.296z"/>
<path fill="#333333" d="M121.393,95.14l-0.427-0.889c-0.008-0.016-0.021-0.031-0.037-0.039c-0.03-0.018-0.74-0.389-1.822-0.389
	c-0.272,0-0.551,0.025-0.838,0.076c-0.015,0.006-1.367,0.561-1.299,2.234c-0.011,0-0.024,0.004-0.045,0.004
	c-0.186,0-0.562-0.09-0.688-0.123c-0.418-0.111-0.646-0.256-0.567-0.676c0.049-0.254,0.178-0.35,0.374-0.494l0.087-0.064
	c0.653-0.498,1.208-1.146,1.523-1.783c0.158-0.322,0.307-0.803,0.112-1.277v-0.002c-0.019-0.043-0.069-0.064-0.112-0.047
	c-0.045,0.018-0.066,0.068-0.047,0.113c0.086,0.211-0.377,0.945-0.659,1.295c-0.435,0.539-1.017,0.912-1.476,1.174l-0.144,0.086
	c-0.483,0.281-1.028,0.598-1.569,0.643c-0.049,0.006-0.082,0.049-0.079,0.096s0.042,0.082,0.093,0.078c0,0,0,0,0.001,0l0,0
	c0.006,0,0.117-0.012,0.271-0.012c0.505,0,0.864,0.094,0.987,0.258c0.053,0.07,0.064,0.158,0.031,0.279
	c-0.004,0.023-0.071,0.576-0.812,1.02l-0.041,0.023c-0.83,0.471-2.331,1.674-2.402,1.73c-0.002,0.002-0.072,0.074-0.16,0.074
	c-0.111,0-0.198-0.123-0.252-0.223c-0.037-0.066-0.074-0.125-0.139-0.125c-0.027,0-0.059,0.016-0.076,0.037
	c-0.027,0.037-0.084,0.111,0.277,1.438c0.009,0.029-0.397,0.051-0.368,0.059c0.008,0.002-0.022,0.127-0.029,0.129
	c-0.451,0.182,0.353-0.002,0.542-0.152c0.032-0.025,2.698-2.742,3.959-2.742c0.014,0,0.029,0.002,0.056,0.002
	c0.002,0,0.083-0.008,0.206-0.008c0.332,0,0.928,0.051,1.215,0.393c0.134,0.158,0.185,0.367,0.15,0.623
	c-0.186,0.045-0.812,0.195-1.353,0.223c-0.039,0-0.073,0.029-0.08,0.068c-0.007,0.041,0.015,0.08,0.05,0.096
	c0.03,0.014,0.785,0.342,1.814,0.342c0.697,0,1.349-0.15,1.937-0.455c0.038-0.018,0.056-0.061,0.044-0.1
	c-0.013-0.039-0.05-0.066-0.092-0.061c-0.005,0-0.359,0.039-0.758,0.039c-0.363,0-0.648-0.035-0.827-0.096
	c-0.083-0.295-0.554-2.115,0.065-2.947c0.203-0.271,0.512-0.41,0.916-0.41h0.026c0,0,0.022,0,0.06,0
	c0.308,0,1.382,0.043,2.287,0.613c0.014,0.008,0.029,0.014,0.045,0.014c0.002,0,0.003,0,0.004,0c0.048,0,0.087-0.037,0.087-0.088
	C121.414,95.177,121.405,95.159,121.393,95.14z"/>
<path fill="#333333" d="M132.606,98.349c-0.019-0.027,0.047-0.336,0.016-0.33c-0.034,0.004-0.16,0.32-0.171,0.352
	c-0.049,0.166-0.24,0.635-0.458,0.635c-0.088,0-0.268-0.084-0.5-0.639c-0.055-0.164-1.355-4.008-2.59-4.275
	c-0.037-0.008-0.075,0.01-0.096,0.041c-0.017,0.031-0.013,0.074,0.012,0.102c0.021,0.023,2.148,2.381,0.848,3.961
	c-0.129,0.123-0.213,0.223-0.216,0.227c-0.03,0.033-0.028,0.086,0.005,0.119c0.032,0.031,0.085,0.033,0.119,0
	c0.079-0.07,0.15-0.148,0.217-0.23c0.314-0.301,0.723-0.633,0.933-0.049c0.245,0.688,0.735,1.314,1.293,1.775
	c0.313,0.26,0.806,0.645,1.233,0.645c0.145,0,0.213-0.072,0.246-0.133C133.729,100.118,132.796,98.64,132.606,98.349z"/>
<path fill="#333333" d="M132.717,100.603c-0.042-0.014-0.089,0.01-0.106,0.049l0,0c-0.002,0.004-0.002,0.006-0.004,0.008l0,0
	l-0.195,0.559c-0.069,0.145-0.15,0.246-0.258,0.312c-0.062,0.043-0.127,0.062-0.197,0.062c-0.188,0-0.39-0.141-0.587-0.279
	c-0.132-0.094-0.257-0.18-0.382-0.229c-0.084-0.033-0.172-0.051-0.258-0.07c-0.088-0.016-0.168-0.031-0.24-0.062
	c-0.201-0.086-0.284-0.26-0.379-0.461c-0.024-0.049-0.049-0.102-0.076-0.15c-0.141-0.268-0.449-0.404-0.917-0.404
	c-0.128,0-0.247,0.008-0.326,0.018c-0.033,0.004-0.086,0.008-0.152,0.016c-0.278,0.033-0.798,0.092-1.283,0.092
	c-0.772,0-0.962-0.152-1.006-0.242c-0.055-0.113,0.046-0.277,0.14-0.395c0.02-0.025,0.023-0.061,0.01-0.092
	c-0.016-0.029-0.045-0.049-0.078-0.049c-0.002,0-0.002,0-0.002,0c-0.012,0-1.394,0.029-1.396,1.639c0,0.037,0.021,0.07,0.059,0.08
	c0.035,0.012,0.074,0,0.096-0.029c0.193-0.25,0.38-0.383,0.559-0.402c0.182-0.018,0.353,0.025,0.539,0.074
	c0.109,0.025,0.223,0.057,0.338,0.07c0.246,0.035,0.502,0.037,0.729,0.045c0.487,0.012,0.968-0.014,1.562-0.084
	c0.365-0.047,0.569,0.025,0.789,0.316c0.248,0.328,0.036,0.691-0.167,1.041c-0.067,0.117-0.13,0.227-0.177,0.332
	c-0.221,0.498-0.436,1.225-0.224,1.852c0.124,0.363,0.413,0.676,0.818,0.877c0.012,0.006,0.024,0.008,0.038,0.008h0.002
	c0.051,0.002,0.088-0.037,0.088-0.086c0-0.035-0.02-0.061-0.045-0.074c-0.379-0.352-0.377-1.264-0.229-1.793l0.04-0.145
	c0.099-0.361,0.198-0.732,0.422-1.004c0.262-0.316,0.646-0.264,1.006,0.096c0.116,0.115,0.206,0.26,0.296,0.402
	c0.091,0.143,0.185,0.291,0.307,0.414c0.02,0.021,0.051,0.029,0.079,0.021c0.029-0.004,0.052-0.025,0.062-0.051
	c0.159-0.422,0.307-0.855,0.45-1.273l0.111-0.326c0.061-0.129,0.101-0.262,0.142-0.393c0.021-0.064,0.039-0.125,0.06-0.184l0,0l0,0
	C132.788,100.663,132.763,100.62,132.717,100.603z"/>
<path fill="#333333" d="M113.397,119.347L113.397,119.347c-0.076,0-0.149-0.002-0.224-0.004c-0.952-0.035-2.296-0.246-2.976-1.68
	c-0.21-0.443-0.42-0.887-0.629-1.332c-0.639-1.35-1.3-2.748-1.973-4.107l-0.311-0.627l0.664-0.219
	c2.873-0.928,3.757-1.217,4.037-1.307l0.096-0.031v0.002c0.031-0.01,0.034-0.012,0.04-0.012l0.171,0.596l0.262-0.102
	c0.084-0.182,0.315-0.014,0.286-0.092c0.069,0.178,0.615,1.156,0.692,1.281c0.771,1.217,1.619,2.299,2.522,3.215l0.12,0.117
	c0.48,0.486,1.027,1.033,1.188,1.844c0.195,0.994-0.445,1.83-1.633,2.121C115.095,119.167,114.252,119.347,113.397,119.347z
	 M108.988,112.313c0.571,1.174,1.13,2.354,1.673,3.504c0.209,0.441,0.419,0.885,0.629,1.326c0.32,0.674,0.86,0.951,1.928,0.99
	c0.785,0.027,1.607-0.146,2.227-0.297c0.249-0.064,0.824-0.256,0.734-0.715c-0.089-0.447-0.463-0.824-0.859-1.221l-0.121-0.123
	c-0.964-0.979-1.869-2.129-2.686-3.42c-0.047-0.074-0.26-0.451-0.428-0.758c-0.05-0.092-0.095-0.172-0.135-0.246
	C111.206,111.593,109.814,112.048,108.988,112.313z"/>
<path fill="#333333" d="M119.933,115.81c-1.736,0-3.696-0.467-5.863-1.398l0.478-1.111c3.677,1.582,6.636,1.721,8.792,0.412
	c3.312-2.012,3.701-6.809,3.703-6.855l1.207,0.086c-0.017,0.223-0.445,5.471-4.283,7.799
	C122.796,115.454,121.448,115.81,119.933,115.81z"/>
<path fill="#333333" d="M113.127,111.571l-0.212-0.475c0.172-0.078,4.244-1.883,6.814-1.883c2.671,0,6.788-0.781,7.139-1.031
	l0.332,0.4c-0.488,0.406-4.961,1.148-7.471,1.148C117.271,109.731,113.169,111.552,113.127,111.571z"/>
<path fill="#333333" d="M113.485,112.36l-0.068-0.516c2.187-0.285,5.631-0.807,6.158-1.082c0.269-0.09,5.609-1.76,7.177-1.445
	l-0.101,0.512c-1.191-0.23-5.37,0.941-6.877,1.414C119.038,111.632,114.05,112.286,113.485,112.36z"/>
<path fill="#333333" d="M125.2,111.597c-1.383,0-4.473-0.037-5.574-0.352l0.143-0.502c1.336,0.381,6.055,0.326,6.104,0.328
	l0.006,0.521C125.836,111.593,125.583,111.597,125.2,111.597z"/>
<path fill="#333333" d="M113.818,113.167l-0.063-0.514c0.203-0.027,4.961-0.604,6.506-0.498c2.629,0.17,4.588,0.068,5.111-0.271
	l0.281,0.438c-0.862,0.559-3.77,0.463-5.426,0.354C118.743,112.581,113.867,113.165,113.818,113.167z"/>
<path fill="#333333" d="M115.022,113.925l-0.104-0.51c0.137-0.027,3.367-0.666,5.997-0.367c2.477,0.281,2.906,0.15,3.556-0.045
	l0.073-0.021l0.149,0.498l-0.07,0.021c-0.714,0.215-1.182,0.357-3.768,0.062C118.312,113.274,115.054,113.919,115.022,113.925z"/>
<path fill="#333333" d="M116.937,114.655l-0.099-0.514c0.181-0.033,4.443-0.832,6.253-0.289l-0.15,0.496
	C121.254,113.851,116.98,114.646,116.937,114.655z"/>
<path fill="#333333" d="M117.498,108.927l-0.198-0.482c1.072-0.441,8.846-0.6,9.727-0.615l0.01,0.52
	C123.609,108.415,118.24,108.62,117.498,108.927z"/>
</svg>
