<?xml version="1.0" encoding="utf-8"?>
<!-- Generator: Adobe Illustrator 15.0.0, SVG Export Plug-In  -->
<!DOCTYPE svg PUBLIC "-//W3C//DTD SVG 1.1//EN" "http://www.w3.org/Graphics/SVG/1.1/DTD/svg11.dtd" [
	<!ENTITY ns_flows "http://ns.adobe.com/Flows/1.0/">
]>
<svg version="1.1"
	 xmlns="http://www.w3.org/2000/svg" xmlns:xlink="http://www.w3.org/1999/xlink" xmlns:a="http://ns.adobe.com/AdobeSVGViewerExtensions/3.0/"
	 x="0px" y="0px" width="293px" height="227px" viewBox="-58.256 -88.741 293 227"
	 overflow="visible" enable-background="new -58.256 -88.741 293 227" xml:space="preserve">
<defs>
</defs>
<path fill-rule="evenodd" clip-rule="evenodd" fill="#6D6E71" d="M131.18,0.14c8.694-0.828,16.724,5.664,16.775,15.333
	c0.077,14.75-18.468,19.398-26.596,10.542c-0.878-0.955-2.103-2.742-2.637-3.833c-2.908-5.914-0.958-13.835,2.394-17.489
	C123.393,2.212,125.825,0.65,131.18,0.14z M127.587,5.171c2.154,0.005,4.576-0.263,4.794,1.676
	c-4.656-0.953-6.337,4.335-11.264,3.114c-0.632,1.665-1.637,6.349,0.482,7.191c0.028-2.133,1.221-4.368,2.635-4.314
	c-2.087,3.593,1.978,7.811-0.241,11.502c1.717,1.042,4.549,3.375,7.186,1.916c-1.621-0.773-3.399-1.391-3.352-3.834
	c2.309,2.563,8.949,0.795,11.262,3.355c1.966-1.388,3.693-3.014,4.072-5.989c-1.631,0.762-2.207,2.583-5.033,2.155
	c3.379-2.056,2.762-8.1,6.471-9.822c-0.759-2.596-2.089-4.62-4.552-5.512c0.286,1.405,1.835,3.781,0.479,5.269
	c-0.955-4.314-6-4.543-6.948-8.864C130.902,3.051,128.501,3.37,127.587,5.171z"/>
<path fill-rule="evenodd" clip-rule="evenodd" fill="#6D6E71" d="M22.16,6.127c1.626-1.249,2.163-3.081,4.072-4.312
	c4.62-2.972,12.301-2.094,15.337,1.917c3.001,3.969,2.395,10.557,2.395,17.972c0,2.969,1.271,8.202-2.395,7.906
	c-1.283-2.26-0.718-5.405-0.718-8.147c0-9.119,1.038-19.018-8.866-18.45c-4.31,0.246-6.487,2.855-8.387,5.989
	c-0.213,4.888,0.28,11.644,0,17.252c-0.08,1.642,0.2,3.997-2.396,3.355c-1.205-0.922-0.711-2.635-0.719-4.075
	c-0.036-6.736,1.135-17.24-2.399-20.606C13.654,0.705,5.02,3.899,3.231,9.004c-0.23,4.913,0.299,11.636,0,17.252
	c-0.085,1.579,0.163,4.01-2.396,3.355c-1.263-1.452-0.718-4.351-0.718-6.95c0-4.896,0-10.153,0-15.332
	c0-2.421-0.374-4.97,0.478-6.949C3.142,0.228,3.122,2.646,2.99,5.171c1.792-1.934,4.197-4.549,7.909-5.031
	C15.962-0.519,20.979,2.104,22.16,6.127z"/>
<path fill-rule="evenodd" clip-rule="evenodd" fill="#6D6E71" d="M75.593,29.612c-2.964,0.405-2.671-2.44-2.635-5.031
	c-1.158,0.691-1.683,2.127-3.116,3.114c-4.593,3.163-13.639,3.116-16.773-0.958c-1.964-2.555-1.894-6.884,0-9.344
	c3.48-4.523,13.212-4.395,19.89-4.793c1.418-8.983-8.418-11.756-14.617-8.147c-1.919,1.119-2.603,2.596-4.072,3.833
	c-3.36-1.931,0.427-5.165,1.676-5.988c7.202-4.735,18.296-1.821,19.888,5.75c0.676,3.222,0.241,8.06,0.241,12.46
	C76.074,23.74,76.449,27.089,75.593,29.612z M55.225,19.789c-2.559,5.627,3.786,8.265,9.346,7.426
	c5.349-0.806,9.255-5.909,8.387-11.979C65.962,15.208,57.097,15.671,55.225,19.789z"/>
<path fill-rule="evenodd" clip-rule="evenodd" fill="#6D6E71" d="M109.618,29.612c-3.719,0.493-2.396-5.199-2.396-8.147
	c0-8.116,0.872-15.729-5.031-17.969c-5.625-2.134-11.399,1.487-13.418,5.75c-0.272,4.874,0.355,11.689,0,17.252
	c-0.106,1.661,0.094,3.706-2.396,3.114c-1.256-1.806-0.72-4.473-0.72-6.95c0-6.072-0.327-12.811,0-19.167
	c0.058-1.08-0.415-2.526,0.72-3.114c2.365,0.027,2.424,2.366,2.396,4.791c2.27-2.765,5.731-5.705,11.979-5.031
	c5.399,0.581,8.994,4.613,9.587,10.063c0.463,4.269,0.025,10.25,0,15.094C110.328,26.703,110.795,28.513,109.618,29.612z"/>
<path fill-rule="evenodd" clip-rule="evenodd" fill="#6D6E71" d="M174.553,6.848c-1.058,0.573-1.579-0.698-2.157-1.197
	c-1.314-1.131-2.923-2.52-5.512-2.875c-4.556-0.626-10.024,1.005-9.825,5.509c0.357,8.027,20.548,2.265,19.168,14.377
	c-0.787,6.935-12.371,9.472-19.406,5.751c-1.696-0.895-4.852-3.361-2.637-5.751c1.614,0.146,2.375,2.144,4.074,3.116
	c4.082,2.336,16.108,2.739,14.856-4.792c-0.505-3.028-5.006-4.016-8.628-4.792c-3.757-0.808-7.774-1.603-9.343-3.836
	c-4.116-5.862,2.327-11.587,7.428-12.218c1.815-0.226,4.756-0.175,6.469,0.241C172.661,1.254,176.859,4.074,174.553,6.848z"/>
<path fill-rule="evenodd" clip-rule="evenodd" fill="#6D6E71" d="M105.544,37.277c0.424,1.754,0.24,4.125,0.24,6.47
	c0,2.116,0.382,4.566-0.479,5.991c-2.257-0.158-1.438-3.336-1.438-5.512c0-2.272,0-4.906,0-6.706c0.192-0.207,0.656-0.144,0.72-0.48
	C104.799,37.226,105.126,37.298,105.544,37.277z"/>
<path fill-rule="evenodd" clip-rule="evenodd" fill="#6D6E71" d="M149.153,38.717c0.369,0.346,0.211,1.227,0.241,1.917
	c0.514,0.443,1.754,0.161,2.634,0.239c0.81,1.523-0.981,1.888-2.634,1.678c0.147,1.847-0.394,4.385,0.479,5.51
	c1.277,0.415,1.666-0.85,2.395-0.239c0.554,2.34-2.36,2.113-3.831,1.676c-1.357-1.201-0.884-4.229-0.961-6.708
	c-0.409-0.391-1.202-0.394-1.437-0.959c-0.058-0.936,0.889-0.867,1.437-1.197C147.287,39.246,147.707,38.47,149.153,38.717z"/>
<path fill-rule="evenodd" clip-rule="evenodd" fill="#6D6E71" d="M60.258,49.738c-1.217,0.258-1.474-0.443-1.917-0.958
	c-1.692,1.709-5.629,1.141-5.989-0.958c-0.466-2.725,2.894-3.756,5.989-3.596c-0.009-1.985-1.361-2.085-2.635-1.916
	c-1.241,0.165-1.686,2.075-2.637,1.199c-1.241-3.751,6.504-3.644,7.189-0.958C60.258,44.946,60.258,47.34,60.258,49.738z
	 M54.269,46.861c0.28,2.505,4.769,1.48,4.072-1.197C56.471,45.551,55,45.839,54.269,46.861z"/>
<path fill-rule="evenodd" clip-rule="evenodd" fill="#6D6E71" d="M73.197,43.747c-1.631,0.446-1.439-1.224-2.876-1.437
	c-1.925-0.285-3.268,1.143-3.355,2.636c-0.057,0.981,0.61,2.767,1.679,3.116c2.406,0.783,2.597-1.365,4.553-1.439
	c0.636,3.047-2.789,3.651-5.033,3.116c-2.199-0.523-4.091-4.136-2.635-6.947C66.834,40.272,73.754,39.25,73.197,43.747z"/>
<path fill-rule="evenodd" clip-rule="evenodd" fill="#6D6E71" d="M85.656,43.988c-1.704-0.397-1.293-1.515-2.875-1.678
	c-4.21-0.433-4.241,6.528,0.238,5.751c1.261-0.221,1.114-1.549,2.876-1.439c0.651,2.565-2.2,3.496-5.271,3.116
	c-2.512-1.144-4.025-4.717-2.157-7.428C80.312,39.634,87.059,40.011,85.656,43.988z"/>
<path fill-rule="evenodd" clip-rule="evenodd" fill="#6D6E71" d="M99.074,45.664c-1.816,0.499-4.508,0.124-6.707,0.239
	c0.186,1.559,1.234,2.298,2.394,2.398c1.631,0.138,2.678-1.709,3.836-1.199c0.808,3.407-5.352,3.092-6.95,1.677
	c-3.646-3.229-0.082-9.224,4.551-8.146C97.884,41.024,99.148,42.672,99.074,45.664z M92.367,44.465
	c1.547-0.13,3.63,0.277,4.79-0.239C97.171,41.597,92.092,41.641,92.367,44.465z"/>
<path fill-rule="evenodd" clip-rule="evenodd" fill="#6D6E71" d="M119.443,45.664c-1.783,0.535-4.539,0.097-6.71,0.239
	c0.4,1.692,1.372,2.428,2.876,2.398c1.393-0.03,2.267-1.812,3.354-1.199c0.834,2.542-2.559,2.85-5.272,2.635
	c-1.064-0.917-2.209-1.299-2.635-2.397C108.405,40.503,119.978,37.29,119.443,45.664z M112.732,44.226
	c1.104,0.391,3.688,0.391,4.793,0C117.753,41.363,112.66,41.894,112.732,44.226z"/>
<path fill-rule="evenodd" clip-rule="evenodd" fill="#6D6E71" d="M124.714,40.634c0.895-0.019,1.373,0.383,1.674,0.958
	c0.683-0.598,1.37-1.188,2.88-0.958c0.527,0.517,0.989,1.243,0.476,2.156c-0.887,0.169-1.028-0.411-1.916-0.239
	c-2.801,0.391-0.094,6.294-2.395,7.187c-1.412-0.022-0.945-2.362-0.961-3.834C124.454,43.942,124.307,41.869,124.714,40.634z"/>
<path fill-rule="evenodd" clip-rule="evenodd" fill="#6D6E71" d="M141.726,49.738c-0.885,0.006-1.65-0.106-1.678-0.958
	c-1.636,1.241-5.118,1.506-5.991-0.241c-1.391-2.783,2.13-4.676,5.753-4.313c0.293-1.57-1.038-2.04-2.397-1.916
	c-1.327,0.122-1.891,2.016-2.875,1.199c-0.898-3.5,5.185-3.645,6.709-1.917C142.996,43.576,141.628,47.038,141.726,49.738z
	 M135.976,47.822c1.588,1.124,4.116,0.072,4.072-1.919C138.504,45.451,135.541,45.511,135.976,47.822z"/>
<path fill-rule="evenodd" clip-rule="evenodd" fill="#6D6E71" d="M159.457,40.874c3.64-0.869,6.216,1.471,5.991,4.791
	c-0.349,5.044-9.603,6.075-9.346-0.718C156.17,43.187,156.647,41.543,159.457,40.874z M161.851,48.062
	c2.831-0.847,1.988-7.039-2.155-5.51C156.206,43.841,158.562,49.046,161.851,48.062z"/>
<path fill-rule="evenodd" clip-rule="evenodd" fill="#6D6E71" d="M172.155,41.592c0.588-0.894,2.596-1.385,3.593-0.48
	c0,0.48,0,0.958,0,1.44c-0.62,0.592-1.174-0.235-2.156,0c-2.587,0.604-0.192,6.194-2.395,7.187
	c-2.014-1.102-0.478-5.751-0.959-8.385c-0.039-0.279,0.053-0.427,0.241-0.479C171.072,40.349,171.905,41.042,172.155,41.592z"/>
</svg>
